<?xml version="1.0" encoding="UTF-8"?>
<svg id="uuid-dcae779c-3783-4835-a3de-6a2a5f38a435" data-name="Layer 1" xmlns="http://www.w3.org/2000/svg" viewBox="0 0 1000 1000">
  <defs>
    <style>
      .uuid-5e42e370-b8fa-4978-a234-65c72b128a5c {
        fill: #fff;
      }
    </style>
  </defs>
  <path class="uuid-5e42e370-b8fa-4978-a234-65c72b128a5c" d="m473.19,256.39c-6.93,10.06-13.45,19.58-20.05,29.1-20.51,29.7-41.02,59.4-61.47,89.11-14.72,21.38-29.5,42.69-44.22,64.07-9.99,14.45-19.91,28.9-29.77,43.42-1.2,1.73-2.4,2.4-4.6,2.4-17.85,0-35.63,0-53.48.07-2.46,0-4.2-.6-5.73-2.93-7.33-11.12-14.85-22.18-22.51-33.1-6.93-9.92-13.79-19.91-20.51-29.97-13.32-19.91-27.04-39.56-40.29-59.47-5.06-7.66-10.19-15.25-15.85-22.51-2.06-2.6-3.46-5.73-5.33-8.59-1-1.53-1.8-3.26-3.33-4.4-1,.8-.87,1.66-.87,2.53v357.42c0,5.86-2.97,8.79-8.92,8.79-10.86,0-21.71-.07-32.57.07-2.73,0-3.6-.87-3.26-3.4.13-1.2,0-2.46,0-3.66v-421.88c0-4.79,2.35-7.19,7.06-7.19h51.81c2.66,0,4.13,1,5.59,3.2,10.19,15.12,20.44,30.1,30.77,45.15,3.6,5.26,7.59,10.39,10.86,15.85,4.99,8.32,10.59,16.18,16.05,24.04,6.06,8.79,12.12,17.58,18.25,26.31,9.59,13.79,18.85,27.84,28.3,41.76,5.33,7.86,10.79,15.58,16.12,23.44,1.53,2.2,2.33,2,3.66-.13,7.19-11.05,14.72-21.98,22.31-32.77,10.72-15.45,21.44-30.9,32.23-46.35,12.05-17.31,23.91-34.7,35.9-52.01,9.86-14.25,19.78-28.5,29.64-42.82.33-.47.4-1.07.67-1.47,1.73-2.66,3.66-4.26,7.39-4.2,18.51.27,36.96.13,56.14.13Z"/>
  <path class="uuid-5e42e370-b8fa-4978-a234-65c72b128a5c" d="m683.17,692.39h-71.12c-3.06,0-6.19.27-9.26.53-1.53.13-2.13-.4-2.13-2v-35.9c0-2.06,1.07-2,2.46-2h130.53c3.4,0,6.73-.27,9.72-2.13.2-.13.53-.2.8-.2,17.98,1.27,46.42-9.32,58.54-19.65,8.79-7.46,15.98-16.05,20.44-26.57,4.26-9.86,6.79-20.11,6.93-31.23.33-20.71-6.26-38.69-19.31-54.21s-29.5-25.64-49.68-29.83c-16.05-3.4-32.17-4.2-48.42-4.26-36.23-.13-72.46-.07-108.62,0-3,0-3.6-.8-3.6-3.66.2-11.19.13-22.38,0-33.56,0-2.73.73-3.46,3.46-3.46,35.56.07,71.12.13,106.62,0,5.33,0,10.66-.33,15.98-.8,9.39-.8,18.58-1.73,27.64-4.4,21.31-6.26,38.29-18.11,47.95-38.69,5.06-10.79,7.26-22.44,5.46-34.16-1.2-7.59-2.26-15.45-5.99-22.64-4.66-8.99-10.32-17.18-17.98-23.84-5.53-4.86-11.65-8.92-18.31-12.12-9.66-4.6-19.85-6.86-30.43-8.32-18.25-2.6-36.56-1.73-54.87-1.86-25.37-.2-50.75,0-76.05.07-2.86,0-3.46-.8-3.4-3.53.13-11.65.13-23.24,0-34.9,0-2.13.47-2.86,2.73-2.8,16.58,0,33.23.2,49.81-.27,18.58-.53,37.16.33,55.74.2,3.33,0,6.53,1,9.86.73,1.66-.13,3.26,0,4.73-.93,1.13-.73,2.2-.53,3.26.4.6.53,1.66,1.27,2.26,1.07,3.8-1.33,7.73,1.6,11.45-.4.27-.13.73-.2.93,0,5.86,3.93,12.92,3.33,19.31,4.99,23.38,6.19,43.42,17.91,60.27,35.16,9.99,10.26,17.78,21.98,22.84,35.43,3.06,8.26,4.93,16.72,6.06,25.51,1.13,9.12,1.33,18.18.53,27.3-1.73,19.78-9.52,37.09-21.98,52.41-5.86,7.19-12.45,13.65-19.45,19.71-.27.2-.67.2-.87.47-2.26,3.2-3.6,2.93.93,5.13,16.32,7.92,30.63,18.45,42.16,32.57,7.46,9.12,13.12,19.31,17.12,30.37,4.2,11.72,5.99,23.84,6.93,36.29,1.13,14.58-.53,28.7-4.53,42.55-6.86,23.71-19.31,43.89-39.36,58.74-14.05,10.46-29.77,17.58-46.55,22.31-14.38,4.06-29.04,5.79-43.95,5.66-19.25-.2-38.49,0-57.81,0v.6l.2.13Z"/>
  <path class="uuid-5e42e370-b8fa-4978-a234-65c72b128a5c" d="m503.76,510.25v-177.74c0-2.97,1.49-4.46,4.46-4.46,11.72,0,23.51.13,35.23-.07,2.93,0,3.6.73,3.6,3.6,1,117.47.07,234.88.4,352.36,0,5.64-2.8,8.46-8.39,8.46-10.66,0-21.24-.13-31.9,0-2.8,0-3.46-.8-3.46-3.53.07-59.6,0-119.14,0-178.74l.07.13Z"/>
  <path class="uuid-5e42e370-b8fa-4978-a234-65c72b128a5c" d="m729.92,749.93h0c-2.8-9.06-8.46-12.39-18.11-13.45-5.59-.67-11.25,0-16.92-.2-2.4-.07-3.2.53-3.13,3.06.13,12.85,0,25.64,0,38.49,0,7.26,0,7.59,7.39,7.19,6.93-.4,13.92,1.4,20.84-2.13,4.73-2.33,6.86-5.99,8.92-9.99.6-1.2,1-2.46,1.33-3.73,1.8-9.06-.27-18.78-.4-19.25h.07Zm-6.33,19.78c-.73,2.6-2.6,4.53-4.86,6.53-5.73,4.99-12.19,2.53-18.31,3.33-1.8.27-2.26-.47-2.2-2.2.07-5.66,0-11.32,0-16.92v-16.25c0-1.73.47-2.33,2.2-2.26,4.79.13,9.59-.13,14.38.87,4.4.93,9.32,7.26,9.59,12.59.2,4.79.53,9.72-.73,14.38l-.07-.07Z"/>
  <path class="uuid-5e42e370-b8fa-4978-a234-65c72b128a5c" d="m873.63,777.17c-1.8,3.13-4.26,5.13-7.79,6.66-7.66,3.2-14.85,2.6-21.98-1-4.46-2.2-5.99-6.53-6.93-11.05-.13-.73-.2-2.66,1.66-2.26,1.73.33,4.2-1.47,4.99,1.47.27.87.4,1.73.67,2.6,0,0,.6,4.53,8.52,6.19h.33c2,.4,4.2.47,6.13,0,2.53-.6,5.39-.93,7.19-3.06,3.6-4.2,1.73-9.52-4.13-11.39-3.46-1.07-7.06-1.6-10.46-2.73-4.4-1.47-9.52-2.2-11.92-6.79-4.06-8.06-.33-18.05,9.66-20.31,3.2-.73,6.59-1,9.86-.4h0c.33,0,.6.13.93.2q.22.04,0,0c-.33-.07,0,0,.07,0,.4.07.87.2,1.33.33,6.46,1.86,11.32,7.26,11.32,12.85,0,1.13.33,2.73-1.66,2.26-1.73-.4-4.46,1.6-4.99-1.93-.8-4.66-4.26-7.53-9.59-7.99-5.79-.53-10.12,1.86-11.72,6.19-1,2.73.13,4.73,2.06,6.33,4.2,3.46,9.59,3.93,14.58,5.33,3.46,1,6.93,1.93,9.92,4.13,3.6,2.6,3.66,11.05,1.86,14.32l.07.07Z"/>
  <path class="uuid-5e42e370-b8fa-4978-a234-65c72b128a5c" d="m503.89,279.43c0-6.66.07-13.25,0-19.91,0-2.2.47-3.13,2.93-3.06,12.39.13,24.77.13,37.16,0,2.33,0,3.06.67,3.06,3-.07,13.39-.07,26.77,0,40.16,0,2.13-.6,2.86-2.8,2.8-12.52-.07-25.04-.13-37.49,0-2.53,0-2.86-1-2.86-3.13.13-6.66,0-13.25,0-19.91v.07Z"/>
  <path class="uuid-5e42e370-b8fa-4978-a234-65c72b128a5c" d="m869.04,214.04c16.52-.53,30.83,13.99,30.57,30.83-.27,16.58-13.39,30.43-30.63,30.63-17.51.27-31.5-14.58-31.37-31.3.13-16.25,14.38-30.97,31.43-30.23v.07Zm23.04,31.23c2.06-13.19-10.92-24.91-23.84-24.64-12.85.33-23.31,10.72-23.38,23.91-.13,13.79,10.86,23.57,23.31,24.04,12.05.47,25.64-11.52,23.91-23.31Z"/>
  <path class="uuid-5e42e370-b8fa-4978-a234-65c72b128a5c" d="m140.55,747.27c-2.06,8.66-5.99,16.65-7.86,25.37-.67,3.2-2.26,6.66-3.93,9.72-.53,1,.27,2.6-1,2.8-1.73.33-3.53.27-5.26,0-.87-.13-1.4-1.13-1.66-2-3-11.92-7.19-23.51-11.45-35.03,0,0-.2,0-.73-.13.13,2.6-.47,4.93-.33,7.59.4,9.19.27,18.38.13,27.57,0,2.53-2.33,1.86-4,2.13-2.06.33-2-.93-2-2.33v-44.15c0-2.13.67-2.53,2.66-2.6,7.13,0,6.86,0,8.79,6.86,2.4,8.26,5.33,16.38,7.92,24.57.73,2.33,2.06,4.46,2,7.06,0,.6.6,1.66,1.13,1.8,1.13.2,1.2-1.13,1.4-1.8,3.33-12.12,7.99-23.77,11.52-35.83.67-2.26,1.93-1.93,3.53-2.13,7.39-.73,7.39-.8,7.39,6.33,0,13.05-.13,26.11.07,39.16,0,3.26-1.6,2.73-3.6,2.86-2.46.2-3.2-.47-3.13-3.06.2-9.06.13-18.11,0-27.24,0-2.53-.47-5.06-.8-7.59h-.87l.07.07Z"/>
  <path class="uuid-5e42e370-b8fa-4978-a234-65c72b128a5c" d="m459.54,756.19h1.33c5.06,0,4.99,0,5.73-5.26.33-2.6,3-2.26,4.66-2.8,2-.6,1.27,1.6,1.66,2.46.8,1.73-1,4.33.93,5.39,1.47.8,3.73.33,5.53.2,2.06-.2,2.33.73,2.33,2.46,0,1.6-.13,2.6-2.26,2.6-6.46.13-6.26.27-6.53,6.79-.13,3.13.73,6.13.4,9.26-.2,1.8,1.8,2.86,3.6,2.4.87-.2,1.66-.4,2.53-.4,3.4-.13,5.06,1.66,3.93,4.66-.4,1.07-2.66,1.73-4.2,1.86-2.66.2-5.39.53-7.92-1.2-3.2-2.2-5.93.67-8.86,1.07-11.85,1.66-20.05-2.2-20.38-16.18-.07-3.66,1.07-7.19,3.93-9.86,1.33-1.27,1.73-2.2.27-3.8-6.73-7.33-3.06-16.98,5.06-19.25,5.06-1.47,10.52-1.27,15.45,1.33,1,.53,1.27,1.13.8,1.47-1.47.93,0,5.46-3.8,3.4-3.8-2.06-7.46-3.13-11.52-.8-2.66,1.53-3.8,4.93-2.8,8.92.8,3.2,3.2,5.19,6.19,5.26h4-.07Zm6.99,14.18h0c0-2.33-.13-4.66,0-6.99.13-1.8-.6-2.26-2.26-2.2-2.86.13-5.79.4-8.59,0-3.66-.53-5.06,1.47-6.19,4.26-.27.67-.33,1.4-.6,2.13-1.8,5.06,2.33,12.12,7.19,12.39,2.33.13,4.66.13,6.99,0,2.13-.13,4-.6,3.53-3.6-.27-1.93,0-4,0-5.99h-.07Z"/>
  <path class="uuid-5e42e370-b8fa-4978-a234-65c72b128a5c" d="m260.15,749.93h0c-2.8-9.06-8.46-12.39-18.11-13.45-5.59-.67-11.25,0-16.92-.2-2.4-.07-3.2.53-3.13,3.06.13,12.85,0,25.64,0,38.49,0,7.26,0,7.59,7.39,7.19,6.93-.4,13.92,1.4,20.84-2.13,4.73-2.33,6.86-5.99,8.92-9.99.6-1.2,1-2.46,1.33-3.73,1.8-9.06-.27-18.78-.4-19.25h.07Zm-6.33,19.78c-.73,2.6-2.6,4.53-4.86,6.53-5.73,4.99-12.19,2.53-18.31,3.33-1.8.27-2.26-.47-2.2-2.2.07-5.66,0-11.32,0-16.92v-16.25c0-1.73.47-2.33,2.2-2.26,4.79.13,9.59-.13,14.38.87,4.4.93,9.32,7.26,9.59,12.59.2,4.79.53,9.72-.73,14.38l-.07-.07Z"/>
  <path class="uuid-5e42e370-b8fa-4978-a234-65c72b128a5c" d="m774.87,760.06c-.4-8.12,1.86-15.18,8.26-20.51,2.93-2.46,6.26-4.2,10.26-4.06,3.4.13,6.79-.33,10.19.33,8.66,1.8,13.92,7.13,16.12,15.52,1.86,7.06,1.8,14.25-1,21.04-4.33,10.59-12.32,14.25-23.71,13.39-13.12-1-19.38-10.92-20.11-22.04-.07-1.2,0-2.46,0-3.66Zm39.16,1.4c.2-7.59-.67-14.18-7.33-18.11-4.93-2.93-10.12-3.86-15.58-1.27-6.26,2.93-8.99,7.99-9.72,14.78-.73,7.26,0,13.79,5.53,19.25,7.26,7.13,21.38,4.66,25.51-4.66,1.47-3.33,2.33-6.86,1.66-9.92l-.07-.07Z"/>
  <path class="uuid-5e42e370-b8fa-4978-a234-65c72b128a5c" d="m168.85,760.45c0-7.19.07-14.38,0-21.58,0-2,.53-2.66,2.6-2.6,9.99.13,19.91.13,29.9,0,2.73,0,2.53,1.27,2.73,3.2.27,2.53-1.07,2.53-2.93,2.53-7.66-.07-15.25.07-22.91-.07-2.4,0-3,.67-2.86,2.93.2,3.06.2,6.19,0,9.32-.2,2.46.73,2.86,3,2.86,6.86-.13,13.72.07,20.58-.13,2.46-.07,2.6.93,2.6,2.86s-.27,2.93-2.66,2.86c-6.99-.2-13.99,0-20.91-.13-2,0-2.73.4-2.6,2.53.2,4,.2,7.99,0,11.99-.07,2.06.53,2.6,2.6,2.6,7.99-.13,15.92,0,23.91-.13,2.4,0,2.66.87,2.66,2.86s-.27,2.93-2.66,2.86c-10.19-.13-20.38-.13-30.57,0-1.93,0-2.4-.6-2.4-2.4.07-7.39,0-14.85,0-22.24l-.07-.13Z"/>
  <path class="uuid-5e42e370-b8fa-4978-a234-65c72b128a5c" d="m395.28,777.17c-1.8,3.13-4.26,5.13-7.79,6.66-7.66,3.2-14.85,2.6-21.98-1-4.46-2.2-5.99-6.53-6.93-11.05-.13-.73-.2-2.66,1.66-2.26,1.73.33,4.2-1.47,4.99,1.47.27.87.4,1.73.67,2.6,0,0,.6,4.53,8.52,6.19h.33c2,.4,4.2.47,6.13,0,2.53-.6,5.39-.93,7.19-3.06,3.6-4.2,1.73-9.52-4.13-11.39-3.46-1.07-7.06-1.6-10.46-2.73-4.4-1.47-9.52-2.2-11.92-6.79-4.06-8.06-.33-18.05,9.66-20.31,3.2-.73,6.59-1,9.86-.4h0c.33,0,.6.13.93.2q.22.04,0,0c-.33-.07,0,0,.07,0,.4.07.87.2,1.33.33,6.46,1.86,11.32,7.26,11.32,12.85,0,1.13.33,2.73-1.66,2.26-1.73-.4-4.46,1.6-4.99-1.93-.8-4.66-4.26-7.53-9.59-7.99-5.79-.53-10.12,1.86-11.72,6.19-1,2.73.13,4.73,2.06,6.33,4.2,3.46,9.59,3.93,14.58,5.33,3.46,1,6.93,1.93,9.92,4.13,3.6,2.6,3.66,11.05,1.86,14.32l.07.07Z"/>
  <path class="uuid-5e42e370-b8fa-4978-a234-65c72b128a5c" d="m560.63,782.03c-8.26,5.46-16.58,4.93-25.04.8-4.46-2.2-5.99-6.53-6.93-11.05-.13-.73-.2-2.66,1.66-2.26,1.73.33,4.2-1.47,4.99,1.47.13.47.27,1,.33,1.53h0c.2.73.4,1.53.8,2.2v.07c0,.07.07.13.13.27h0c.93,1.4,2.73,3.06,6.06,4.2.13,0,.2.07.33.13,2.46.8,5.33,1.07,7.86.47,2.53-.6,5.39-.93,7.19-3.06,3.6-4.2,1.73-9.52-4.13-11.39-3.46-1.07-7.06-1.6-10.46-2.73-4.4-1.47-9.52-2.2-11.92-6.79-4.06-8.06-.33-18.05,9.66-20.31,2.93-.67,5.93-.93,8.99-.53h.67s.04,0,0,0c-.07,0,0,0,.07,0h.53c.13,0,.2,0,.33.07h.27c.67.13,1.4.33,2.13.53.27.07.53.2.8.27,5.59,2.2,9.66,7.19,9.66,12.25,0,1.13.33,2.73-1.66,2.26-1.73-.4-4.46,1.6-4.99-1.93-.73-4.66-4.26-7.53-9.59-7.99-5.79-.53-10.12,1.86-11.72,6.26-1,2.73.13,4.73,2.06,6.33,4.2,3.46,9.59,3.93,14.58,5.33,3.4.93,6.99,1.6,9.66,4,5.66,4.99,4.13,14.92-2.6,19.38l.27.27Z"/>
  <path class="uuid-5e42e370-b8fa-4978-a234-65c72b128a5c" d="m301.38,784.96c2.33-2.53,2.26-5.99,3.6-8.92,2.4-5.13,4.33-10.46,5.93-15.85,2.13-7.26,5.66-13.92,7.86-21.04,1.2-4,4.06-1.8,6.19-2.26,1.86-.47,2.26.67,2.86,2.46,2.93,8.39,6.59,16.52,9.52,24.91,2.06,5.93,5.06,11.45,6.26,17.65.2,1,1.66,1.27,1.13,2.8-1.73,0-3.6-.07-5.39,0-1.33.07-1.47-.53-1.8-1.6-1.13-3.53-2.73-6.93-3.73-10.52-.53-1.86-1.33-2.06-2.93-2.06-4,.07-7.99,0-11.92,0-5.13,0-7.13,1.27-7.59,6.26-.27,3.06-2.66,4.93-2.93,7.73-.07.87-1.07.6-1.66.6-1.8,0-3.53,0-5.33-.07h.2-.2l-.07-.07Zm29.77-20.18c-2.33-6.53-4.6-12.65-6.73-18.78-.2-.6,0-1.33-.93-1.33s-1.47.47-1.73,1.27c-1.86,5.53-3.6,11.05-5.59,16.52-.67,1.86-.2,2.33,1.66,2.33h13.39-.07Z"/>
  <path class="uuid-5e42e370-b8fa-4978-a234-65c72b128a5c" d="m640.48,753.46c0,5.39-.27,10.86,0,16.25.4,6.39,4,9.52,10.39,9.52,2.26,0,4.53.33,6.79-.53,5.26-2.06,7.46-5.73,7.66-11.45.33-9.46.53-18.98.33-28.44,0-2.73,1.73-2.13,3.06-1.93,1.2.2,3.46-1.47,3.4,1.73-.13,9.39,0,18.85-.07,28.24,0,3.66-.87,7.59-2.8,10.46-2.26,3.33-4.93,6.53-9.72,7.59-4.66,1.07-9.32.87-13.85.8-2.46,0-4.99-2.2-7.06-4.06-3.6-3.33-4.6-7.66-4.66-12.25-.13-7.39,0-14.85-.07-22.24,0-2.73-.27-5.46-.53-8.19-.2-1.73.4-2.46,2.2-2.2,1,.13,2,.2,3,0,1.66-.33,1.8.53,1.8,1.8v14.92h.27-.13Z"/>
  <path class="uuid-5e42e370-b8fa-4978-a234-65c72b128a5c" d="m595.86,785.16v-41.56c0-1.66-.93-1.66-2.13-1.66-4,0-7.99-.13-11.99,0-2.33.07-2.13-1.6-2.2-2.86,0-1.27,0-2.86,2.2-2.86,11.32.07,22.58.13,33.9,0,2.93,0,2,1.8,2.2,3.26.27,1.86-.33,2.53-2.26,2.46-3.66-.13-7.33.07-10.99-.07-1.93-.07-2.6.33-2.6,2.46.13,11.99.13,23.91.13,35.9,0,3.42-1.66,5.08-4.99,4.99-.53,0-1.07-.07-1.33-.13l.07.07Z"/>
  <path class="uuid-5e42e370-b8fa-4978-a234-65c72b128a5c" d="m280.73,760.72c0-7.33.13-14.58,0-21.91-.07-2.8,1.4-2.6,3.26-2.6s3.4-.27,3.33,2.53c-.13,14.58-.13,29.17,0,43.75,0,3.2-1.93,2.4-3.66,2.53-1.93.13-3-.07-2.93-2.53.2-7.26,0-14.58.07-21.91l-.07.13Z"/>
  <path class="uuid-5e42e370-b8fa-4978-a234-65c72b128a5c" d="m749.83,760.52c0-7.19.13-14.38-.07-21.51,0-2.53.87-3,3-2.73,1.73.2,3.66-.67,3.6,2.6-.13,14.45-.13,28.97,0,43.42,0,2.26-.87,2.2-2.66,2.46-3.53.6-4.13-.73-4-4,.27-6.73.07-13.45.07-20.18l.07-.07Z"/>
  <path class="uuid-5e42e370-b8fa-4978-a234-65c72b128a5c" d="m856.65,244.27v-13.25c0-1.73.33-2.66,2.33-2.6,4.99.13,9.92,0,14.92.13,3.26.07,6.13,1.13,7.39,4.46,1.4,3.66.27,7.99-2.6,10.39-.8.67-1.47,1.33-.33,2,2.8,1.8,2.66,4.53,2.66,7.33,0,1.86-.33,3.66.53,5.53.33.67,1.2,2.6-.73,2.33-1.73-.2-4.53,1.8-5.13-1.6-.4-2.06-.2-4.2-.2-6.26,0-3.86-1.86-5.73-5.73-5.79-4.88-.09-7.33,2.31-7.33,7.19,0,.87-.13,1.8,0,2.66.47,2.93-.93,3.53-3.53,3.33-1.73-.13-2.26-.53-2.26-2.26.07-4.53,0-9.06,0-13.59Zm5.73-6.46v3.33c0,.67.13,1.33,1.07,1.33,2.73,0,5.39.27,8.06,0,3.46-.27,4.99-2.2,4.79-5.39-.2-2.73-1.86-4.06-5.26-4.13h-4c-3.11,0-4.68,1.6-4.73,4.79l.07.07Z"/>
</svg>