<?xml version="1.0" encoding="UTF-8"?>
<svg id="uuid-e39c6d3c-2862-4ca1-8cec-df3f6295e5f8" data-name="Layer 1" xmlns="http://www.w3.org/2000/svg" viewBox="0 0 1000 1000">
  <defs>
    <style>
      .uuid-22641cfa-cbce-4e73-8574-e4aecee35ded {
        fill: #fff;
      }
    </style>
  </defs>
  <path class="uuid-22641cfa-cbce-4e73-8574-e4aecee35ded" d="m452.01,178.33c-.05,2.4-.1,4.81-.15,7.21-.02.84-.07,1.68-.1,2.36-.81.75-1.63.61-2.38.7-2.39.29-4.75.74-7.04,1.54-3.74,1.3-6.25,3.77-7.47,7.59-1.21,3.8-1.73,7.71-1.97,11.66-.2,3.35-.26,6.7-.27,10.05-.02,18.06-.01,36.11,0,54.17,0,1-.16,2.04.33,3.19.63-.17,1.2-.28,1.73-.48,14.48-5.34,28.43-11.77,41.47-20.08,4.57-2.92,8.97-6.07,13.03-9.69,3.03-2.7,5.79-5.63,8.08-9,1.45-2.15,2.63-4.43,3.44-6.9,1.04-3.18,1.21-6.39.6-9.67-.58-3.14-1.58-6.15-2.57-9.18-1.08-3.26-2.12-6.54-3.02-9.85-.7-2.58-.9-5.24-.44-7.92.42-2.5,1.29-4.81,2.7-6.91,3.59-5.34,8.63-7.34,14.93-6.47,9.11,1.25,15.02,9.65,16,16.45.63,4.33.16,8.58-.81,12.79-1.35,5.85-3.88,11.19-7.08,16.23-3.8,5.98-8.42,11.29-13.47,16.25-5.54,5.43-11.53,10.32-17.76,14.92-.69.51-1.37,1.02-1.98,1.48-.31,1.05.19,1.82.44,2.61,4.48,13.83,9.55,27.43,15.2,40.82,12.7,30.1,28.15,58.74,46.03,86.08.38.57.77,1.14,1.19,1.68.09.12.29.16.57.31,1.31-.42,2.5-1.26,3.66-2.14,2.71-2.07,4.78-4.68,6.42-7.65,2.44-4.41,3.83-9.18,4.8-14.1,1.37-6.95,1.7-13.98,1.7-21.04,0-15.22,0-30.44,0-45.66,0-32.85,0-65.69,0-98.54q0-3.57-2.45-6.13c-.24-.25-.5-.47-.72-.74-2.33-2.88-5.43-4.4-8.96-5.19-1.51-.34-3.02-.69-4.52-1.03-.75-.17-1.5-.36-2.2-.52-.43-1.88-.48-5.39-.16-8.25.64-.59,1.45-.37,2.19-.36,9.03.12,18.06.2,27.09.42,5.5.13,11,.37,16.49.73,5.57.36,11.15.73,16.64,1.88,2.87.6,5.65,1.5,8.31,2.73,5.79,2.68,10.37,6.7,13.49,12.31,2.92,5.26,5.81,10.54,8.7,15.82,15.49,28.27,30.98,56.54,46.47,84.81,1.28,2.34,2.55,4.68,3.84,7.01.33.59.73,1.13,1.11,1.7.95-.53,1.1-1.43,1.46-2.18,3.39-7.24,6.76-14.49,10.14-21.73,10.23-21.97,20.45-43.95,30.68-65.92,2.26-4.84,4.89-9.46,8.07-13.77,6.89-9.35,15.98-15.46,27.14-18.58,6.48-1.82,13.07-2.99,19.75-3.63,15.69-1.49,31.42-1.62,47.16-1.58.34,0,.68.05,1.17.09.1.46.3.93.31,1.41,0,2.65.09,5.31-.05,8.02-1.18.41-2.28.51-3.38.64-2.23.25-4.4.77-6.5,1.57-3.32,1.26-5.63,3.5-6.82,6.91-.92,2.62-1.47,5.31-1.76,8.04-.31,2.9-.45,5.83-.6,8.74-.08,1.54-.05,3.09-.05,4.64,0,48.84,0,97.68,0,146.52,0,3.61-.06,7.23.56,10.8.29,1.69.66,3.38,1.15,5.01.7,2.31,2.17,4.06,4.26,5.3,2.08,1.24,4.32,2.12,6.64,2.78,2.06.59,4.15,1.11,6.2,1.66.48,1.92.51,7.19.03,9.56-.62.06-1.28.17-1.95.17-9.72-.08-19.44-.06-29.15-.29-6.27-.15-12.54-.5-18.77-1.43-4.43-.66-8.8-1.52-13.04-3.01-6.17-2.17-10.29-6.37-12.61-12.41-1.69-4.38-2.37-8.96-2.53-13.63-.06-1.63-.03-3.27-.03-4.9,0-41.19,0-82.37,0-123.56v-3.26c-.98.38-1.1,1.11-1.36,1.68-2.24,5.02-4.43,10.07-6.7,15.08-12.85,28.33-25.68,56.68-38.6,84.98-8.82,19.31-17.8,38.55-26.7,57.82-.4.86-.81,1.7-1.2,2.52-1.79.51-8.55.63-12.21.22-.63-.71-.94-1.71-1.37-2.63-9.81-21.13-19.6-42.26-29.39-63.39-14.13-30.49-28.26-60.98-42.4-91.47-.36-.78-.71-1.57-1.11-2.33-.1-.18-.35-.29-.62-.5-.11.33-.25.54-.25.76-.03.86-.03,1.72-.03,2.58,0,33.53,0,67.07,0,100.6,0,6.02-.09,12.04-.7,18.03-.55,5.48-1.34,10.92-3.01,16.19-.52,1.63-1.14,3.24-1.8,4.82-1.91,4.52-5.11,7.88-9.35,10.32-3.61,2.07-7.49,3.44-11.5,4.47-4.01,1.02-8.08,1.63-12.19,2.08-.59.06-1.19.13-1.7.18-.51.64-.1,1.05.19,1.45,2.84,3.99,5.64,8.02,8.55,11.96,14.18,19.2,29.83,37.13,46.9,53.8,7.02,6.86,14.36,13.35,22.38,19.03,4.85,3.43,9.9,6.54,15.39,8.86,3.5,1.48,7.1,2.54,10.88,3.06,2.96.41,5.83.21,8.67-.66,6.92-2.14,13.15-5.48,18.29-10.68,2.3-2.33,4.81-4.43,7.51-6.28,2.42-1.66,4.97-3.14,7.89-3.7,4.37-.84,8.57-.15,12.52,1.86,2.62,1.33,4.53,3.43,5.69,6.11,2.07,4.79,2.62,9.79,1.4,14.89-.96,4.02-3.41,7.09-6.68,9.51-3.49,2.59-7.36,4.42-11.54,5.6-2.91.82-5.88,1.17-8.91,1.22-11.15.18-21.86-2.08-32.38-5.55-10.73-3.55-20.89-8.38-30.73-13.9-13.23-7.42-25.66-16.03-37.69-25.24-22.73-17.39-43.66-36.77-63.35-57.5-20.04-21.1-38.75-43.32-56.15-66.63-12.15-16.27-23.47-33.1-33.19-50.96-1.68-3.1-3.25-6.25-4.88-9.38-.31-.6-.66-1.18-1.04-1.86-1.94.34-3.63,1.09-5.38,1.99-.04.89-.11,1.74-.11,2.58,0,25.19-.02,50.39,0,75.58,0,3.78,0,7.57.68,11.31.23,1.26.53,2.52.88,3.76.78,2.81,2.51,4.88,5.11,6.16,1.69.83,3.45,1.56,5.23,2.16,1.87.63,3.81,1.04,5.72,1.55.41.11.81.23,1.17.33.53,1.76.61,6.8.14,9.64-.61.06-1.26.18-1.92.18-4.9,0-9.81.05-14.71-.08-8.6-.23-17.19-.47-25.78-.93-5.58-.29-11.12-1.11-16.53-2.57-2.07-.56-4.11-1.26-6.08-2.1-3.76-1.59-6.63-4.25-8.73-7.75-1.93-3.22-3-6.73-3.66-10.4-.52-2.89-.71-5.8-.75-8.73-.02-1.38-.02-2.75-.02-4.13,0-40.84,0-81.68,0-122.53,0-1.01.12-2.03-.14-2.99-.93-.17-.86.58-1.03.96-2.54,5.64-5,11.32-7.55,16.96-9.49,20.99-18.92,42-28.51,62.94-12.03,26.26-24.19,52.45-36.3,78.67-.39.85-.82,1.69-1.19,2.46-2.36.29-9.85.29-12.18-.02-12.35-26.63-24.75-53.37-37.14-80.11-12.38-26.72-24.76-53.44-37.12-80.07-.78.12-.72.53-.73.84-.03.86-.02,1.72-.02,2.58,0,33.53,0,67.07,0,100.6,0,6.88-.25,13.75-1.05,20.59-.58,4.96-1.47,9.86-3.08,14.6-.33.98-.71,1.94-1.09,2.89-2,4.99-5.42,8.69-10.12,11.28-4.42,2.43-9.17,3.88-14.07,4.91-6.16,1.29-12.42,1.72-18.69,2.07-.49.03-.99-.07-1.61-.12-.3-3.1-.11-6.08-.14-9.14.57-.3,1.08-.6,1.62-.82,4.36-1.84,7.6-4.94,10.08-8.9,2.63-4.21,4.16-8.85,5.22-13.66,1.32-5.98,1.86-12.06,2.05-18.17.05-1.72.05-3.44.05-5.16,0-47.89,0-95.79,0-143.68q0-3.57-2.46-6.12c-.42-.43-.88-.83-1.27-1.29-1.96-2.33-4.51-3.66-7.42-4.37-2.17-.53-4.35-1.02-6.52-1.54-.4-.1-.79-.25-1.29-.42-.08-2.98-.15-5.88-.22-8.79,6.19,0,12.38,0,18.58,0,.5.11.99.29,1.5.32,2.06.11,4.12.18,6.18.24,9.62.3,19.24.65,28.82,1.6,4.19.42,8.34,1.08,12.35,2.48,7.61,2.67,13.56,7.3,17.37,14.5.84,1.59,1.73,3.17,2.6,4.75,15.48,28.25,30.96,56.5,46.44,84.76,3.14,5.73,6.27,11.45,9.43,17.17.36.65.51,1.48,1.53,1.84.38-.74.79-1.46,1.14-2.22,13.64-29.28,27.28-58.55,40.91-87.83,1.74-3.74,3.73-7.35,6.01-10.8,7-10.6,16.49-17.78,28.79-21.25,9.4-2.65,19.01-3.85,28.72-4.43,5.92-.35,11.85-.45,17.78-.71,1.1-.05,2.2-.28,3.3-.43,6.36,0,12.73,0,19.09,0Z"/>
  <path class="uuid-22641cfa-cbce-4e73-8574-e4aecee35ded" d="m86.66,640.07c.93-.83.92-1.98,1.03-3.09.99-9.85,4.12-18.97,9.56-27.22,9.8-14.87,23.46-24.11,40.99-27.53,2.96-.58,5.94-.96,8.96-.98,1.72-.01,3.44-.04,5.16-.04,232.12,0,464.25,0,696.37,0,3.61,0,7.21,0,10.81.48,8.3,1.1,16.09,3.66,23.25,7.95,15.79,9.48,25.72,23.23,29.62,41.27.2.92.23,1.87.39,2.8.13.75.36,1.48.54,2.22v131.04c-.55.43-.46,1.07-.54,1.65-.24,1.61-.4,3.24-.77,4.82-6.19,26.06-27.78,43.95-51.48,47.25-1.33.19-2.75.23-3.97.96H144.45c-.39-.16-.77-.39-1.17-.46-1.52-.28-3.05-.46-4.57-.75-13.49-2.54-25.05-8.68-34.45-18.7-9.59-10.22-15.13-22.35-16.57-36.31-.12-1.12-.21-2.23-1.03-3.11v-122.27Zm413.58,175.63c115.66,0,231.33,0,346.99,0,1.55,0,3.1,0,4.64,0,3.62-.04,7.19-.39,10.75-1.08,17.3-3.36,33.43-15.52,41.03-33.58,3.08-7.32,4.44-14.96,4.45-22.87,0-15.65,0-31.29,0-46.94,0-22.1,0-44.19,0-66.29,0-4.05-.21-8.09-1.03-12.06-3.7-17.83-13.6-31.1-29.64-39.73-5.88-3.16-12.2-5.01-18.84-5.88-3.26-.43-6.52-.42-9.78-.43-232.19,0-464.37,0-696.56,0-1.12,0-2.24,0-3.35,0-7.94.03-15.5,1.78-22.72,5.04-18.04,8.14-33.21,26.81-33.24,51.98-.04,38.26-.02,76.52,0,114.77,0,4.22.44,8.4,1.33,12.54,5.47,25.32,27.72,43.57,52.78,44.44,1.98.07,3.95.07,5.93.07,115.75,0,231.5,0,347.24,0Z"/>
  <path class="uuid-22641cfa-cbce-4e73-8574-e4aecee35ded" d="m475.66,690.48c.25-.96.43-1.89.73-2.77.89-2.59,1.82-5.17,2.74-7.76.75-2.1,1.61-4.17,2.21-6.31.82-2.9,1.94-5.67,3.17-8.41.21-.46.3-.98.43-1.48.11-.42.14-.85.29-1.25.82-2.25,1.67-4.49,2.5-6.74.21-.56.36-1.14.52-1.72.14-.49.23-1.01.41-1.49.87-2.33,1.72-4.67,2.65-6.97.6-1.5.61-3.03.36-4.57-.24-1.48-1.29-2.43-2.79-2.62-.68-.09-1.37-.07-2.06-.07-8,0-16,.08-23.99-.04-3.46-.05-5.71,1.52-7.17,4.44-.65,1.3-1.07,2.7-1.57,4.07-.97,2.66-1.92,5.32-2.87,7.99-.75,2.1-1.47,4.22-2.23,6.32-.93,2.58-1.93,5.14-2.83,7.73-.85,2.43-1.58,4.9-2.41,7.33-.61,1.79-1.18,3.6-1.98,5.3-.63,1.34-.97,2.74-1.4,4.14-.45,1.47-1.02,2.91-1.57,4.36-.27.7-.83,1.08-1.58,1.14-.43.04-.86.06-1.29.06-4.13,0-8.26.01-12.38.01-.34,0-.69-.01-1.03-.06-.82-.11-1.15-.61-.96-1.48.09-.42.19-.84.36-1.24.88-2.05,1.59-4.16,2.26-6.29.93-2.94,1.98-5.85,2.99-8.76.79-2.27,1.62-4.52,2.42-6.78.92-2.58,2.15-5.04,2.75-7.75.3-1.33.93-2.58,1.41-3.87,1.04-2.82,2.13-5.61,3.08-8.46.4-1.21.65-2.51.71-3.78.04-.9-.23-1.88-.57-2.73-.41-1.02-1.32-1.56-2.44-1.63-.51-.03-1.03-.04-1.55-.04-8.17,0-16.34.04-24.51-.03-2.33-.02-4.14.89-5.77,2.4-.78.72-1.25,1.6-1.6,2.6-1.12,3.25-2.3,6.47-3.46,9.71-1.51,4.2-3.06,8.38-4.52,12.6-1.49,4.29-2.86,8.63-4.35,12.92-.64,1.86-1.47,3.66-2.17,5.51-.67,1.77-1.33,3.54-1.88,5.34-.39,1.26-1.12,1.82-2.44,1.81-4.47-.03-8.94,0-13.41,0-.34,0-.69-.05-1.02-.12-.53-.11-.92-.61-.83-1.13.1-.59.26-1.18.45-1.74.49-1.46,1.01-2.91,1.53-4.36.86-2.42,1.73-4.85,2.59-7.27.78-2.18,1.55-4.37,2.34-6.54.35-.96.76-1.9,1.12-2.86.21-.56.36-1.14.55-1.71.32-.97.65-1.95.99-2.91.14-.4.42-.77.49-1.18.62-3.33,2.12-6.35,3.25-9.49.84-2.34,1.51-4.74,2.28-7.1.59-1.79,1.22-3.57,1.85-5.35.89-2.51,1.81-5,2.7-7.51.8-2.26,1.58-4.54,2.37-6.81.17-.49.31-.99.54-1.45.46-.91,1.17-1.47,2.26-1.41.43.02.86,0,1.29,0,36.55,0,73.09,0,109.64-.01,3.44,0,6.09,1.4,8.11,4.14,1.32,1.78,1.51,3.8,1.32,5.87-.38,4.06-1.9,7.82-3.25,11.63-.8,2.26-1.79,4.45-2.46,6.77-.72,2.46-1.77,4.82-2.65,7.24-.7,1.93-1.43,3.86-2.01,5.83-.87,2.97-2.13,5.8-3.21,8.69-.9,2.4-1.57,4.89-2.4,7.32-.74,2.19-1.55,4.36-2.34,6.54-.38,1.05-.79,2.09-1.14,3.15-.37,1.13-1.11,1.69-2.28,1.74-.34.02-.69.02-1.03.02-3.87,0-7.74,0-11.61-.01-.84,0-1.74.17-2.68-.69Z"/>
  <path class="uuid-22641cfa-cbce-4e73-8574-e4aecee35ded" d="m788.85,785.38c-9.98,0-19.95,0-29.93,0-.6,0-1.21.02-1.8-.04-.77-.07-1.3-.67-1.11-1.43.4-1.58.9-3.13,1.39-4.69,1.26-4.01,3-7.85,4.27-11.87.64-2.04,1.51-4.01,2.16-6.06,1.06-3.35,2.27-6.65,3.44-9.96.34-.97.8-1.9,1.15-2.87,1.58-4.36,3.16-8.72,4.71-13.09,1.29-3.64,2.52-7.3,3.81-10.94.69-1.94,1.55-3.8,2.04-5.82.42-1.75,1.15-2.14,3.01-2.17,1.2-.02,2.41,0,3.61,0,16.51,0,33.02.02,49.53-.02,2.21,0,4.25.4,6.19,1.45,1.48.8,2.64,1.94,3.57,3.29,1.3,1.87,1.6,3.96,1.02,6.16-.98,3.74-2.22,7.39-3.69,10.96-.16.4-.35.8-.41,1.22-.63,3.91-3,6.67-5.92,9.06-2.16,1.77-2.18,1.76-1.03,4.42.7,1.61,1,3.13.4,4.96-1.04,3.18-2.04,6.36-3.21,9.5-.9,2.41-1.61,4.89-2.45,7.32-.56,1.62-1.08,3.28-1.83,4.81-.88,1.79-2.14,3.33-3.96,4.29-.38.2-.79.37-1.12.63-.93.73-1.98.91-3.14.89-3.78-.04-7.57-.02-11.35-.02-6.45,0-12.9,0-19.35,0h0Zm6.57-15.96h0c4.38,0,8.77.04,13.15-.02,2.86-.04,5.14-1.15,6.39-3.89.18-.39.53-.72.63-1.12.26-1.08.58-2.17.58-3.26,0-1.84-1.39-3.19-3.24-3.37-.6-.06-1.2-.04-1.8-.04-8.08,0-16.15,0-24.23,0-.69,0-1.38,0-2.06.06-1.23.11-2.07.79-2.52,1.92-.79,1.99-1.56,3.99-2.31,6-.21.56-.37,1.15-.43,1.74-.09.95.48,1.69,1.42,1.84.76.12,1.54.13,2.31.13,4.04.01,8.08,0,12.12,0Zm10.58-27.31h0c2.15,0,4.3,0,6.45,0,2.32,0,4.64-.04,6.96.01,1.78.04,3.17-.67,4.27-2,1.09-1.31,1.6-2.84,1.57-4.53-.04-1.85-1.38-3.25-3.21-3.42-.34-.03-.69,0-1.03,0-8.34.01-16.67.02-25.01.03-.77,0-1.55,0-2.32.05-.83.05-1.44.47-1.87,1.19-1.2,2.03-1.66,4.32-2.25,6.55-.29,1.11.51,1.93,1.74,2.07.6.07,1.2.05,1.8.05,4.3,0,8.59,0,12.89,0Z"/>
  <path class="uuid-22641cfa-cbce-4e73-8574-e4aecee35ded" d="m152.26,691.18c-9.88,0-19.76,0-29.64,0-3.62,0-3.82-.18-2.64-3.63,1.31-3.81,2.79-7.57,4.18-11.35.8-2.17,1.56-4.35,2.33-6.53,1.09-3.07,1.95-6.21,3.16-9.24,1.42-3.58,2.58-7.27,3.86-10.91.63-1.78,1.25-3.56,1.89-5.33.91-2.5,1.85-4.98,2.75-7.48.72-2.02,1.37-4.06,2.09-6.08.69-1.93,1.65-3.77,2.03-5.82.09-.49.38-.96.63-1.4.46-.8,1.14-1.23,2.12-1.18.94.05,1.89.02,2.83.02,16.76,0,33.51.03,50.27-.02,3.69-.01,6.64,1.42,9.14,3.97,2.11,2.15,2.67,4.72,1.88,7.61-1,3.64-2.16,7.22-3.61,10.71-.59,1.42-1.12,2.87-1.64,4.3-.92,2.49-2.62,4.18-4.53,5.79-2.28,1.92-2.31,1.91-1.15,4.61.7,1.63,1.06,3.22.32,4.96-.56,1.33-.92,2.76-1.37,4.14-.8,2.44-1.57,4.89-2.41,7.31-1.15,3.32-2.22,6.68-3.57,9.93-1.06,2.56-3.09,4.34-5.72,5.27-.94.33-2.02.35-3.04.35-10.05.02-20.11.01-30.16.01h0Zm9.99-27.32h0c-3.95,0-7.91-.01-11.86,0-.69,0-1.38,0-2.06.04-1.34.07-2.39.72-2.69,2.01-.46,1.95-1.46,3.66-2.16,5.51-.21.56-.45,1.13-.56,1.71-.26,1.33.37,2.2,1.68,2.37.59.08,1.2.06,1.8.06,8.25,0,16.51,0,24.76,0,.6,0,1.21.03,1.8-.05,1.67-.22,3.15-1.03,4.28-2.18.87-.88,1.47-2.13,1.9-3.33.34-.93.38-2.03.32-3.04-.1-1.57-1.44-2.83-3.03-3.03-.68-.08-1.37-.06-2.06-.06-4.04,0-8.08,0-12.12,0Zm6.71-15.61h0c4.46,0,8.92,0,13.38,0,1.12,0,2.23,0,3.21-.68,1.98-1.37,2.97-3.3,3.09-5.65.09-1.84-1.23-3.31-3.04-3.53-.51-.06-1.03-.05-1.54-.05-8.41,0-16.81,0-25.22,0-.68,0-1.4-.05-2.04.12-.54.14-1.16.47-1.47.91-1.46,2.08-1.85,4.58-2.46,6.97-.23.9.49,1.67,1.43,1.81.67.1,1.37.09,2.05.09,4.2,0,8.41,0,12.61,0Z"/>
  <path class="uuid-22641cfa-cbce-4e73-8574-e4aecee35ded" d="m254.88,622.24c9.28,0,18.57.02,27.85-.02,1.51,0,2.9.07,3.99,1.3.27.3.71.49,1.1.64,1.4.55,2.16,1.64,2.6,3.01.21.65.42,1.31.64,1.96.43,1.26.44,2.53.1,3.81-.39,1.49-.74,3.01-1.25,4.46-1.17,3.32-2.44,6.6-3.66,9.9-.83,2.25-1.64,4.51-2.44,6.78-1.11,3.16-2.21,6.31-3.3,9.48-.86,2.51-1.69,5.04-2.56,7.55-.42,1.22-.93,2.4-1.36,3.62-1.72,4.85-3.45,9.69-5.11,14.56-.42,1.23-1.14,1.87-2.43,1.87-.52,0-1.03,0-1.55,0-18.31,0-36.62,0-54.93,0-1.56,0-3.09,0-4.51-.8-1.48-.82-2.56-1.91-3.21-3.54-.77-1.96-1.26-3.92-1.05-6.02.06-.6.11-1.2.27-1.78.39-1.41.8-2.81,1.26-4.19.65-1.95,1.37-3.88,2.04-5.83,1.1-3.15,2.19-6.31,3.3-9.46.54-1.54,1.03-3.11,1.72-4.58,1.28-2.72,3.19-4.85,6.04-6.07,1.39-.59,2.81-.71,4.28-.71,13.84.02,27.68.01,41.52.01.86,0,1.72-.02,2.58-.06.84-.04,1.46-.47,1.86-1.2.75-1.37,1.26-2.8,1.44-4.37.27-2.27-1.48-4.41-3.72-4.26-.68.05-1.37,0-2.06,0-14.27,0-28.54,0-42.81,0-.6,0-1.21.02-1.8-.03-.86-.07-1.26-.59-1.1-1.38.05-.25.13-.5.22-.74.89-2.51,1.8-5.01,2.68-7.51.26-.73.45-1.48.68-2.21.26-.82.5-1.64.79-2.45.45-1.28,1.3-1.82,2.74-1.8,7.22.07,14.44.04,21.66.04,2.49,0,4.99,0,7.48,0h0Zm-9.29,41.6c-1.2,0-2.41,0-3.61,0-3.61,0-7.22.01-10.84,0-1.05,0-2.04.14-2.93.79-2.7,1.94-3.5,4.76-3.65,7.87-.02.49.19,1.01.37,1.49.33.87.97,1.42,1.92,1.5.68.06,1.37.07,2.06.07,8.6,0,17.2,0,25.8,0,.6,0,1.2,0,1.8-.04,1.55-.09,2.52-.92,3.02-2.38.53-1.54,1.14-3.05,1.71-4.58.27-.72.59-1.44.78-2.19.37-1.47-.26-2.36-1.74-2.51-.6-.06-1.2-.03-1.8-.04-4.3,0-8.6,0-12.9,0Z"/>
  <path class="uuid-22641cfa-cbce-4e73-8574-e4aecee35ded" d="m741.9,691.17c-8.51,0-17.02-.02-25.53.02-1.76,0-3.41-.26-4.96-1.1-2.54-1.38-4.05-3.41-4.03-6.39.01-2.14.18-4.22.82-6.34,1.38-4.61,3.09-9.08,4.91-13.52.23-.55.38-1.14.53-1.71.11-.41.14-.85.29-1.25.81-2.26,1.66-4.5,2.45-6.76.87-2.51,1.7-5.03,2.54-7.55.14-.41.24-.82.38-1.23,1.08-3.16,2.16-6.32,3.26-9.48.7-2.02,1.4-4.05,2.16-6.06,1.08-2.84,2.93-4.95,5.69-6.36,1.59-.81,3.1-1.23,4.88-1.22,16.93.05,33.86.08,50.79-.03,2.73-.02,4.77,1.19,6.81,2.58,1.32.9,2.01,2.37,2.21,3.95.37,2.92.24,5.81-.69,8.65-1.02,3.1-2.13,6.16-3.36,9.19-.97,2.37-1.53,4.9-2.4,7.31-1.39,3.87-2.9,7.69-4.35,11.54-.21.56-.34,1.15-.52,1.72-.26.82-.52,1.63-.79,2.44-.3.89-.63,1.77-.93,2.66-.11.32-.16.67-.27.99-.89,2.41-1.81,4.81-2.69,7.22-.27.72-.45,1.48-.67,2.22-.51,1.74-1.25,3.35-2.39,4.81-2.01,2.57-4.62,3.72-7.83,3.72-8.77,0-17.53,0-26.3,0h0Zm3.42-15.62h0c4.21,0,8.43,0,12.64.01,2.65.01,4.69-1.11,5.91-3.43.96-1.81,1.77-3.72,2.49-5.65.96-2.57,1.69-5.22,2.64-7.79,1.3-3.54,2.74-7.04,4.06-10.58.48-1.28.84-2.62,1.14-3.96.16-.74.19-1.55.08-2.3-.37-2.79-1.21-3.51-4.04-3.52-3.44-.02-6.88,0-10.32,0-4.99,0-9.98,0-14.96-.01-1.23,0-2.33.24-3.44.85-2.2,1.21-3.32,3.15-4.11,5.39-.43,1.21-.84,2.43-1.29,3.64-1.14,3.05-2.32,6.09-3.42,9.15-1.19,3.31-2.36,6.63-3.45,9.97-.42,1.3-.82,2.66-.88,4-.13,2.65,1.41,4.14,4.05,4.23.43.01.86,0,1.29,0,3.87,0,7.74,0,11.61,0Z"/>
  <path class="uuid-22641cfa-cbce-4e73-8574-e4aecee35ded" d="m317.84,691.18c-9.89,0-19.77-.03-29.66.02-3.79.02-3.68-.57-2.8-3.68.56-1.98,1.27-3.92,1.99-5.85,1.37-3.7,2.82-7.37,4.18-11.07.79-2.17,1.46-4.38,2.18-6.58.11-.33.13-.68.27-.99,1.42-3.13,2.12-6.55,3.53-9.66,1.36-3,1.83-6.25,3.19-9.22,1.1-2.41,1.93-4.95,2.81-7.45.85-2.42,1.61-4.88,2.44-7.32.64-1.87,1.27-3.74,1.99-5.57.41-1.04,1.21-1.65,2.41-1.57.34.02.69,0,1.03,0,17.45,0,34.9.02,52.35-.02,1.61,0,3.05.29,4.42,1.1.59.35,1.22.61,1.85.9,2.15.97,3.6,2.52,4.25,4.85.51,1.86.68,3.61.09,5.54-1.05,3.45-2.11,6.88-3.44,10.23-.79,1.99-1.39,4.06-2.12,6.07-.93,2.57-1.95,5.12-2.86,7.7-.85,2.42-1.56,4.9-2.4,7.33-.86,2.51-1.81,4.99-2.71,7.49-.75,2.1-1.47,4.21-2.22,6.31-.63,1.78-1.2,3.58-1.92,5.31-.91,2.19-2.35,3.97-4.48,5.15-1.24.69-2.51,1.02-3.93,1.01-4.47-.04-8.94-.02-13.41-.03-5.67,0-11.35,0-17.02,0h0Zm6.21-15.61h0c4.3-.01,8.6,0,12.9-.02,3.17,0,5.43-1.54,6.64-4.4,1.21-2.84,2.18-5.77,3.26-8.66.39-1.05.73-2.11,1.13-3.15.68-1.76,1.44-3.49,2.09-5.26,1.03-2.81,2.02-5.65,2.99-8.48.39-1.13.82-2.28.97-3.45.23-1.82-1.03-3.38-2.85-3.69-.75-.13-1.54-.1-2.31-.1-5.33,0-10.66,0-15.99,0-3.18,0-6.36.04-9.54,0-1.46-.02-2.5.52-3.06,1.87-.8,1.9-1.64,3.78-2.35,5.71-.86,2.33-1.56,4.72-2.39,7.05-1.04,2.91-2.13,5.8-3.22,8.69-.85,2.24-1.77,4.46-2.58,6.72-.55,1.53-1.03,3.1-1.42,4.68-.35,1.45.34,2.32,1.83,2.47.51.05,1.03.03,1.55.03,4.13,0,8.25,0,12.38,0Z"/>
  <path class="uuid-22641cfa-cbce-4e73-8574-e4aecee35ded" d="m589.31,638.34c-4.13,0-8.25,0-12.38,0-1.11,0-2.3-.17-3.22.61-1.3,1.1-2.72,2.12-3.34,3.84-1.22,3.39-2.44,6.78-3.68,10.16-.92,2.49-1.91,4.95-2.79,7.45-.8,2.26-1.47,4.57-2.25,6.84-.89,2.59-1.94,5.14-2.72,7.76-.69,2.3-2.1,4.33-2.41,6.76-.07.58-.44,1.11-.65,1.67-.27.72-.51,1.45-.77,2.17-.55,1.53-1.09,3.07-1.66,4.59-.23.62-.76.91-1.41.96-.43.03-.86.03-1.29.03-4.04,0-8.08,0-12.12,0-.43,0-.86.01-1.29-.02-1.12-.1-1.47-.6-1.22-1.75.07-.34.13-.68.28-.99.79-1.72,1.31-3.53,1.89-5.33.82-2.52,1.87-4.97,2.74-7.48.87-2.51,1.59-5.07,2.46-7.58.65-1.86,1.44-3.67,2.15-5.52.3-.8.54-1.62.81-2.43.27-.81.55-1.62.83-2.43.28-.81.57-1.61.84-2.42.25-.73.48-1.46.73-2.2.33-.97.66-1.94.98-2.92.14-.41.22-.83.39-1.23,1.34-3.16,2.29-6.46,3.41-9.71,1.28-3.73,2.75-7.39,4.13-11.08.24-.64.42-1.3.61-1.96.14-.5.21-1.01.37-1.5.64-1.93,1.3-2.41,3.4-2.41,5.85,0,11.69,0,17.54,0,12.81,0,25.62.02,38.42-.03,1.7,0,3.23.28,4.62,1.26.07.05.14.1.22.14,1.42.77,2.99,1.34,3.67,3.04.88,2.2,1.38,4.46.78,6.8-.57,2.23-.89,4.51-1.93,6.65-.99,2.06-1.46,4.38-2.19,6.57-.73,2.2-1.47,4.39-2.25,6.57-.97,2.75-1.97,5.48-2.98,8.22-.92,2.48-1.91,4.94-2.79,7.44-.85,2.42-1.58,4.89-2.4,7.32-.68,2.03-1.4,4.05-2.13,6.06-.91,2.5-1.86,4.98-2.77,7.47-.3.81-.84,1.28-1.7,1.36-.51.05-1.03.06-1.54.06-3.87,0-7.74,0-11.6,0-.43,0-.86,0-1.29-.04-1.02-.1-1.44-.59-1.2-1.52.31-1.25.65-2.5,1.09-3.71,1.27-3.46,2.65-6.89,3.9-10.36.9-2.5,1.63-5.06,2.49-7.57.87-2.51,1.82-4.99,2.72-7.5.72-2.02,1.38-4.06,2.1-6.08.87-2.42,1.82-4.81,2.67-7.23.4-1.13.72-2.3.96-3.47.13-.66.12-1.38.02-2.05-.35-2.33-1.43-3.3-3.8-3.32-4.47-.04-8.94-.01-13.41-.01Z"/>
  <path class="uuid-22641cfa-cbce-4e73-8574-e4aecee35ded" d="m841.35,622.24c9.11,0,18.22.03,27.34-.03,1.96-.01,3.76.17,5.31,1.48.06.05.14.1.22.14,1.33.64,2.64,1.29,3.22,2.79.79,2.02,1.48,4.05,1,6.27-.31,1.43-.62,2.85-.94,4.27-.06.25-.12.5-.21.74-.87,2.33-1.76,4.64-2.61,6.98-.59,1.61-1.12,3.24-1.67,4.87-.85,2.52-1.66,5.05-2.52,7.57-.47,1.38-1.02,2.73-1.53,4.1-.93,2.48-1.91,4.94-2.79,7.44-.85,2.42-1.59,4.88-2.41,7.31-.71,2.11-1.44,4.22-2.21,6.31-.88,2.41-2.02,4.73-2.67,7.23-.22.84-.82,1.29-1.67,1.4-.42.05-.86.08-1.28.08-4.13,0-8.25-.01-12.38.02-2.13.02-2.51-.59-1.85-2.44.61-1.7,1.18-3.41,1.8-5.1.94-2.58,1.95-5.13,2.86-7.72.85-2.42,1.6-4.88,2.43-7.31.89-2.59,1.84-5.17,2.75-7.75.72-2.02,1.4-4.05,2.14-6.07.96-2.66,1.99-5.3,2.92-7.97.39-1.13.73-2.31.85-3.49.1-.91-.06-1.89-.31-2.78-.39-1.37-1.38-2.14-2.84-2.2-.52-.02-1.03-.03-1.55-.03-8.25,0-16.5,0-24.76,0-1.28,0-2.61-.17-3.68.81-1.32,1.21-2.62,2.36-3.24,4.21-1.35,3.98-2.96,7.86-4.42,11.8-.33.88-.42,1.84-.74,2.73-.8,2.26-1.7,4.48-2.5,6.75-.88,2.51-1.67,5.05-2.54,7.56-.7,2.02-1.4,4.06-2.25,6.02-.45,1.03-.91,2.02-1.11,3.13-.12.66-.45,1.29-.67,1.94-.31.89-.59,1.78-.92,2.66-.54,1.45-1.04,2.91-1.68,4.31-.18.39-.74.66-1.19.83-.38.15-.85.09-1.28.09-4.13,0-8.25-.03-12.38.02-2.51.03-2.86-.73-2.03-2.97.9-2.41,1.87-4.79,2.72-7.21.85-2.43,1.54-4.91,2.38-7.34,1.24-3.56,2.56-7.1,3.84-10.65.37-1.04.71-2.1,1.06-3.15.08-.24.11-.51.2-.75.83-2.25,1.7-4.48,2.5-6.74.85-2.42,1.63-4.87,2.44-7.31.14-.41.24-.82.38-1.23,1.14-3.33,2.27-6.65,3.43-9.97.45-1.3.96-2.58,1.49-3.84.73-1.74,1.46-3.47,1.81-5.35.09-.49.37-.96.65-1.39.45-.68,1.07-1.1,1.94-1.06.51.02,1.03,0,1.55,0,9.2,0,18.4,0,27.59,0Z"/>
  <path class="uuid-22641cfa-cbce-4e73-8574-e4aecee35ded" d="m708.4,785.38c-8.43,0-16.86-.03-25.28.02-1.78.01-3.39-.23-4.87-1.28-.98-.69-2.08-1.2-3.09-1.84-.97-.62-1.28-1.57-1.09-2.69.01-.08.02-.17.04-.25.9-3.31,1.81-6.62,2.69-9.93.24-.91.48-1.83.58-2.76.11-1.04.32-2.02.82-2.95.28-.52.63-1.11.64-1.67.06-3.15,1.73-5.9,2.16-8.97.47-3.33,2.08-6.35,3.09-9.54.75-2.37,1.65-4.69,2.49-7.04,1.19-3.31,2.23-6.69,3.62-9.91.69-1.59,1.17-3.2,1.62-4.85.33-1.24.88-2.42,1.31-3.64.36-1.01,1.06-1.53,2.12-1.58.43-.02.86-.03,1.29-.03,3.96,0,7.91-.02,11.87,0,2.31,0,2.64.43,1.89,2.6-.84,2.43-1.79,4.82-2.68,7.23-.21.56-.4,1.13-.56,1.71-.14.49-.19,1.02-.37,1.5-.85,2.33-1.77,4.65-2.6,6.99-.89,2.5-1.69,5.04-2.55,7.55-.45,1.3-.94,2.58-1.42,3.87-.96,2.57-2.1,5.08-2.84,7.71-.77,2.73-2.22,5.23-2.56,8.08-.1.85-.2,1.72-.08,2.55.29,1.91,1.56,3,3.51,3.15.43.03.86.03,1.29.03,8,0,16-.04,23.99.03,2.64.02,4.62-1.11,6.34-2.91.35-.36.68-.8.85-1.27.75-2.01,1.43-4.04,2.15-6.06.37-1.05.77-2.09,1.16-3.14,1.07-2.89,2.2-5.76,3.21-8.68,1.46-4.21,2.8-8.46,4.25-12.68.89-2.6,1.88-5.16,2.82-7.74.96-2.67,1.86-5.36,2.88-8,.97-2.51,1.02-2.5,3.76-2.5,3.96,0,7.91-.01,11.87,0,2.57,0,2.86.46,1.94,2.92-.93,2.49-1.89,4.96-2.76,7.47-.81,2.35-1.51,4.74-2.29,7.1-.61,1.87-1.24,3.74-1.92,5.59-1.29,3.55-2.64,7.08-3.93,10.63-.9,2.5-1.72,5.03-2.59,7.54-.9,2.59-1.84,5.18-2.75,7.77-.26.73-.5,1.46-.73,2.2-.18.57-.29,1.17-.49,1.73-.96,2.66-1.91,5.33-2.92,7.97-.49,1.28-1.08,2.52-1.64,3.78-.1.23-.24.48-.43.64-2.09,1.83-4.36,3.35-7.23,3.56-1.45.11-2.92.02-4.38.02-7.4,0-14.79,0-22.19,0Z"/>
  <path class="uuid-22641cfa-cbce-4e73-8574-e4aecee35ded" d="m587.75,769.98c.17,1.45-.46,2.81-.9,4.17-.93,2.85-2.02,5.66-3.05,8.48-.18.48-.35.97-.59,1.43-.48.91-1.21,1.41-2.29,1.34-.86-.05-1.72-.02-2.58-.02-15.05,0-30.1-.01-45.15.02-1.77,0-3.42-.16-4.9-1.2-.42-.29-.9-.54-1.39-.67-3.09-.87-5.41-5.42-4.73-8.57.4-1.85.68-3.68,1.53-5.43.74-1.53.96-3.26,1.65-4.86.98-2.27,1.61-4.7,2.39-7.06.7-2.12,1.4-4.24,2.12-6.35,1.17-3.41,2.32-6.82,3.54-10.21,1.28-3.55,2.64-7.08,3.94-10.62.65-1.77,1.36-3.53,1.85-5.35.44-1.61,1.28-2.99,2.01-4.44.56-1.12,1.49-1.8,2.49-2.51,2.08-1.47,4.34-1.72,6.81-1.71,17.63.06,35.26.03,52.89.03.77,0,1.55,0,2.31.09.67.07,1.07.64.91,1.3-.31,1.25-.65,2.49-1.06,3.72-.94,2.85-1.94,5.69-2.9,8.54-.56,1.64-1,2-2.8,2.09-.6.03-1.2,0-1.81,0-12.21,0-24.42,0-36.63,0-.69,0-1.38,0-2.06,0-2.92-.02-4.83,1.52-6.04,4.03-1.53,3.17-2.48,6.56-3.66,9.86-1.33,3.71-2.81,7.37-4.22,11.06-.21.56-.38,1.14-.57,1.7-.36,1.05-.75,2.09-1.09,3.15-.36,1.14-.81,2.28-.97,3.45-.27,1.95,1.01,3.57,2.96,3.85.93.13,1.89.1,2.83.1,12.04,0,24.08,0,36.12.01,1,0,2.08-.27,3.04.56Z"/>
  <path class="uuid-22641cfa-cbce-4e73-8574-e4aecee35ded" d="m679.19,622.24c11.43,0,22.87,0,34.3,0,.69,0,1.38-.03,2.06.04.86.08,1.29.81,1.07,1.7-.04.17-.1.33-.16.49-.43,1.3-.84,2.61-1.3,3.9-.96,2.66-1.99,5.3-2.89,7.98-.49,1.46-1.42,2.01-2.9,2-3.87-.04-7.74-.01-11.6-.01-3.52,0-7.05,0-10.57,0-.69,0-1.38.01-2.06.04-1.07.04-1.7.57-2.08,1.59-1.34,3.52-2.65,7.06-3.77,10.66-.38,1.23-.94,2.4-1.4,3.6-1,2.64-2.02,5.27-2.96,7.93-.82,2.34-1.55,4.72-2.31,7.08-.11.33-.19.66-.3.98-1.57,4.36-3.13,8.72-4.74,13.06-.72,1.93-1.57,3.8-2.05,5.82-.34,1.42-1.27,2.12-2.82,2.1-4.56-.05-9.11-.01-13.67-.02-.34,0-.69-.04-1.02-.13-.47-.13-.68-.49-.66-.97,0-.17.04-.34.11-.5.79-2.08,1.64-4.14,2.39-6.24.89-2.5,1.7-5.03,2.53-7.55.14-.41.2-.84.36-1.24,1.36-3.52,2.77-7.03,4.09-10.56.87-2.33,1.6-4.7,2.41-7.05.93-2.67,1.87-5.34,2.82-8.01.86-2.43,1.75-4.85,2.61-7.27.14-.4.26-.82.31-1.25.13-1.09-.44-1.85-1.52-2-.59-.08-1.2-.06-1.8-.08-4.73-.09-9.45-.18-14.18-.26-.43,0-.88-.1-1.29,0-2.66.65-5.3-.15-7.95-.06-.25,0-.52-.03-.77-.09-.61-.13-1.06-.69-.96-1.33.1-.58.31-1.15.51-1.71.9-2.5,1.78-5.01,2.74-7.49.55-1.43,1.21-2.83,1.89-4.22.32-.65.92-1,1.69-.95.43.02.86,0,1.29,0,11.52,0,23.04,0,34.56,0h0Z"/>
  <path class="uuid-22641cfa-cbce-4e73-8574-e4aecee35ded" d="m635.87,717.18c-.02.33.02.6-.06.83-1.12,3.33-2.26,6.66-3.4,9.99-.75,2.19-1.54,4.37-2.26,6.58-.98,3.02-1.91,6.04-3.09,9-.86,2.15-1.48,4.39-2.25,6.57-.86,2.43-1.82,4.82-2.66,7.25-1.06,3.08-2.08,6.17-3.04,9.28-.49,1.57.2,2.54,1.8,2.7.77.08,1.55.04,2.32.04,11.7,0,23.39,0,35.09.02,1.2,0,2.41.02,3.61.14,1.07.1,1.53.69,1.39,1.77-.16,1.19-.43,2.36-.7,3.54-.4,1.76-.8,3.51-1.28,5.25-.36,1.32-.78,2.63-1.29,3.9-.38.95-1.16,1.44-2.25,1.37-.86-.05-1.72-.03-2.58-.03-18.83,0-37.67,0-56.5,0-.52,0-1.03.03-1.55,0-1.06-.07-1.49-.67-1.27-1.75.05-.25.13-.5.22-.74.95-2.67,1.93-5.32,2.86-8,.81-2.35,1.57-4.72,2.35-7.08.73-2.2,1.43-4.41,2.19-6.6,1.49-4.3,3.02-8.59,4.51-12.89,1.18-3.4,2.3-6.81,3.49-10.21.9-2.59,1.95-5.13,2.77-7.75.59-1.89,1.19-3.75,1.9-5.6.8-2.08,1.4-4.23,2.09-6.36.48-1.48.98-1.89,2.63-1.94,1.37-.05,2.75,0,4.13,0,2.75,0,5.5-.02,8.26,0,.84,0,1.74-.17,2.58.71Z"/>
  <path class="uuid-22641cfa-cbce-4e73-8574-e4aecee35ded" d="m537.76,622.24c1.89,0,3.78,0,5.68,0,.52,0,1.03-.02,1.55.02,1.05.08,1.55.79,1.19,1.78-.79,2.17-1.65,4.32-2.45,6.49-.65,1.77-1.24,3.56-1.85,5.35-.88,2.6-1.75,5.2-2.64,7.8-.34.97-.73,1.93-1.09,2.89-1.08,2.89-2.2,5.76-3.21,8.67-1.43,4.13-2.72,8.31-4.17,12.44-1.25,3.56-2.65,7.07-3.93,10.62-.93,2.58-1.77,5.19-2.68,7.78-.49,1.37-1.05,2.72-1.6,4.07-.25.61-.78.9-1.42.97-.34.04-.69.06-1.03.06-4.3,0-8.6,0-12.9,0-.34,0-.69-.03-1.02-.09-.65-.12-1.1-.65-.95-1.3.32-1.34.6-2.7,1.12-3.96,1.72-4.13,3.08-8.37,4.55-12.59,1.33-3.81,2.84-7.54,4.23-11.33.35-.96.49-2.01.84-2.97.87-2.41,1.95-4.76,2.69-7.21,1.04-3.46,2.51-6.76,3.54-10.2.89-2.98,2.06-5.82,3.26-8.66.23-.55.29-1.16.45-1.74.18-.66.37-1.32.6-1.97.39-1.13.82-2.25,1.23-3.38.2-.57.39-1.14.59-1.71.45-1.29,1.28-1.92,2.72-1.86,2.23.08,4.47.02,6.71.02Z"/>
</svg>