<?xml version="1.0" encoding="UTF-8"?>
<svg id="uuid-b296b5e4-7a08-41b1-a2c4-f286420c9fd0" data-name="Layer 1" xmlns="http://www.w3.org/2000/svg" viewBox="0 0 1000 1000">
  <defs>
    <style>
      .uuid-0c086f4f-2134-4013-a1fd-f84df69ba83d {
        fill: #fff;
      }
    </style>
  </defs>
  <path class="uuid-0c086f4f-2134-4013-a1fd-f84df69ba83d" d="m497.78,180.28c.76.66,1.71.51,2.59.55,4.36.22,8.73.28,13.07.65,9.26.78,18.51,1.75,27.71,3.17,21.14,3.25,41.78,8.46,61.91,15.63,23.28,8.3,45.37,19.07,66.27,32.29,14.86,9.4,28.92,19.88,42.11,31.49,16.99,14.96,32.46,31.36,46.3,49.29.9,1.17,1.87,2.32,2.64,3.57,2.71,4.41,6.51,7.61,10.94,10.14,4.66,2.65,9.71,4.11,15.03,4.46,4.07.26,8.04-.65,11.84-2.08,1.99-.75,3.94-1.7,5.79-2.74,6.75-3.81,10.55-9.79,12.13-17.22,1.64-7.72-.69-14.52-5.54-20.48-2.51-3.09-6.06-4.78-9.86-5.8-6.36-1.71-11.94.17-16.79,4.21-4.16,3.46-5.6,10.09-3.69,15.16.26.69.53,1.4.92,2.02.65,1.03.72,2.14.78,3.31.07,1.37-.43,2.37-1.42,3.25-.58.51-1.21.76-1.98.88-2.66.42-4.41-.72-5.6-3.03-1.34-2.6-2.17-5.33-2.44-8.24-.45-4.94.02-9.75,2.5-14.14,3.5-6.18,8.73-10.26,15.61-12.02,5.61-1.43,11.28-1.35,16.83.39,6.75,2.11,11.78,6.49,15.45,12.43,3.15,5.09,4.58,10.69,4.58,16.7,0,3.31-.16,6.58-.96,9.8-1.3,5.23-3.79,9.81-7.37,13.81-6.02,6.71-13.57,10.61-22.4,12.02-2.34.38-4.76.33-7.14.42-6.37.23-12.44-1.02-18.23-3.7-.35-.16-.74-.24-1.32-.42.07,1.1.1,1.99.18,2.88.98,10.29-.2,20.23-4.92,29.57-4.54,8.99-11.22,16.02-19.8,21.22-5.3,3.21-11.13,4.87-17.32,5.29-6.57.44-12.99-.16-19.19-2.54-9.12-3.49-16.05-9.62-21.09-17.88-2.93-4.8-4.28-10.12-4.33-15.77-.03-3.81.12-7.57,1.17-11.26.87-3.03,2.09-5.9,3.79-8.55,2.7-4.22,6.15-7.74,10.28-10.56,4.4-3,9.3-4.49,14.65-4.51,2.89-.01,5.75.06,8.58.74,6.63,1.59,11.75,5.41,15.83,10.73,1.52,1.98,1.29,4.74-.35,6.32-1.43,1.38-4.41,1.49-5.91.18-.49-.43-.94-.93-1.34-1.45-2.84-3.81-6.76-5.9-11.22-7.22-4.09-1.21-8-.55-11.8,1.07-3.71,1.58-6.83,3.96-9.25,7.21-3.6,4.83-5.66,10.22-5.59,16.29.06,5.17,1.83,9.85,4.69,14.11,5,7.43,12.15,11.67,20.72,13.68,7.93,1.86,15.39.32,22.42-3.49,8.52-4.62,14.37-11.67,18.13-20.53,1.95-4.59,3.08-9.39,3.42-14.35.35-5.17-.67-10.16-2.24-15.06-1.57-4.93-4.13-9.34-7.26-13.41-10.87-14.14-22.76-27.35-35.77-39.56-17.49-16.41-36.52-30.78-57.11-43.07-20.09-11.98-41.22-21.7-63.38-29.19-14.53-4.91-29.33-8.79-44.39-11.64-8.33-1.58-16.7-2.92-25.14-3.74-4.42-.43-8.84-.94-13.27-1.28-7.64-.59-15.29-.89-22.95-.78-5.27.08-10.54.1-15.81.27-3.7.12-7.4.34-11.09.67-5.24.48-10.47,1.08-15.71,1.66-7.69.86-15.32,2.15-22.91,3.66-22.28,4.41-43.9,11-64.82,19.86-32.11,13.6-61.35,31.83-87.73,54.64-16.7,14.44-31.72,30.46-45.24,47.9-4.46,5.75-7.58,12.08-9.12,19.25-1.52,7.07-.85,13.92,1.32,20.7,1.96,6.13,5.09,11.63,9.5,16.32,6.2,6.58,13.72,10.7,22.79,11.74,5.46.62,10.68-.47,15.67-2.58,7.48-3.15,13.31-8.15,16.79-15.62,1.94-4.17,3.04-8.56,2.35-13.2-1.11-7.49-4.37-13.76-10.67-18.23-3.02-2.14-6.4-3.34-10.05-3.87-2.01-.29-3.96.11-5.86.63-4.48,1.23-8.39,3.4-11.17,7.26-1.16,1.6-2.59,2.41-4.63,2.22-2.21-.2-3.67-1.52-3.83-3.73-.09-1.34.05-2.62.94-3.74,4.34-5.46,9.65-9.48,16.63-10.78,6.35-1.18,12.62-.94,18.61,1.81,1.12.51,2.23,1.08,3.25,1.77,8.34,5.7,13.94,13.3,15.4,23.44,1.05,7.3.42,14.47-2.93,21.22-1.4,2.82-3.18,5.39-5.25,7.75-6.03,6.91-13.39,11.63-22.4,13.64-4.21.94-8.48,1.13-12.77.91-10.12-.53-18.79-4.45-26.22-11.28-5.09-4.68-9.34-9.97-12.27-16.27-2.34-5.05-3.85-10.32-4.41-15.86-.43-4.28-.47-8.54-.02-12.81.09-.85.3-1.76-.05-2.81-.62.25-1.14.43-1.65.66-5.19,2.28-10.59,3.52-16.3,3.46-4.04-.04-8.06-.07-12.01-1.1-9.59-2.5-17.2-7.76-22.5-16.17-3.19-5.06-4.67-10.66-4.77-16.65-.07-4.15.27-8.22,1.56-12.19,1.94-5.98,5.41-10.89,10.35-14.74,4.21-3.28,8.99-5.11,14.32-5.45,3.79-.24,7.56-.14,11.26.93,5.34,1.54,9.64,4.57,13.04,8.9,3.95,5.02,4.97,10.83,4.43,17.02-.24,2.73-.92,5.35-2.18,7.8-.26.51-.52,1.03-.85,1.5-1.34,1.93-3.7,2.73-5.88,1.84-1.24-.51-2.27-1.45-2.44-2.89-.16-1.38-.17-2.77.61-4.07.98-1.64,1.64-3.43,1.85-5.33.12-1.05.17-2.15,0-3.19-.89-5.18-3.45-9.19-8.32-11.53-2.02-.97-4.11-1.68-6.32-2.06-1.39-.24-2.78-.27-4.18-.06-3.74.58-7.16,1.92-10.13,4.26-1.09.86-2.13,1.85-2.96,2.95-3.52,4.69-5.48,9.98-5.29,15.86.16,4.96,1.88,9.49,4.64,13.63,1.67,2.5,3.73,4.6,6.23,6.27,4.24,2.83,8.89,4.6,13.91,5.5,5.45.98,10.65-.03,15.73-1.88,3.51-1.28,6.69-3.15,9.62-5.48,1.95-1.55,3.7-3.3,5.07-5.37,2.5-3.79,5.39-7.28,8.23-10.81,10.28-12.81,21.48-24.77,33.46-36.01,22.91-21.5,48.33-39.46,76.27-53.83,22.28-11.46,45.56-20.27,69.82-26.49,12.77-3.27,25.68-5.8,38.75-7.53,6.28-.83,12.57-1.58,18.9-1.98,5.26-.34,10.52-.62,15.77-.93.98-.06,1.99,0,2.88-.55h20.27Z"/>
  <path class="uuid-0c086f4f-2134-4013-a1fd-f84df69ba83d" d="m870.97,699.05c-.15.28-.41.55-.42.83-.24,4.68-2.41,8.52-5.36,11.95-3.56,4.15-7.87,7.24-13.26,8.6-1.84.46-3.7.71-5.6.82-8.01.45-15.08-2.03-21.48-6.69-.39-.29-.84-.5-1.26-.74-.06-.03-.16.01-.37.04-.23.71-.47,1.48-.73,2.25-1.84,5.42-5.49,9.3-10.36,12.1-2.03,1.17-4.31,1.64-6.62,1.8-1.55.11-3.14.07-4.68-.09-5.54-.57-9.63-3.58-12.8-7.98-1.96-2.73-2.47-5.88-2.41-9.16.09-4.95,2.23-8.84,6.09-11.88,1.56-1.23,3.33-1.06,4.93-.56,1.2.38,2.19,1.47,2.17,3.01,0,.49-.03.99,0,1.48.07.99-.31,1.76-1.02,2.4-.37.33-.72.67-1.09,1-1.22,1.08-1.93,2.48-2.28,4.02-.18.77-.17,1.66.05,2.42.61,2.12,1.8,3.86,3.73,5.04,4.49,2.75,8.9,2.33,12.94-1.91,3.92-4.12,5.26-9.87,1.7-15.67-2.79-4.55-6.95-6.93-11.94-8.04-5.28-1.18-9.94.53-14.05,3.77-2.97,2.35-5.72,4.97-8.61,7.42-25.08,21.34-52.28,39.51-81.58,54.52-29.44,15.08-60.23,26.54-92.34,34.44-11.83,2.91-23.77,5.29-35.81,7.19-8.7,1.38-17.43,2.47-26.2,3.31-8.6.82-17.23,1.31-25.87,1.65-7.41.29-14.82.37-22.23.25-7-.12-13.99-.48-20.98-.79-3.04-.13-6.08-.32-9.11-.61-5.73-.55-11.46-1.12-17.18-1.8-5.31-.63-10.62-1.33-15.9-2.17-11.05-1.77-22.02-3.98-32.91-6.62-39.06-9.46-76.04-24.15-110.95-44.07-22.53-12.85-43.68-27.67-63.51-44.39-2.9-2.44-5.76-4.92-8.57-7.47-2.9-2.63-6.26-4.19-10.09-4.85-1.58-.27-3.1-.18-4.65.11-2.96.56-5.67,1.7-8.11,3.46-3.29,2.37-5.3,5.6-6.14,9.53-.22,1.02-.25,2.14-.1,3.18.36,2.48,1.33,4.75,2.85,6.76,1.71,2.27,4.01,3.67,6.73,4.32,4.67,1.1,10.19-2.57,11-7.25.08-.47.07-1-.06-1.46-.44-1.69-1.12-3.27-2.51-4.44-.38-.32-.7-.69-1.07-1.03-.58-.53-.89-1.17-.87-1.97.01-.58-.03-1.16,0-1.73.11-1.81,1.53-3.13,3.34-3.3,1.84-.17,3.31.37,4.69,1.63,3.44,3.14,5.1,6.95,5.06,11.61-.03,3.67-.85,7.01-3.29,9.84-2.88,3.33-6.23,5.85-10.72,6.55-2.54.4-5.06.43-7.61.03-2.5-.39-4.79-1.27-6.8-2.75-4.07-3.01-7.24-6.71-8.63-11.71-.13-.46-.3-.92-.43-1.29-.8-.39-1.19.17-1.62.49-2.89,2.09-5.95,3.84-9.32,5.02-6.07,2.12-12.25,2.43-18.46.75-7.7-2.08-16.11-9.71-17.97-19.06-.14-.72-.22-1.46-.32-2.2-.11-.75-.27-1.47-.97-1.92v-3.46c.74-.65.9-1.53,1.02-2.44.83-6.48,3.99-11.62,9.13-15.55,3.3-2.52,7.07-3.85,11.25-3.84,2.55,0,5.09-.12,7.61.55,4.75,1.27,8.44,4,11.21,8,1.38,1.99,2.15,4.24,2.47,6.66.42,3.15.31,6.25-.69,9.28-.25.78-.61,1.53-.96,2.27-1.03,2.16-2.62,3.27-5.13,2.95-1.68-.21-3.19-1.34-3.48-2.97-.2-1.14-.19-2.3.33-3.39.25-.52.54-1.02.77-1.55,1.69-4.01.25-8.67-3.41-11.07-1.68-1.1-3.52-1.79-5.47-2.18-1.3-.26-2.61-.16-3.92.14-5.85,1.31-9.16,5.16-10.8,10.71-.84,2.86-.76,5.67.11,8.51,2.61,8.52,9.87,12.52,16.62,13.02,1.52.11,3.12-.21,4.63-.56,4.92-1.13,9.13-3.66,13.02-6.8,2.66-2.14,4.89-4.65,6.72-7.52,1.43-2.24,3.18-4.21,5.13-5.99,4.43-4.03,9.65-6.2,15.64-6.5,2.89-.14,5.77-.11,8.6.55,4.24,1,7.89,3.01,11.17,5.97,11.33,10.21,23.29,19.66,35.72,28.49,26.78,19.01,55.38,34.69,85.82,47.02,21.02,8.51,42.59,15.28,64.71,20.32,12.29,2.8,24.67,5.05,37.15,6.76,6.6.9,13.23,1.62,19.87,2.18,6.56.56,13.12,1.1,19.7,1.33,7.57.27,15.14.65,22.72.39,6.17-.21,12.34-.53,18.51-.82,8.22-.38,16.42-1.13,24.59-2.11,9.72-1.16,19.41-2.61,29.03-4.45,13.67-2.61,27.19-5.83,40.55-9.76,27.02-7.95,52.99-18.46,77.91-31.59,26.55-13.99,51.32-30.63,74.31-49.91,2.97-2.49,5.87-5.05,8.79-7.59,1-.87,2.05-1.6,3.32-2.07,1.76-.65,3.43-1.57,5.17-2.28,1.98-.81,3.99-1.52,5.99-2.26.3-.11.64-.17.96-.19,4.74-.27,9.37.15,13.76,2.19,4.77,2.21,8.51,5.64,11.36,9.98,3.88,5.89,9.05,10.19,15.43,13.06,1.64.74,3.39,1.28,5.14,1.72,2.6.65,5.21.55,7.8-.23,7.82-2.37,12.24-7.66,13.57-15.65.29-1.76-.14-3.45-.6-5.11-.33-1.18-.83-2.32-1.34-3.45-2.02-4.45-5.7-6.73-10.33-7.53-3.26-.56-6.17.66-8.84,2.43-2.27,1.51-3.28,3.85-3.78,6.42-.14.7-.11,1.48.06,2.17.25,1.03.55,2.09,1.07,3.01.75,1.32.73,2.69.61,4.08-.05.54-.31,1.12-.64,1.55-1.57,2.04-5,2.19-6.73.28-.55-.6-.99-1.32-1.37-2.04-2.33-4.36-2.54-13.05,1.05-17.99,3.86-5.33,8.98-8.37,15.67-8.45,2.22-.03,4.45-.15,6.65.33,5.98,1.31,10.37,4.85,13.6,9.9,1.66,2.59,2.86,5.38,2.96,8.54.01.37.29.72.44,1.09,0,2.47,0,4.95,0,7.42Z"/>
  <path class="uuid-0c086f4f-2134-4013-a1fd-f84df69ba83d" d="m497.78,819.72c-.45-.56-.9-1.13-1.37-1.67-2.04-2.41-1.07-6.7,1.8-7.94,1.64-.71,4.48-.22,5.74.99,1.52,1.47,2.04,3.92,1.19,5.88-.19.44-.51.84-.84,1.19-.5.54-1.05,1.03-1.58,1.55h-4.94Z"/>
  <path class="uuid-0c086f4f-2134-4013-a1fd-f84df69ba83d" d="m446.38,674.7c-.79.68-1.49,1.39-2.29,1.94-10.51,7.25-21.04,14.47-31.56,21.71-.75.52-1.49,1-2.48.94-1.36-.07-2.16-.77-2.18-2.13-.03-1.4.06-2.8.06-4.2,0-33.96,0-67.91,0-101.87,0-23.16.01-46.32.09-69.48.02-4.68.37-9.37.56-14.05.02-.48,0-.99-.11-1.46-.46-1.86-.47-3.75-.47-5.65,0-18.38-.03-36.76-.04-55.14,0-18.46,0-36.92-.01-55.39,0-1.24-.1-2.47-.08-3.71.02-1.11.73-1.88,1.83-1.92.63-.03,1.29.14,1.91.32.38.11.71.4,1.06.62,10.2,6.37,20.4,12.73,30.6,19.1.28.17.55.37.84.52,1.72.89,2.31,2.2,2.3,4.2-.11,35.52-.13,71.05-.16,106.57,0,.97-.13,1.95.14,2.87.69.26.99-.23,1.33-.54,5.9-5.39,11.8-10.78,17.69-16.18,8.51-7.79,17.01-15.58,25.52-23.37,8.57-7.84,17.15-15.68,25.71-23.52,9.23-8.46,18.46-16.93,27.68-25.39,2.67-2.45,5.36-4.88,8-7.37.73-.69,1.5-.95,2.45-.86,1.07.11,1.78.8,1.91,1.91.05.41.03.82.03,1.24-.04,14.59-.09,29.18-.13,43.76,0,.25-.02.5,0,.74.11.99-.31,1.72-1.01,2.39-2.08,2-4.12,4.04-6.18,6.06-11.52,11.32-23.04,22.63-34.55,33.96-.62.61-1.46,1.1-1.65,2.2.8.24,1.57.5,2.36.72,5.39,1.55,10.66,3.41,15.75,5.78,12.85,6,22.64,15.41,30.23,27.26,6.09,9.5,9.36,19.92,10.24,31.12.25,3.2.39,6.42.39,9.63.02,52.67,0,105.33,0,158,0,.25-.01.5,0,.74.07,1.07-.19,2.07-1.24,2.46-1.01.38-2.09.34-3.04-.4-2.47-1.93-4.95-3.83-7.43-5.75-8.14-6.31-16.28-12.62-24.42-18.92-.26-.2-.51-.41-.78-.6-1.31-.93-1.8-2.1-1.8-3.78.1-19.86.14-39.73.14-59.59,0-20.93-.04-41.87-.07-62.8,0-3.63.02-7.25-.04-10.88-.17-11.09-5.08-19.77-13.68-26.46-5.89-4.58-12.67-7.27-19.92-8.89-3.14-.7-6.33-1.11-9.53-1.29-1.71-.1-3.46.08-5.17.3-7.33.91-14.36,2.82-20.87,6.44-5.82,3.25-10.48,7.65-13.83,13.43-2.49,4.3-3.67,8.96-4.06,13.86-.11,1.39-.14,2.8-.14,4.2,0,28.02.03,56.05.05,84.07,0,.82,0,1.64,0,2.52Z"/>
  <path class="uuid-0c086f4f-2134-4013-a1fd-f84df69ba83d" d="m189.65,450.28c.67-.54,1.31-1.05,1.94-1.57,7.7-6.33,16.34-10.75,26.09-12.92,3.7-.82,7.46-1.34,11.26-1.25,3.37.07,6.76.05,10.12.37,8.08.78,15.53,3.52,22.53,7.58,3.14,1.82,6.11,3.89,8.89,6.24.62.53,1.27,1.03,1.96,1.59.93-.31,1.51-1.02,2.2-1.58,7.7-6.33,16.34-10.75,26.09-12.93,3.14-.7,6.31-1.18,9.54-1.19,4.12,0,8.23-.18,12.34.33,10.71,1.33,20.37,5.28,28.9,11.85,9.62,7.41,16.73,16.74,20.84,28.24,2.21,6.18,3.38,12.54,3.38,19.12.02,44.67.07,89.34.11,134.01,0,1.15.05,2.31.09,3.46.04,1.15-.94,2.27-2.19,2.12-.49-.06-.99-.01-1.48-.01-11.04,0-22.08-.05-33.11.03-3.33.02-3.49-.85-3.49-3.55.07-53.24.1-106.48.14-159.72,0-3.54.05-7.09-.12-10.63-.31-6.43-3.07-11.73-7.95-15.87-3.07-2.6-6.61-4.07-10.67-4.72-11.9-1.91-21.24,6.84-23.49,16.22-.58,2.41-.87,4.85-.87,7.34.04,43.6.07,87.2.1,130.8,0,10.71,0,21.43.02,32.14,0,1.65.07,3.29.09,4.94,0,.49.02,1-.07,1.48-.15.83-.85,1.45-1.7,1.54-.49.05-.99.03-1.48.03-11.37,0-22.74-.03-34.1.04-2.27.01-3.31-.67-3.29-3.39.08-10.05.03-20.11.03-30.16,0-46.24-.01-92.47.02-138.71,0-5.5-1.61-10.39-5.02-14.65-6.99-8.72-19.56-11.24-29.42-3.11-4.5,3.72-7.11,8.59-7.84,14.4-.24,1.95-.35,3.94-.35,5.91-.01,54.48,0,108.96,0,163.43,0,1.32.1,2.64.08,3.95-.03,1.6-.67,2.23-2.26,2.28-1.15.04-2.31,0-3.46,0-10.54,0-21.09.01-31.63.02-.41,0-.83.02-1.24-.02-1.08-.09-1.8-.78-1.88-1.9-.06-.82-.03-1.65-.03-2.47,0-55.8,0-111.59,0-167.39,0-2.32-.13-4.62-.81-6.84-2.42-8.02-7.54-13.36-15.65-15.7-.24-.07-.49-.09-.72-.17-1.91-.64-1.95-1.82-1.59-3.32.18-.75.77-1.3,1.62-1.31.99,0,1.98.04,2.96.13,12.02,1.16,22.49,5.99,31.83,13.48.77.62,1.53,1.25,2.3,1.87.06.05.15.05.48.16Z"/>
  <path class="uuid-0c086f4f-2134-4013-a1fd-f84df69ba83d" d="m626.39,450.38c.69-.55,1.32-1.05,1.95-1.57,7.69-6.33,16.32-10.78,26.06-13,3.96-.9,7.96-1.18,12.01-1.28,8.16-.21,16.1.81,23.7,3.9,6.15,2.5,11.8,5.84,16.91,10.08.75.62,1.52,1.23,2.37,1.91.72-.59,1.35-1.09,1.98-1.6,7.76-6.39,16.46-10.88,26.3-13.05,3.87-.85,7.79-1.34,11.76-1.24,3.45.09,6.91,0,10.36.45,12.02,1.59,22.58,6.42,31.69,14.37,6.34,5.53,11.48,12.02,15.14,19.63,3.92,8.14,5.96,16.71,5.96,25.76,0,44.01.04,88.02.07,132.02,0,1.57.06,3.13.03,4.7-.03,1.61-.64,2.21-2.25,2.26-.9.03-1.81,0-2.72,0-10.63,0-21.25-.02-31.88.04-2.83.02-3.33-.47-3.33-3.45.07-27.44.09-54.89.11-82.33.02-28.19,0-56.37,0-84.56,0-2.72-.08-5.43-.84-8.08-2.2-7.59-6.99-12.85-14.43-15.4-9.62-3.29-18.17,1.04-22.94,7.21-3.18,4.11-4.71,8.81-4.84,13.99-.01.49,0,.99,0,1.48.01,55.13.03,110.27.04,165.4,0,1.24.07,2.47.03,3.71-.05,1.29-.71,1.91-2.02,1.99-.49.03-.99,0-1.48,0-11.2,0-22.4,0-33.61,0-.58,0-1.16.02-1.73-.05-.79-.1-1.52-.83-1.62-1.63-.07-.57-.05-1.15-.05-1.73,0-56.45.05-112.91-.05-169.36-.02-9.51-4.64-16.52-13.37-20.47-5.01-2.27-10.25-2.35-15.36-.17-7.56,3.23-11.98,9.02-13.43,17.07-.29,1.61-.38,3.27-.38,4.91-.01,55.38,0,110.76,0,166.14,0,1.07.05,2.14,0,3.21-.05,1.31-.69,1.95-1.96,2.05-.41.03-.82.01-1.24.01-11.28,0-22.57,0-33.85,0-.58,0-1.16.02-1.73-.05-.8-.1-1.53-.82-1.62-1.62-.07-.57-.05-1.15-.05-1.73,0-55.71,0-111.42,0-167.13,0-2.06.06-4.11-.38-6.15-1.87-8.82-6.99-14.71-15.6-17.51-.47-.15-.98-.2-1.43-.39-1.33-.58-1.84-2.34-1.04-3.56.44-.66,1.07-1.03,1.88-.95,1.96.18,3.94.28,5.89.59,10.76,1.74,20.15,6.45,28.55,13.28.57.47,1.14.95,1.71,1.42.13.1.28.17.69.43Z"/>
  <path class="uuid-0c086f4f-2134-4013-a1fd-f84df69ba83d" d="m500.23,790.62c-6.17-.13-12.27-.14-18.36-.4-5.67-.24-11.33-.7-16.99-1.13-3.86-.29-7.72-.6-11.55-1.07-6.53-.8-13.06-1.61-19.56-2.63-13.5-2.13-26.85-5-40.06-8.52-24.57-6.56-48.29-15.38-71.17-26.47-23.64-11.46-45.94-25.11-66.92-40.91-.85-.64-1.66-1.35-2.48-2.04-.74-.62-1.1-1.41-1.03-2.4.03-.41,0-.82,0-1.24.07-1.96,1.24-3.23,3.15-3.43,1.8-.18,3.3.29,4.8,1.43,18.29,13.86,37.66,26.02,58.07,36.51,23.06,11.86,47.05,21.36,71.98,28.5,15.2,4.36,30.62,7.77,46.23,10.31,7.63,1.24,15.3,2.27,22.99,3.03,7.37.73,14.75,1.29,22.15,1.65,8.31.41,16.62.53,24.94.44,7.41-.08,14.81-.36,22.2-1,5.9-.51,11.81-.93,17.7-1.6,13.17-1.5,26.23-3.66,39.18-6.48,17.48-3.79,34.63-8.73,51.43-14.84,21.4-7.79,41.98-17.35,61.74-28.69,14.66-8.41,28.75-17.7,42.21-27.93,1.49-1.13,2.99-1.65,4.8-1.41,1.66.23,3,1.67,3.09,3.33.02.41-.03.83.02,1.24.13,1.09-.34,1.92-1.12,2.61-.55.49-1.1,1-1.69,1.44-26.42,19.93-54.81,36.48-85.26,49.46-20.57,8.77-41.72,15.74-63.46,20.97-10.4,2.5-20.88,4.65-31.47,6.19-7.16,1.04-14.33,2.03-21.52,2.84-5.23.59-10.49.87-15.74,1.24-3.86.27-7.72.5-11.58.63-5.6.18-11.2.25-16.72.36Z"/>
  <path class="uuid-0c086f4f-2134-4013-a1fd-f84df69ba83d" d="m487.49,283.96c6.42.26,12.85.34,19.24.82,11.25.86,22.39,2.53,33.41,5.03,32.33,7.34,61.84,20.85,88.5,40.55,12.03,8.89,23.06,18.89,33.21,29.87,1.29,1.39,2.58,2.77,3.82,4.21,1.74,2.02,1.47,5.13-.55,6.8-1.35,1.12-4.18,1.16-5.5-.03-.98-.88-1.86-1.86-2.74-2.84-4.08-4.54-8.31-8.91-12.77-13.08-9.71-9.08-20.11-17.28-31.22-24.57-23.24-15.25-48.43-25.91-75.5-32.13-9.15-2.1-18.41-3.56-27.75-4.55-10.26-1.09-20.54-1.32-30.83-.98-5.58.18-11.17.69-16.73,1.35-7.69.91-15.31,2.17-22.87,3.82-17.2,3.75-33.75,9.42-49.66,16.98-18.17,8.64-34.94,19.46-50.29,32.48-7.67,6.51-14.93,13.45-21.6,21-.49.56-1.06,1.05-1.49,1.65-1.32,1.8-3.17,1.9-5.11,1.64-1.34-.18-2.84-1.92-2.97-3.27-.03-.33.01-.66-.02-.99-.14-1.4.31-2.53,1.31-3.56,2.63-2.73,5.13-5.58,7.77-8.3,15.99-16.5,33.98-30.41,54.02-41.65,20.32-11.39,41.86-19.6,64.61-24.6,8.04-1.77,16.15-3.09,24.34-4.01,9.09-1.02,18.21-1.54,27.36-1.61Z"/>
  <path class="uuid-0c086f4f-2134-4013-a1fd-f84df69ba83d" d="m518.2,348.09c-1.3.42-2.14,1.23-3.06,1.9-6.93,5.06-13.36,10.71-19.49,16.71-.82.81-1.62,1.64-2.46,2.43-1.6,1.5-4.14,1.48-5.75-.02-4.15-3.88-8.22-7.85-12.49-11.59-3.34-2.92-6.95-5.54-10.45-8.28-.51-.4-1.09-.73-1.58-1.05-1.09,0-1.73.74-2.46,1.22-4.62,3.03-9.39,5.78-14.43,8.05-5.35,2.42-10.88,4.3-16.73,5-4.17.5-8.36.66-12.53-.17-5.49-1.09-11.58-6.72-12.85-13.63-.59-3.2-.57-6.38,0-9.57,1.23-6.82,7.77-13.47,15.62-13.97,8.3-.52,16.23.81,23.94,3.79,5.47,2.12,10.66,4.78,15.68,7.8,1.06.63,2.11,1.28,3.23,1.96.51-.29,1.04-.52,1.48-.86,7.97-6.01,15.45-12.59,22.31-19.84.34-.36.71-.69,1.01-1.08.96-1.25,2.23-1.55,3.73-1.43.78.06,1.44.29,1.98.85.4.41.82.82,1.21,1.24,6.54,6.99,13.69,13.32,21.26,19.18.84.65,1.71,1.27,2.55,1.9,1.03-.13,1.72-.76,2.47-1.22,5.28-3.22,10.73-6.11,16.5-8.36,4.23-1.65,8.57-2.94,13.06-3.58,4.16-.59,8.36-.77,12.55-.2,6.86.93,13.03,6.96,14.3,13.94.58,3.2.57,6.38-.03,9.57-1.34,7.1-8.11,13.86-16.57,14.11-8.94.26-17.31-1.67-25.37-5.31-4.96-2.24-9.68-4.92-14.23-7.91-.82-.54-1.64-1.06-2.4-1.55Zm-6.86-4.76c-.4-.42-.65-.75-.96-.99-6.67-5.24-12.98-10.9-18.97-16.91-.33-.33-.76-.56-1.22-.89-1.73,1.68-3.37,3.3-5.03,4.87-1.67,1.58-3.36,3.15-5.08,4.69-1.78,1.59-3.61,3.12-5.41,4.69-1.72,1.5-3.66,2.73-5.28,4.47.3.32.49.6.74.78,6.75,5.01,13.09,10.5,19.09,16.38.33.32.76.55,1.22.87,2.32-2.16,4.51-4.26,6.77-6.29,2.27-2.03,4.57-4.03,6.91-5.97,2.33-1.93,4.74-3.77,7.21-5.72Zm-55.9.12c-.55-.42-.85-.69-1.19-.89-5.33-3.14-10.84-5.87-16.72-7.83-4.38-1.46-8.85-2.5-13.49-2.71-2.69-.12-5.25.41-7.59,1.73-.99.56-2.02,1.22-2.7,2.09-3.17,4.07-4.15,8.51-1.79,13.36.76,1.57,1.64,3.06,3.1,4.08,2.79,1.95,5.9,2.92,9.3,2.56,3.02-.32,6.01-.87,8.95-1.7,7.59-2.15,14.52-5.7,21.15-9.87.27-.17.49-.41.97-.83Zm69.87.02c1.06,1.14,2.27,1.67,3.38,2.33,8.36,4.93,17.1,8.81,26.89,9.93,2.55.29,4.93-.04,7.25-.95,4.3-1.69,7.55-6.52,7.16-11.12-.49-5.79-3.22-9.65-8.85-11.14-1.44-.38-2.9-.53-4.4-.49-2.73.08-5.4.53-8.05,1.15-8.09,1.9-15.53,5.37-22.63,9.62-.2.12-.36.32-.76.67Z"/>
  <path class="uuid-0c086f4f-2134-4013-a1fd-f84df69ba83d" d="m441.08,266.76c-.96.22-1.69-.44-2.28-1.28-.95-1.34-1.87-2.71-2.79-4.07-1.3-1.93-2.9-3.59-4.63-5.11-.98-.86-2.09-1.61-3.23-2.25-1.07-.61-2.25-1.02-3.55-.75-.32.06-.66.01-.99.04-1.03.08-1.82-.37-2.17-1.29-.32-.85-.35-1.79.3-2.57.26-.32.55-.62.85-.89,2.8-2.49,4.46-5.68,5.55-9.18,1.1-3.54,1.93-7.14,2.44-10.81.15-1.06.35-2.11.6-3.15.22-.94.97-1.45,1.95-1.59,1.41-.21,2.38.39,3.11,1.52,1.12,1.73,2.21,3.47,3.35,5.19,1.83,2.74,3.72,5.43,6.01,7.82,1.33,1.39,2.89,2.43,4.62,3.24.89.42,1.82.79,2.66,1.29.98.58,1.51,1.43,1.43,2.66-.06.93-.43,1.56-1.2,2-.14.08-.29.16-.45.2-2.17.58-3.4,2.18-4.45,4.01-1.94,3.4-3.1,7.07-3.99,10.85-.19.8-.32,1.62-.57,2.4-.4,1.26-1.07,1.72-2.56,1.74Z"/>
  <path class="uuid-0c086f4f-2134-4013-a1fd-f84df69ba83d" d="m504.57,244c-.03,1.37-.58,2.15-1.86,2.31-3.04.37-5.06,2.16-6.73,4.53-2.04,2.9-3.71,6.01-5.14,9.26-.17.38-.31.76-.48,1.14-.52,1.18-1.37,1.75-2.7,1.7-1.26-.04-1.88-.68-2.36-1.78-1.06-2.4-2.15-4.8-3.4-7.11-.81-1.51-1.84-2.92-2.9-4.27-1.54-1.94-3.55-3.16-6.05-3.43-.91-.1-1.62-.47-1.86-1.35-.26-.96-.36-2.01.49-2.76.92-.82,1.87-1.62,2.9-2.28,1.7-1.11,2.94-2.57,4.01-4.27,1.72-2.73,3.01-5.66,4.26-8.61.71-1.66,1.37-3.34,2.07-5,.19-.45.4-.9.65-1.33,1.1-1.87,3.87-1.82,4.79.18.31.67.57,1.36.83,2.06,1.31,3.55,2.92,6.97,4.63,10.34,1.55,3.07,3.63,5.66,6.59,7.5.48.3.91.7,1.35,1.07.68.57,1,1.29.89,2.08Z"/>
  <path class="uuid-0c086f4f-2134-4013-a1fd-f84df69ba83d" d="m659.29,294.57c3.11.38,5.84-.46,8.55-1.48,4.09-1.53,7.93-3.59,11.74-5.69.89-.49,1.79-.8,2.81-.69,1,.1,1.67.69,1.8,1.69.14,1.08-.04,2.11-.39,3.15-.96,2.88-1.91,5.77-2.72,8.7-.59,2.13-.98,4.32-1.42,6.49-.35,1.75.23,3.43.53,5.12.14.81.43,1.59.57,2.4.11.64.15,1.31.09,1.96-.08.87-.75,1.52-1.6,1.62-.82.1-1.66.14-2.38-.37-2.52-1.81-5.26-1.61-8.04-.87-3.35.9-6.53,2.22-9.56,3.9-.88.49-1.78.79-2.81.71-1.38-.11-2.13-.75-2.14-2.17,0-1.05.1-2.15.43-3.15.97-2.99,1.52-6.04,1.95-9.15.4-2.91.02-5.57-1.74-7.95-.6-.81-.66-1.66-.55-2.57.12-1,.77-1.6,1.83-1.64,1.07-.05,2.13-.01,3.05-.01Z"/>
  <path class="uuid-0c086f4f-2134-4013-a1fd-f84df69ba83d" d="m538.27,222.77c1.65,0,2.37.61,2.75,2.36.4,1.84.69,3.71,1.1,5.55.66,2.97,1.43,5.9,2.54,8.74.97,2.49,2.25,4.74,4.22,6.58.36.34.67.72,1.05,1.05,1.03.9.97,2.06.68,3.19-.26,1.01-1.1,1.38-2.1,1.34-2.34-.09-4.34.82-6.15,2.18-.98.74-1.98,1.51-2.76,2.44-1.53,1.82-2.92,3.76-4.34,5.67-.54.72-1.02,1.49-1.55,2.23-1.08,1.53-3.6,1.52-4.64-.61-.28-.59-.46-1.23-.63-1.87-.77-2.95-1.73-5.83-3.09-8.56-.55-1.1-1.18-2.16-1.79-3.23-.72-1.25-1.72-2.19-3.04-2.79-.37-.17-.76-.33-1.09-.57-1.44-1.03-1.58-3.04-.3-4.29.35-.34.76-.64,1.2-.83,4.87-2.15,8.17-5.96,10.99-10.29,1.07-1.65,2.05-3.36,3.12-5.01.53-.83,1.16-1.59,1.77-2.37.55-.7,1.27-1.01,2.06-.92Z"/>
  <path class="uuid-0c086f4f-2134-4013-a1fd-f84df69ba83d" d="m360.79,271.99c.05.62-.12,1.23-.65,1.71-2.71,2.38-3.33,5.61-3.43,8.94-.09,3.04.12,6.09.2,9.13.02.74.09,1.49.02,2.22-.08.89-.72,1.46-1.63,1.57-1.19.15-2.2-.14-3.19-.92-2.9-2.31-6-4.33-9.46-5.75-.83-.34-1.69-.64-2.55-.9-1.55-.48-3.05-.43-4.56.28-.64.3-1.42.42-2.14.41-1.36,0-2.11-.84-2.01-2.24.05-.72.29-1.44.55-2.12.54-1.46,1.15-2.9,1.73-4.35.46-1.16.6-2.38.64-3.63.14-3.56-.38-7.06-.85-10.56-.24-1.79-.43-3.58-.65-5.37-.15-1.22.38-2.17,1.42-2.63,1-.44,2.09-.37,3.03.37,1.29,1.02,2.56,2.06,3.9,3.02,2.34,1.68,4.67,3.37,7.09,4.92,3.1,1.98,6.52,3.05,10.22,3.28,1.63.1,2.35.99,2.33,2.64Z"/>
  <path class="uuid-0c086f4f-2134-4013-a1fd-f84df69ba83d" d="m396.72,277c-.78.09-1.5-.23-2.12-.86-1.32-1.35-2.66-2.69-4.01-4.02-2.25-2.21-4.81-3.97-7.74-5.17-1.23-.5-2.47-.87-3.84-.65-.64.1-1.32.07-1.97,0-.96-.09-1.61-.81-1.7-1.79-.09-.92-.03-1.85.57-2.59,2.52-3.12,3.54-6.78,4.05-10.68.47-3.59.75-7.19.8-10.81.01-.82-.03-1.65.04-2.47.09-.95.84-1.64,1.78-1.73.92-.09,1.79,0,2.49.74.67.72,1.42,1.37,2.11,2.07,2.08,2.11,4.16,4.21,6.21,6.36,2.86,3,6.33,4.93,10.31,5.98.4.11.82.12,1.2.28.94.38,1.72.95,1.87,2.08.16,1.26-.14,2.35-1.41,2.84-1.78.69-2.63,2.14-3.35,3.75-1.15,2.58-1.83,5.28-2.18,8.07-.25,2.04-.39,4.09-.56,6.14-.13,1.59-.93,2.42-2.57,2.45Z"/>
  <path class="uuid-0c086f4f-2134-4013-a1fd-f84df69ba83d" d="m593.15,243.09c-.05,3.67.32,7.76,1.02,11.82.41,2.41,1.66,4.44,2.87,6.5.37.64.77,1.26,1.15,1.9.46.76.37,1.59.22,2.4-.14.75-.97,1.43-1.78,1.48-.65.04-1.37.11-1.95-.11-1.53-.56-2.92-.16-4.3.42-2.06.87-4.02,1.93-5.69,3.41-1.97,1.74-3.9,3.53-5.74,5.41-.86.88-1.79,1.08-2.89.97-1.05-.11-1.84-.84-1.96-1.88-.08-.65-.03-1.31-.05-1.97-.11-3.63-.57-7.21-1.66-10.68-.22-.71-.52-1.39-.78-2.08-.6-1.58-1.48-2.91-3.01-3.77-.89-.51-1.49-1.24-1.46-2.39.03-1.27.43-1.99,1.64-2.45.84-.32,1.71-.59,2.58-.82,3.25-.88,6.06-2.57,8.47-4.85,2.86-2.71,5.59-5.57,8.37-8.37.4-.41.75-.88,1.18-1.25.75-.64,2.21-.63,2.99-.05.57.43.79,1.01.77,1.72-.02,1.4,0,2.8,0,4.65Z"/>
  <path class="uuid-0c086f4f-2134-4013-a1fd-f84df69ba83d" d="m616.35,291.41c.12-2.13.31-4.27.34-6.4.02-1.64-.07-3.3-.31-4.92-.19-1.29-.61-2.55-1.07-3.78-.4-1.1-1.18-1.95-2.17-2.62-.53-.36-1-.83-1.11-1.56-.27-1.91.33-2.76,2.25-3.06.65-.1,1.31-.13,1.96-.17,2.66-.16,5.16-.82,7.52-2.13,2.89-1.6,5.61-3.44,8.24-5.41,1.25-.93,2.48-1.89,3.73-2.82,1.25-.92,3.19-.81,4,.28.32.43.56,1.03.59,1.56.07,1.06.05,2.14-.07,3.2-.27,2.37-.57,4.74-.95,7.09-.76,4.62-.21,9.01,1.96,13.19.46.88.85,1.76.75,2.82-.11,1.28-.7,1.95-1.99,2.04-.84.06-1.63-.06-2.39-.46-1.54-.83-3.14-.78-4.79-.29-3.68,1.1-6.91,3.03-10.04,5.19-.74.51-1.48,1.05-2.16,1.64-.84.74-1.82.69-2.8.58-.71-.08-1.36-.74-1.43-1.49-.07-.82-.02-1.64-.02-2.47-.03,0-.05,0-.08,0Z"/>
  <path class="uuid-0c086f4f-2134-4013-a1fd-f84df69ba83d" d="m294.91,311.35c.23-1.12.37-2.27.71-3.36.78-2.51.7-5.01.31-7.56-.58-3.83-1.63-7.54-2.52-11.29-.26-1.1-.26-2.28-.24-3.42.02-.91.67-1.53,1.56-1.65,1.15-.15,2.24-.04,3.31.61,2.88,1.75,5.81,3.4,8.73,5.1,2.15,1.25,4.49,2.02,6.83,2.8,1.27.42,2.59.43,3.9.42.82,0,1.64.02,2.47.02,1.05,0,1.75.63,2.08,1.48.32.83.43,1.83-.27,2.57-.93.98-1.61,2.06-2.02,3.34-.36,1.1-.55,2.21-.6,3.38-.13,3.15.37,6.22.98,9.29.29,1.44.48,2.92.54,4.39.05,1.21-.79,1.94-2,2.04-1.03.09-1.91-.23-2.81-.73-2.16-1.19-4.32-2.39-6.56-3.4-1.63-.74-3.4-1.18-5.11-1.74-1.47-.48-2.93-.38-4.34.21-.86.36-1.74.47-2.65.42-1.37-.08-1.96-.6-2.1-1.91-.04-.33,0-.66,0-.99-.06,0-.11-.02-.17-.03Z"/>
  <path class="uuid-0c086f4f-2134-4013-a1fd-f84df69ba83d" d="m246.8,769.75c-4.38.35-8.12-1.57-11.23-4.98-1.18-1.3-2.06-2.75-2.66-4.4-1.14-3.1-1.82-6.32-2.45-9.54-1.16-5.97-2.03-11.99-2.62-18.05-.14-1.47-.31-2.94-.34-4.42-.02-1.11.74-1.83,1.81-1.94.84-.09,1.62.08,2.37.49,7.58,4.13,15.13,8.32,22.12,13.42,1.85,1.35,3.52,2.96,5.22,4.5,1.31,1.18,2.19,2.69,2.7,4.36,1.12,3.71,1.23,7.47-.1,11.15-2.01,5.58-7.54,9.37-13.5,9.4-.33,0-.66,0-1.32,0Zm-9.01-28.91c0,.7-.08,1.26.01,1.79.34,2.03.66,4.06,1.13,6.06.64,2.72,1.24,5.47,2.18,8.08,1.59,4.42,6.16,5.76,10.04,3.13,1.45-.98,2.13-2.44,2.65-4.04.27-.82.27-1.57.03-2.4-.5-1.72-1.41-3.12-2.83-4.22-3.84-2.99-7.97-5.53-12.12-8.05-.26-.16-.6-.19-1.1-.35Z"/>
  <path class="uuid-0c086f4f-2134-4013-a1fd-f84df69ba83d" d="m753.18,769.75c-1.96.18-4.25-.09-6.32-1.22-5.19-2.83-8.45-6.99-8.54-13.14-.02-1.39.06-2.8.28-4.17.39-2.41,1.43-4.53,3.13-6.31,1.77-1.86,3.74-3.47,5.82-4.95,6.85-4.88,14.16-8.98,21.53-13,.75-.41,1.52-.6,2.36-.53,1.1.09,1.84.77,1.95,1.84.05.57.07,1.16,0,1.73-.97,8.58-2,17.15-4.01,25.56-.4,1.68-.91,3.34-1.51,4.95-2.07,5.57-7.38,9.22-13.32,9.24-.33,0-.66,0-1.38,0Zm10.12-29.09c-.86.39-1.34.53-1.73.79-3.38,2.19-6.76,4.39-10.12,6.61-.75.5-1.49,1.05-2.14,1.67-2.76,2.69-3.3,5.56-1.1,8.6,3.26,4.51,9.11,3.43,11.17-.69.58-1.17,1.02-2.44,1.31-3.71.77-3.36,1.45-6.75,2.14-10.14.18-.87.27-1.76.48-3.12Z"/>
  <path class="uuid-0c086f4f-2134-4013-a1fd-f84df69ba83d" d="m367.79,789.12c1.76-.37,2.92.61,3.99,1.83.84.96.74,2.1.83,3.24.13,1.66-.62,2.82-1.79,3.83-.64.55-1.36.9-2.22.9-.49,0-.98.02-1.47,0-2.74-.06-4.52-1.89-4.59-4.66-.03-1.34.11-2.56,1.07-3.65,1.15-1.3,2.5-1.77,4.19-1.5Z"/>
  <path class="uuid-0c086f4f-2134-4013-a1fd-f84df69ba83d" d="m433.14,814.55c-3.22,0-5.01-1.8-5.01-5,0-3.16,1.86-5,5.05-4.99,3.18,0,4.92,1.87,5.07,5.03.13,2.72-2.37,5.42-5.11,4.96Z"/>
  <path class="uuid-0c086f4f-2134-4013-a1fd-f84df69ba83d" d="m410.86,810.37c-1.5.22-2.69-.3-3.7-1.45-.69-.78-1.12-1.6-1.1-2.64,0-.49-.02-.98,0-1.47.1-2.36,1.87-4.16,4.19-4.29.41-.02.82-.02,1.23,0,2.68.07,4.54,1.98,4.62,4.68.04,1.35-.13,2.57-1.07,3.65-1.14,1.31-2.52,1.74-4.17,1.51Z"/>
  <path class="uuid-0c086f4f-2134-4013-a1fd-f84df69ba83d" d="m346.37,791.41c-1.83.32-3.12-.42-4.17-1.74-1.81-2.27-.91-6.43,1.68-7.7,1.98-.97,5.14-.31,6.54,1.37,1.95,2.34,1.03,6.57-1.71,7.84-.22.1-.46.2-.7.22-.57.03-1.15.01-1.64.01Z"/>
  <path class="uuid-0c086f4f-2134-4013-a1fd-f84df69ba83d" d="m715.41,762.76c-3.27,0-4.95-1.71-4.95-5.02,0-3.29,1.71-4.78,5.06-4.94,2.72-.14,4.99,2.45,5,4.95.01,2.7-2.38,5.51-5.12,5.02Z"/>
  <path class="uuid-0c086f4f-2134-4013-a1fd-f84df69ba83d" d="m567.67,814.54c-2.6.45-5.11-2.26-5.08-5.05.03-2.61,2.45-5.18,5.23-4.97,3.01.23,4.74,1.96,4.93,5,.17,2.67-2.3,5.47-5.08,5.02Z"/>
  <path class="uuid-0c086f4f-2134-4013-a1fd-f84df69ba83d" d="m455.59,817.43c-1.45.09-2.73-.18-3.79-1.32-.82-.89-1.4-1.8-1.3-3.05.03-.41,0-.82,0-1.23.09-2.47,1.89-4.19,4.38-4.36,1.94-.14,3.52.36,4.76,1.93,1.86,2.37.85,6.64-1.89,7.75-.22.09-.47.16-.71.18-.49.05-.98.06-1.47.09Z"/>
  <path class="uuid-0c086f4f-2134-4013-a1fd-f84df69ba83d" d="m611.68,805.21c-1.62.29-2.85-.37-3.9-1.56-2.04-2.32-1.34-6.41,1.41-7.86.35-.18.78-.26,1.18-.29.65-.05,1.31-.06,1.97-.04,2.56.08,4.28,1.79,4.35,4.33.04,1.31.08,2.59-.91,3.71-1.12,1.25-2.36,2.02-4.09,1.72Z"/>
  <path class="uuid-0c086f4f-2134-4013-a1fd-f84df69ba83d" d="m325.63,782.98c-3.3.01-4.99-1.74-5.17-4.91-.15-2.51,2.02-5.21,5.11-5.04,3.17.18,4.93,1.74,4.96,4.85.04,3.3-1.68,5.09-4.9,5.1Z"/>
  <path class="uuid-0c086f4f-2134-4013-a1fd-f84df69ba83d" d="m305.23,773.26c-1.75.33-3.01-.42-4.1-1.7-1.36-1.59-1.23-3.46-.62-5.13.64-1.73,2.02-2.91,4.13-2.98,1.93-.07,3.55.3,4.77,1.94,1.17,1.56,1.25,4.46.06,6-1.08,1.41-2.41,2.22-4.24,1.87Z"/>
  <path class="uuid-0c086f4f-2134-4013-a1fd-f84df69ba83d" d="m680.24,777.8c.02,1.36-.04,2.53-.97,3.56-1.15,1.28-2.49,1.65-4.16,1.66-1.65,0-2.83-.6-3.84-1.79-.55-.65-.92-1.35-.9-2.22.01-.49-.01-.99,0-1.48.06-2.58,1.69-4.3,4.27-4.43,1.57-.08,3.06-.02,4.32,1.27,1.01,1.04,1.38,2.18,1.29,3.44Z"/>
  <path class="uuid-0c086f4f-2134-4013-a1fd-f84df69ba83d" d="m654.19,791.45c-1.3.21-2.5-.31-3.52-1.44-.69-.77-1.15-1.58-1.1-2.64.02-.41,0-.82,0-1.23.06-2.74,1.71-4.41,4.43-4.48.49-.01.99-.02,1.48.01,2.16.14,3.81,1.79,3.94,3.94.03.41.02.82.01,1.23-.04,2.91-1.67,4.56-4.54,4.61-.16,0-.33,0-.7,0Z"/>
  <path class="uuid-0c086f4f-2134-4013-a1fd-f84df69ba83d" d="m389.25,805.28c-3.34.02-4.86-1.67-5.13-4.91-.24-2.82,2.29-5.1,5.03-5.09,2.79,0,5.15,2.28,4.98,4.87-.22,3.39-1.64,5.11-4.88,5.13Z"/>
  <path class="uuid-0c086f4f-2134-4013-a1fd-f84df69ba83d" d="m477.73,819.19c-1.41.23-2.64-.4-3.71-1.61-2.06-2.32-1.23-6.78,1.61-7.99.72-.31,1.61-.21,2.42-.31,1.63-.2,2.85.48,3.89,1.69.62.72,1,1.49.99,2.45,0,.25,0,.49,0,.74.01,3.26-1.73,5.02-5.2,5.02Z"/>
  <path class="uuid-0c086f4f-2134-4013-a1fd-f84df69ba83d" d="m695.27,773.3c-1.3.17-2.48-.34-3.52-1.46-.92-.99-1.11-2.09-1.18-3.36-.1-1.74.57-3,1.84-4.07.66-.55,1.36-.9,2.22-.91.57,0,1.15-.03,1.72,0,2.36.12,4.09,1.89,4.19,4.27.01.33,0,.66,0,.98-.05,2.9-1.66,4.5-4.58,4.55-.16,0-.33,0-.69,0Z"/>
  <path class="uuid-0c086f4f-2134-4013-a1fd-f84df69ba83d" d="m594.84,805.68c.06,1.55-.49,2.73-1.64,3.73-.72.63-1.48,1-2.43.98-.49-.01-.98.01-1.48,0-2.7-.06-4.38-1.76-4.48-4.46-.06-1.53.15-2.88,1.36-4.02,2.38-2.26,6.4-1.88,8.05.97.46.79.42,1.87.61,2.81Z"/>
  <path class="uuid-0c086f4f-2134-4013-a1fd-f84df69ba83d" d="m550.35,812.65c.09,1.52-.41,2.72-1.58,3.72-.73.62-1.48,1.01-2.43,1.02-.41,0-.82.02-1.23.01-3-.05-4.64-1.77-4.77-4.74-.08-1.81.53-3.18,1.92-4.29,2.27-1.81,6.46-.98,7.67,1.64.36.78.3,1.75.43,2.64Z"/>
  <path class="uuid-0c086f4f-2134-4013-a1fd-f84df69ba83d" d="m285.39,762.76c-3.19-.01-4.97-1.83-4.95-5.06.02-3.14,1.9-4.76,5.17-4.89,2.53-.1,4.82,1.98,4.84,4.97.02,2.85-2.41,5.48-5.06,4.97Z"/>
  <path class="uuid-0c086f4f-2134-4013-a1fd-f84df69ba83d" d="m633.68,789.09c1.45-.29,2.63.5,3.65,1.68.56.65.88,1.37.87,2.24,0,.41-.04.83.01,1.23.22,1.66-.62,2.81-1.79,3.82-.65.56-1.37.87-2.24.86-.49,0-.98.02-1.48,0-2.55-.09-4.29-1.82-4.37-4.34,0-.25,0-.49,0-.74.02-3.07,1.64-4.72,4.64-4.76.16,0,.33,0,.7,0Z"/>
  <path class="uuid-0c086f4f-2134-4013-a1fd-f84df69ba83d" d="m522.96,819.36c-1.55.03-2.74-.49-3.78-1.6-.78-.83-1.24-1.72-1.22-2.85.01-.66-.02-1.32.06-1.97.22-1.77,2.03-3.47,3.82-3.62.49-.04.99.02,1.48-.03,2.01-.18,3.3.97,4.17,2.52.41.72.29,1.74.41,2.62.27,2.01-.86,3.31-2.38,4.25-.71.44-1.69.46-2.55.68Z"/>
</svg>