<?xml version="1.0" encoding="UTF-8"?>
<svg id="uuid-380870a2-d983-4e76-97b7-262eec9101e9" data-name="Layer 1" xmlns="http://www.w3.org/2000/svg" viewBox="0 0 1000 1000">
  <defs>
    <style>
      .uuid-1195e76c-7fbb-42ca-ad8a-7d8880569a2a {
        fill: #fff;
      }
    </style>
  </defs>
  <path class="uuid-1195e76c-7fbb-42ca-ad8a-7d8880569a2a" d="m625.54,551.38c.13-3.96-1-7.67-2.38-11.31-1.83-4.86-4.34-9.4-6.99-13.85-2.41-4.06-4.25-8.33-5.58-12.84-.99-3.38-1.44-6.82-1.18-10.33.19-2.62.83-5.1,2.36-7.3.45-.65.87-1.35,1.17-2.08,1.84-4.42,4.12-8.63,6.21-12.94.48-.98.92-1.99,1.28-3.02.94-2.66.65-5.1-1.51-7.12-.95-.88-1.88-1.79-2.9-2.59-2.59-2.03-5.22-4-7.83-6.01-.85-.66-.87-1.28,0-1.92,3.87-2.86,7.18-6.31,10.34-9.9,1.98-2.26,3.63-4.75,5-7.42,1-1.96,1.16-3.96.43-6.07-.39-1.14-.83-2.23-1.52-3.23-1.81-2.64-3.9-5.04-6.25-7.21-1.83-1.69-3.63-3.41-5.43-5.13-.8-.76-1.42-1.66-1.95-2.63-.46-.86-.58-1.65.1-2.48,1.32-1.62,2.55-3.32,3.92-4.9,2.15-2.49,4.47-4.83,6.54-7.38,1.69-2.08,3.72-3.89,4.99-6.31,2.07-2.3,3.86-4.82,5.51-7.42.64-1,1.18-2.09,1.61-3.19,1.2-3.09.54-4.32-2.69-4.69-2.52-.29-4.85-1.09-7.11-2.15-3.89-1.82-7.6-3.95-11.22-6.25-9.51-6.06-18.51-12.82-27.15-20.05-8.34-6.97-16.32-14.34-23.63-22.4-3.42-3.77-6.68-7.67-9.24-12.09-3.36-5.78-6.14-11.84-8.33-18.16.08-.29-.06-.48-.31-.62h0c-.21-.63-.42-1.27-.63-1.91h0c.04-.16,0-.3-.13-.41-.37-1.24-.74-2.49-1.11-3.73.05-.46-.06-.86-.4-1.18-.17-.77-.33-1.55-.5-2.32.12-.28-.01-.45-.24-.59-.66-2.81-1.32-5.62-1.98-8.43.06-.28-.04-.48-.27-.64-.03.07-.04.14-.04.2,0-.06.01-.13.04-.2-.1-.59-.21-1.18-.32-1.77-.08-.21-.16-.43-.24-.64-.18-.77-.36-1.54-.54-2.31.11-.27-.03-.44-.25-.57-.17-.67-.31-1.36-.51-2.02-2.49-7.99-6.41-15.23-11.57-21.79-1.37-1.75-2.41-3.62-3.34-5.62-1.72-3.7-3.43-7.42-5.41-10.99-2.61-4.7-5.49-9.25-8.71-13.58-4.41-5.93-9.03-11.65-14.55-16.62-11.33-10.22-24.42-16.73-39.62-18.7-6.25-.81-12.52-.89-18.75.22-.7-.13-1.38-.12-1.92.43-4.19.35-8.21,1.45-12.16,2.83-8.24,2.88-15.75,7.12-22.66,12.45-9.18,7.08-15.56,16.16-19.27,27.07-1.99,5.85-3.18,11.89-3.31,18.11-.04,1.79-.19,3.57-.3,5.35-.18.2-.24.42-.07.66.16,3.25.31,6.5.48,9.74.05.98.17,1.96.25,2.94-.26.43-.07.75.26,1.03.41,4.68,1.53,9.18,3.03,13.63,2.68,7.98,7.02,14.88,12.99,20.81,3.34,3.32,7.05,6.14,11.04,8.61,5.44,3.37,11.19,6.07,17.36,7.8,1.82.51,3.68.86,5.52,1.28.27.11.52.3.8.33,2.84.34,5.69.3,8.53.12.37-.02.72-.26,1.08-.4,7.05-.75,13.51-3.2,19.41-7.02,8.73-5.66,13.39-13.82,14.27-24.16.39-.36.39-.72,0-1.08.33-3.52-.36-6.92-1.3-10.28-.09-.21-.17-.43-.26-.64-2.89-8.46-8.47-14.55-16.44-18.51-.44-.53-1.04-.62-1.68-.61,0,0-.08-.03-.08-.03-.64-.66-1.47-.59-2.28-.61,0,0-.11-.03-.11-.03-2.19-.89-4.45-.57-6.69-.33-.15.02-.27.26-.4.41-.27.19-.54.39-.81.58-.47-.02-.88.08-1.16.49,0,0-.1.05-.1.05-.45.03-.85.15-1.09.57,0,0-.07.04-.07.04-.46.03-.86.18-1.11.59,0,0-.06.04-.06.04-.22.15-.44.3-.66.46-1.62.84-2.94,2.08-4.14,3.4-3.4,3.75-4.53,8.06-3.1,13.01.59,2.04,1.54,3.89,2.5,5.74.83,1.6,1.56,3.23,1.96,4.99.14.63-.42,1.18-1.07,1.06-2.24-.43-4.41-1.07-6.58-1.79-2.84-.95-5.63-2.03-8.25-3.49-6.67-3.72-11.71-8.89-14.39-16.16-1.58-4.27-2.31-8.66-1.83-13.2.6-5.62,2.28-10.94,5.22-15.77,7.28-11.93,17.55-19.38,31.78-20.73,3.91-.02,7.83-.03,11.74-.05,3.07.32,6.09.94,9.06,1.75,9.29,2.56,17.39,7.24,24.4,13.85,4.6,4.34,8.47,9.25,11.62,14.7,3.85,6.68,6.2,13.96,8.09,21.39.91,3.56,1.61,7.16,2.41,10.74-.13.19-.09.34.12.46.37,3.65,1.1,7.26,1.4,10.93.2,2.37.26,4.77.58,7.11.46,3.48.36,6.94.45,10.42.09,3.39-.38,6.74-.49,10.11-.13,3.99-.66,7.92-1.13,11.86-.33,2.75-.74,5.5-1.17,8.24-.66,4.21-1.05,8.46-1.82,12.66-.45,2.44-.74,4.9-1.13,7.35-.56,3.52-1.24,7.02-1.7,10.55-.37,2.75-1.01,5.48-1.02,8.28-.92,1.05-.91,2.37-1.06,3.66-.25,2.16-.52,4.33-.84,6.48-.47,3.14-.96,6.28-1.51,9.4-.35,1.96-.34,3.99-.73,5.91-.61,3.03-.54,6.12-1.11,9.15-.72,3.8-1.22,7.65-1.21,11.54,0,.1-.01.2-.03.3-.67,3.93-.65,7.92-.89,11.88-.19,3.08.09,6.18-.38,9.25-.2,1.3-.32,2.56,0,3.85.12.48.11.99.14,1.48.35,6.46-.36,12.94.46,19.39.05.38-.13.78-.19,1.17-.39,2.58-.01,5.17-.14,7.76-.03.65.34,1.11,1.04,1.24.87.16,1.61-.05,1.74-.68.28-1.31,1.25-2.28,1.63-3.5.88-2.77,2.33-5.28,3.7-7.78,2.16-3.95,3.86-8.07,5.59-12.2,2.46-5.88,3.7-12.17,6.02-18.09.14-.37.24-.76.35-1.14,2.75-9.45,5.3-18.97,8.5-28.29,1.82-5.29,4.13-10.35,7.08-15.11,1.1-1.77,2.17-3.55,3.05-5.44,0,0,0,0,0,0,.52-.16.72-.57.82-1.05.7-.8,1.37-1.63,2.11-2.39.4-.41,1.3-.07,1.38.49.1.77.14,1.55.2,2.32.57.18,1.04.48,1.46.85-.42-.36-.89-.66-1.46-.85-.07.69-.19,1.38-.2,2.07-.04,5.58-.07,11.14-.52,16.71-.5,6.09-1.88,11.97-3.3,17.86-.24.99-.71,1.83-1.65,2.39-1.38.82-2.43,2.05-3.6,3.14-1.98,1.84-3.6,4-5.29,6.09-3.2,3.94-6.33,7.94-9.49,11.91-.05.06-.04.21,0,.27.11.14.28.35.4.34.69-.1,1.38-.23,2.05-.41,2.49-.68,4.98-1.38,7.47-2.07.42-.12.84-.02,1.06.34.14.22.18.63.06.85-1.54,2.89-2.82,5.91-5.41,8.15-3.56,3.07-6.36,6.81-8.75,10.85.28.04.56.06.83.14.77.24,1.04.73.74,1.28-.1.17-.2.35-.32.5-4.84,6.47-10.04,12.63-15.55,18.53-1.77,1.89-3.6,3.73-5.46,5.54-1.84,1.79-3.76,3.51-5.64,5.27-1.67,1.57-3.31,3.17-5.01,4.72-.8.73-1.36.67-2.03-.11-.46-.53-.92-1.06-1.3-1.64-3.03-4.62-7.07-8.37-10.87-12.27-3.39-3.48-7.13-6.65-11.03-9.6-4.22-3.19-8.55-6.21-13.2-8.73-9.42-5.09-19.58-7.87-30.16-8.9-6.65-.65-13.36-.41-19.98.66-4.82.78-9.48,2.18-13.96,4.23-7.68,3.51-14.09,8.5-19.14,15.31-5.09,6.88-8.83,14.39-11.21,22.59-1.7,5.85-2.82,11.78-2.6,17.91.03.9.03,1.8-.02,2.69-.22,3.8.2,7.56.87,11.27.92,5.1,2.58,10.02,4.79,14.72,1.56,3.34,3.34,6.56,5.45,9.61,1.2,1.73,2.73,3.17,3.96,4.85,1.69,2.3,3.93,3.93,6.15,5.6,3.53,2.67,7.48,4.53,11.71,5.82,1.31.4,2.72.52,3.79,1.62.49.5,1.36.47,1.98.12,1.04-.58,2.13-.44,3.21-.42,2.84.05,3.01.25,3.07,3.09.11,5.17-.28,10.33.5,15.51.46,3.03.75,6.1,1.29,9.13,1.29,7.18,3.4,14.1,6.2,20.83,4.29,10.29,10.09,19.65,17.13,28.26.68.83,1.29,1.79,2.35,2.25,3.78,4.65,8.09,8.79,12.68,12.63,9.05,7.58,18.82,14.05,29.36,19.36,6.94,3.5,14.06,6.56,21.35,9.23,7.01,2.57,14.17,4.68,21.43,6.38,4.35,1.02,8.74,1.89,13.14,2.61,4.12.68,8.27,1.11,12.42,1.6,2.96.35,5.91.91,8.92.82.97.66,2.1.52,3.16.54,2.86.05,5.73,0,8.59-.01.1.04.2.06.3.05.61.47,1.33.35,2,.33,3.26-.11,6.52-.19,9.78-.39,2.86-.18,5.71-.5,8.56-.78.27-.03.51-.26.77-.4,3.33-.51,6.67-1.02,10-1.55.16-.03.29-.24.42-.37-.12-.45-.52-.57-.88-.71-11.78-4.56-23.46-9.36-34.93-14.64-8.32-3.83-16.51-7.9-24.12-13.06-6.14-4.16-11.74-8.88-16.24-14.81-2.23-2.94-4.01-6.16-5.72-9.42.01-1.04-.52-1.92-.85-2.85-2.2-6.35-3.44-12.84-3.43-19.59,0-4.68.3-9.32,1.03-13.96.82-5.25,2.18-10.32,4.41-15.12,3.64-7.85,9.14-14.19,16.27-19.12,6.89-4.76,14.52-7.86,22.55-10.03,6.53-1.76,13.15-3.01,19.9-3.69,5.55-.56,11.09-1.11,16.66-1.13,6.98-.02,13.97.05,20.95-.04,3.58-.05,7.15-.38,10.72-.59.1,0,.2-.02.3-.03,2.45-.38,4.91-.71,7.35-1.16,3.44-.64,6.8-1.56,9.85-3.34,3.05-1.78,5.18-4.29,6.1-7.78.26-.98.35-1.96.38-2.95Zm-106.61-170.24h0c-.34.13-.52.37-.51.74-.08.12-.13.25-.16.39-2.05,2.23-3.26,4.97-4.52,7.66-3.19,6.81-5,14.02-6.11,21.43-.46,3.04-.78,6.11-1.21,9.15-.33,2.36-.84,4.69-1.09,7.06-.38,3.57-1.08,7.07-1.84,10.56-.44,2.04-.86,4.08-1.39,6.1-.45,1.73-.75,3.49-1.09,5.25-.62,3.22-1.43,6.41-2.3,9.57-1.13,4.13-2.92,8.04-4.44,12.03-.03.09-.08.21-.15.25-.16.08-.37.2-.52.16-.13-.03-.32-.25-.32-.39.03-3.39.06-6.77.13-10.16.05-2.46.84-4.83.92-7.28.08-2.49.1-4.98.19-7.47.06-1.58-.06-3.19.68-4.69.21-.42.19-.97.22-1.46.29-4.58,1.33-9.03,2.26-13.5.87-4.18,1.77-8.35,2.73-12.5.72-3.1,1.58-6.16,2.35-9.24,1.4-5.59,2.76-11.2,4.19-16.78.54-2.11,1.23-4.19,1.9-6.28.31-.96.59-1.9.52-2.92h0c1.52-4.93,3.04-9.86,4.57-14.79,2.27-7.3,4.56-14.6,7.16-21.79.67-1.86.67-3.89,1.3-5.8.65-1.97,1.07-4.02,1.6-6.04.12-.46.23-1.06.82-1.09.83-.04.84.73.95,1.26.21,1.07.29,2.16.48,3.24.9,4.98,1.93,9.94,2.69,14.94.94,6.18,1.66,12.38,2.47,18.58,0,0,0,0,0,0-.17.23-.33.47-.5.7-4.86,3.57-8.78,8-11.99,13.09Zm-111.5,142.05c-3.57-2.53-7.47-2.9-11.68-2.22-2.94.47-4.93,1.99-6.27,4.5-1.34,2.51-2.28,5.19-3.34,8.06,3.43-.43,6.5-1.16,9.51-2.13,1.55-.5,3.11-.59,4.71-.69,1.5-.09,2.53.59,3.22,1.76.8,1.37,1.64,2.78,2.1,4.28,1.01,3.23,1.76,6.52,1.45,9.97-.11,1.23-.4,2.34-1.05,3.37-2.88,4.56-7.14,7.11-12.26,8.35-5.41,1.3-9.9-.71-14.04-3.99-2.69-2.13-4.76-4.81-6.66-7.58-1.7-2.48-2.36-5.47-3.28-8.3-1.57-4.83-1.61-9.85-1.13-14.8.48-4.96,1.99-9.7,4.41-14.14,2.22-4.06,4.91-7.73,8.24-10.92,3.33-3.19,7.11-5.74,11.25-7.79,3.77-1.87,7.72-3.2,11.84-4.01,4.91-.97,9.8-1.12,14.83-.58,5.38.58,10.56,1.83,15.76,3.18,3.38.88,6.63,2.14,9.83,3.47,6.18,2.55,12.05,5.71,17.54,9.55,1.55,1.08,3.05,2.23,4.5,3.44.88.73.87,1.52.04,2.3-1.01.95-2.11,1.82-3.2,2.69-3.43,2.72-6.89,5.4-10.3,8.15-1,.8-2.03,1.14-3.29,1.1-2.39-.08-4.79.04-7.18-.12-3.41-.23-6.25,1.01-8.78,3.12-1.3,1.08-2.47,2.32-3.64,3.54-1.19,1.23-1.64,2.71-1.15,4.4.3,1.05.61,2.1.91,3.15.32,1.15.19,2.07-.92,2.85-2.84,2.01-5.59,4.16-8.4,6.21-.47.34-1.05.55-1.61.72-.41.12-.76-.14-.94-.54-.08-.18-.12-.38-.13-.58-.1-2.83-1.02-5.48-1.93-8.1-1.68-4.86-4.74-8.69-8.93-11.66Z"/>
  <path class="uuid-1195e76c-7fbb-42ca-ad8a-7d8880569a2a" d="m505.79,465.01s.01-.02.02-.03c-.02,0-.03,0-.05,0l.04.03Z"/>
  <path class="uuid-1195e76c-7fbb-42ca-ad8a-7d8880569a2a" d="m324.03,385.24c.95,2.82,1.62,5.72,2.75,8.49,2.44,5.97,5.71,11.4,10,16.18,5.23,5.82,11.61,10,19.01,12.54,11,3.78,22,7.57,33.08,11.14,6.53,2.1,13.19,3.81,19.8,5.64,6.06,1.68,11.94,3.86,17.65,6.44,7.47,3.38,14.43,7.63,21.08,12.43,6.08,4.39,11.77,9.21,17.05,14.51,4.78,4.8,9.04,10.07,13.1,15.49.65.87,1.19,1.86,2.39,2.12l.02-.02s-.02.02-.02.02c.05.18.08.36.15.53.03.08.13.13.19.19.06-.15.2-.33.17-.46-.04-.15-.24-.26-.36-.39.07-1.04-.41-1.96-.79-2.85-1.24-2.93-2.49-5.87-3.93-8.71-2.21-4.35-4.26-8.77-6.68-13.02-1.43-2.51-2.9-4.99-4.39-7.46-1.33-2.22-2.67-4.43-4.14-6.56-2.88-4.18-5.9-8.27-9.25-12.09-2.43-2.77-4.9-5.51-7.52-8.09-2.19-2.16-4.6-4.11-6.96-6.09-11.26-9.41-24.04-15.85-38.21-19.58-5.67-1.49-11.38-2.81-17.19-3.68-5.41-.81-10.8-1.68-16.24-2.25-3.66-.38-7.31-.91-10.85-1.97-1.8-.54-3.58-1.26-5.26-2.09-2.44-1.21-4.45-2.97-6-5.25-.89-1.31-1.93-2.53-2.87-3.81-.15-.2-.2-.6-.1-.82.1-.21.44-.38.7-.42.71-.13,1.36.14,2.04.33,2.97.82,5.94,1.64,8.92,2.39,2.37.6,4.75.62,7.04-.33,5.28-2.18,9.71-5.47,12.91-10.25,1.12-1.67,1.93-3.49,1.71-5.59.61-1.54.61-3.17.18-4.7-.91-3.17-2.05-6.24-4.34-8.76-2.69-2.96-5.55-5.73-8.9-7.95-4.2-2.78-8.81-3.89-13.69-2.5-9.54,2.72-16.07,8.87-19.69,18.09-1.7,2.67-2.23,5.71-2.7,8.75-.42,2.66-.18,5.35-.08,8.03.03.8,0,1.64.24,2.37Zm155.93,104.96l.07-.06s-.05.04-.07.06Z"/>
  <path class="uuid-1195e76c-7fbb-42ca-ad8a-7d8880569a2a" d="m268.1,774.33c-1.71-8.07-5.29-15.18-11.1-21.07-3.46-3.5-7.41-6.3-12.2-7.75-.31-.4-.74-.5-1.22-.44-.2-.04-.4-.09-.6-.13-.5-.51-1.12-.55-1.78-.5,0,0-.08-.02-.08-.02-1.12-.6-2.29-.9-3.56-.57-.4-.03-.8-.05-1.19-.08-2.56-.86-5.16-.53-7.76-.29-.41.04-.63.42-.8.78-.97.21-1.95.38-2.9.64-7.41,2.08-13.03,6.7-17.69,12.6-5.08,6.43-7.73,13.88-8.51,21.94-.49,5.05-.4,10.16.71,15.14,1.22,5.47,3.19,10.67,6.35,15.36,3.46,5.13,7.78,9.29,13.4,12.02.27.13.54.26.79.43.38.25.34,1.06-.06,1.29-.25.15-.51.32-.79.38-3.76.93-6.49,3.31-8.9,6.18-1.43,1.7-2.33,3.7-3.51,5.53-.42.66-.76,1.22-.09,1.82.52.48,1.1.28,1.64-.07.17-.11.35-.2.51-.31,4.42-2.82,9.45-2.65,14.39-2.98.38-.03.78.14,1.17.21,4.34.82,8.33,2.58,12.27,4.48,2.33,1.12,4.68,2.2,7.12,3.07.3.54.7,1.1,1.32,1.12,2.26.07,4.56.6,6.74-.51,5.7-1.47,8.43-5.59,9.79-10.94.05-.19.03-.39.03-.59,0-.62-.71-1.12-1.25-.86-.72.34-1.39.78-2.11,1.11-1.83.83-3.74,1.57-5.76,1.12-2.22-.5-4.51-.57-6.68-1.37-2.34-.86-4.64-1.77-6.89-2.85-.98-.47-2.01-.85-3.02-1.27-.05-.5-.06-.97.6-1.08.74-.13,1.57.08,2.19-.55,8.1-.99,14.58-4.95,19.95-10.93,7.32-8.16,10.49-17.87,10.66-28.69.48-.57.52-1.12-.05-1.66.06-3.29-.41-6.53-1.09-9.74Zm-50.56,3.26c-.15.13-.23.26-.24.4,0-.14.09-.27.24-.4Zm32.34,16.02c0,.08-.04.17-.1.25.06-.08.09-.17.1-.25Zm-.32-.57h0c-.42.34-.43.69-.06,1.07-.77,8.2-2.62,16.09-6.7,23.33-.63,1.12-1.46,2.13-2.24,3.16-.36.47-.8.9-1.26,1.26-4.02,3.12-6.68,2.77-10.56.02-2.22-1.58-3.66-3.92-4.91-6.32-2.43-4.63-3.89-9.58-4.86-14.69-1.2-6.29-1.47-12.64-1.32-19.03.03-1.09,0-2.19.01-3.29h0c.47-.35.48-.71.05-1.1.68-6,1.63-11.95,3.66-17.68,1.06-2.99,2.23-5.92,3.95-8.61,1.08-1.68,2.28-3.23,3.89-4.44,0,0,0,0,0,0,.4.04.7-.09.86-.48-.29,0-.54.04-.71.24.17-.19.43-.24.71-.24.13-.01.26-.06.37-.12.41.1.73.04.78-.47-.13,0-.24.03-.35.07.11-.04.22-.07.35-.07.15-.07.29-.15.42-.26,1.35-.56,2.7-.61,4.04-.18-1.34-.43-2.69-.38-4.05.18,1.54.01,3.08.02,4.62.03.1.09.22.14.36.17,0,0,0,0,0,0,.15.44.47.51.88.39-.16-.23-.38-.33-.62-.37.24.04.46.14.62.37.11.11.24.19.38.24l.2.13c2.75,1.97,4.49,4.72,5.93,7.68,2.44,5.01,3.91,10.33,4.85,15.82.67,3.91.89,7.86,1.22,11.79-.53,1.76-.54,3.52,0,5.28-.17,2.04-.35,4.07-.52,6.11Zm.94-7.43c.09-.44.14-.88.14-1.32,0,.44-.05.88-.14,1.32Z"/>
  <path class="uuid-1195e76c-7fbb-42ca-ad8a-7d8880569a2a" d="m341.18,195.34c3.84,3.01,8.36,4.52,13.19,5.1,2.21.74,6.91.83,9.11.17.08-.03.15-.12.22-.19,2.5-.25,4.89-.94,7.24-1.78,9.54-3.4,16.43-9.58,20.03-19.19.17-.47.31-.95.5-1.4.26-.61.78-.91,1.42-.9.49,0,1.01.03,1.46.2,3.3,1.3,6.74,1.62,10.24,1.71,3.22.08,6.34-.6,9.49-1.06,3.38-.49,6.59-1.59,9.54-3.33,3.2-1.89,6.14-4.07,8-7.43.48-.86,1.2-1.58,1.87-2.32.43-.47,1.11-.43,1.59.06,1.11,1.14,2.17,2.34,3.31,3.45,3.29,3.2,7.23,5.43,11.63,6.46,5.75,1.35,11.64,1.54,17.53.85,2.29-.27,4.51-.79,6.57-1.86.53-.28,1.07-.53,1.63-.74,1.27-.48,1.83-.28,2.47.84.1.17.16.37.25.54,3.15,6.21,8.2,10.39,14.32,13.47,2.96,1.49,6.07,2.53,9.26,3.29,3.99.94,8.05,1.38,12.16.7,1.33.02,2.69.29,3.9-.53,0,0,.26-.07.26-.07.93.01,1.89.17,2.65-.58.11-.02.21-.07.3-.15.44.14.76-.03,1.01-.38.55-.22,1.13-.39,1.66-.66,3.76-1.92,7.13-4.28,9.65-7.77,2.32-3.2,3.72-6.74,4.49-10.59.4-1.99.44-3.93.08-5.91-1.31-7.24-7.27-13.34-15.02-14.66-1.41-.8-2.87-.59-4.34-.2-4.45-.09-7.91,1.88-10.45,5.38-2.43,3.34-2.88,6.95-.38,10.54,1.48,2.12,3.47,3.49,5.91,4.31,1.17.39,2.33.54,3.53.41,2.09-.23,4.52-2.29,4.94-4.23.05-.23-.1-.61-.29-.77-.18-.16-.57-.27-.79-.19-.65.23-1.25.63-1.9.85-1.29.42-2.61.48-3.66-.5-1.16-1.09-1.6-2.51-1.21-4.1.52-2.14,3-4.13,5.22-4.27,5.36-.33,10.61,4.37,10.76,9.8.07,2.55-.33,4.94-1.49,7.22-1.81,3.56-4.37,6.47-7.88,8.32-2.64,1.39-5.6,2.02-8.61,2.21-3.33.21-6.59-.49-9.7-1.46-3.96-1.24-7.66-3.09-10.91-5.87-3.83-3.26-6.5-7.12-8.05-11.9-.52-1.61-.36-2.68.94-3.63,2.34-1.72,4.34-3.81,6.48-5.74,1.11-.82,2.22-1.64,3.32-2.47.69-.52,1.02-1.23.94-2.08-.06-.59-.16-1.19-.3-1.76-.84-3.38-1.71-6.75-2.56-10.12-.46-1.84-.86-3.68-1.32-5.52-.43-1.75-.94-1.93-2.45-.84-.65.47-1.26.98-1.85,1.51-3.49,3.11-6.97,6.24-10.46,9.36q-2.12,1.89-1.41,4.79c.21.87.38,1.75.65,2.6.49,1.49.7,3.09,1.57,4.45.07.79.04,1.6.21,2.37.46,2.04-.47,3.47-1.92,4.68-.61.51-1.25.98-1.94,1.37-2.7,1.57-5.57,2.61-8.76,2.51-.22.04-.45.07-.67.11-1.95.02-3.9.44-5.86.2-.96-.68-2.03-.44-3.09-.36-8.16-1.32-14.05-5.63-17.44-13.23,0-.2.04-.42-.03-.59-.92-2.06-.4-3.81.93-5.55.96-1.26,1.7-2.69,2.48-4.07,1.95-3.47,3.7-7.06,5.86-10.39,1.25-1.92,1.16-3.46.07-5.21-.32-.51-.62-1.02-.95-1.51-2.35-3.46-4.69-6.91-7.05-10.36-2.42-3.53-4.85-7.05-7.29-10.56-.58-.83-1.06-.8-1.54.07-1.42,2.61-2.68,5.31-4.16,7.9-3.25,5.69-6.21,11.55-9.32,17.33-.33.61-.32,1.07.07,1.63,3.49,4.96,6.69,10.11,10.42,14.9,1.15,1.48,1.8,3.07,1.73,4.95-.03.89.02,1.79.04,2.68-1.14,3.23-2.93,6.1-5.23,8.59-3,3.24-6.98,4.78-11.2,5.74-2.92.66-5.89.82-8.87.8-.41-.2-.83-.2-1.25-.03-.79-.06-1.59-.1-2.38-.19-3.14-.37-5.96-1.47-8.36-3.61-1.29-1.15-2.1-2.37-1.49-4.18.18-.55.14-1.18.2-1.78.18-.46.45-.91.53-1.39.44-2.65.82-5.3,1.24-7.95.14-.9-.21-1.56-.88-2.08-1.34-1.04-2.66-2.1-4.05-3.07-2.45-1.72-5.01-3.26-7.37-5.12-1.32-1.04-2.83-1.85-4.29-2.72-.65-.39-1.18-.1-1.24.69-.23,3.08-1.29,6.04-1.22,9.15-.84,2.17-.48,4.52-1.07,6.76-.79,3.01-.24,3.92,2.48,5.64.32.21.73.28,1.1.42,2.34,1.69,4.61,3.47,7.03,5.03,1.67,1.08,2.27,2.45,1.9,4.29-.25,1.27-.68,2.49-.96,3.76-.79,3.63-2.92,6.55-5.3,9.2-2.12,2.36-4.77,4.21-7.49,5.89-3.9,2.41-8.21,3.64-12.73,3.77-5.47.16-10.39-1.36-14.27-5.55-1.79-1.93-3.19-4.11-4.31-6.42-1.33-2.77-1.62-5.8-.4-8.7,1.53-3.63,4.2-6.17,7.84-7.8,2.98-1.33,5.62-.82,8.14.94,1.76,1.22,2.69,2.93,2.49,5.11-.21,2.22-1.61,3.56-3.55,4.42-1.46.64-2.9.63-4.29-.22-.34-.21-.65-.46-1-.63-.13-.06-.39,0-.51.1-.13.11-.26.35-.24.5.06.38.18.77.34,1.12.78,1.77,2.3,2.67,4.02,3.33.45.5.98.62,1.59.34.42.01.84.03,1.26.04.64.28,1.21.25,1.66-.35.38-.12.76-.22,1.14-.36,4.88-1.83,6.88-5.74,7.55-10.58.07-.48,0-1-.14-1.47-1.32-4.72-4.21-7.97-8.89-9.68-2.73-1-5.44-.95-8.23-.57-3.64.49-6.94,1.77-9.76,4.13-2.79,2.32-5.03,5.1-6.58,8.39-.77,1.63-1.26,3.3-1.36,5.14-.12,2.22.25,4.32.76,6.46,1.43,5.97,4.81,10.67,9.54,14.38Z"/>
  <path class="uuid-1195e76c-7fbb-42ca-ad8a-7d8880569a2a" d="m611.7,787.71c-2.63-2.08-5.61-3.42-8.81-4.26-1.24-.33-2.54-.47-3.8-.75-.25-.05-.56-.28-.65-.51-.21-.5.26-.69.6-.82.93-.36,1.9-.6,2.81-1,4.45-1.95,8.52-4.39,10.85-8.92,2.73-5.31,2.87-10.68.25-16.05-1.45-2.97-3.88-5.02-6.78-6.53-5.96-3.11-12.39-4.17-19.03-4.32-.57-.02-1.15-.05-1.72-.07-.87-.71-1.91-.49-2.88-.49-8.88-.04-17.75-.06-26.63-.07-.5,0-1.01,0-1.49.11-.4.09-.69.44-.58.89.06.26.26.62.46.68.86.22,1.75.34,2.63.51,3.51.68,5.06,2.17,5.7,5.6.38,2.05.67,4.11.67,6.22-.03,17.64,0,35.29,0,52.93,0,2.19-.1,4.36-.55,6.53-.7,3.43-2.65,5.5-6.07,6.04-.69.11-1.4.07-2.08.21-.56.12-.75.59-.66,1.15.42.6,1.06.45,1.63.45,10.07-.02,20.15-.04,30.22-.08.99,0,2,.05,2.93-.44,5.17.28,10.11-.79,14.87-2.67,2.98-1.18,5.77-2.78,8.12-4.97,6.27-5.84,7.32-13.2,5.57-21.11-.74-3.35-2.86-6.07-5.61-8.25Zm-19.97-37.05c2.59,2.95,3.99,6.42,4.35,10.28.46,4.95-.22,9.73-2.56,14.19-.84,1.6-1.89,3.05-3.22,4.28-2.08,1.92-4.61,2.67-7.37,2.76-.73.03-1.09-.34-1.09-1.1-.01-3.09.01-6.18.02-9.27,0-2.59,0-5.18,0-7.77h-.06c0-5.58,0-11.16,0-16.74,0-1.27.42-1.66,1.61-1.47,3.41.53,6.09,2.31,8.33,4.86Zm7.86,55.06c-.11,1.92-.93,3.83-1.64,5.67-1.64,4.27-4.15,7.91-8.11,10.38-1.81,1.12-3.76,1.76-5.91,1.79-1.9.03-2.1-.11-2.11-1.93-.01-3.28,0-6.56.01-9.85,0-2.69,0-5.37,0-8.06h.01c0-5.87,0-11.74,0-17.6,0-1.89.02-1.7,1.92-2.46.53-.21,1.18-.23,1.76-.18,6.85.63,10.94,4.29,13.11,10.44,1.37,3.88,1.18,7.84.96,11.78Z"/>
  <path class="uuid-1195e76c-7fbb-42ca-ad8a-7d8880569a2a" d="m523.62,824.79c.2-.02.4-.01.59-.07.28-.08.58-.21.53-.58-.02-.17-.12-.4-.26-.48-.25-.15-.55-.23-.83-.31-2.33-.71-3.65-2.3-4.11-4.66-.17-.88-.39-1.74-.56-2.62-.61-3.22-1.04-6.46-1.38-9.72-.48-4.54-1.09-9.07-1.63-13.61-.42-3.6-1.39-7.02-3.23-10.16-1.37-2.35-3.12-4.4-5.46-5.84-3.54-2.17-7.36-3.48-11.55-3.59-1.69-.04-3.39.03-5.06-.33-.46-.1-1.05-.05-1.45.16-1.93,1.01-3.86,2.05-5.72,3.18-1.05.64-2.09,1.02-3.29.96-.46-1.05-.16-2.06-.26-3.04-.07-.63-.67-1.08-1.28-.88-.46.15-.92.37-1.31.65-1.29.93-2.46,2.07-3.84,2.83-5.98,3.29-12.21,5.76-19.25,5.16-.48-.04-.6.42-.56.85.06.7.54,1.1,1.15,1.2,3.21.51,4.69,2.67,5.53,5.55.7,2.41.98,4.87,1.03,7.35.07,3.19.02,6.38.02,9.57,0,3.48.05,6.96-.47,10.43-.32,2.15-.97,4.04-2.7,5.46-.96.79-2.06,1.16-3.27,1.34-.61.09-.75.57-.69,1.12.33.69.98.56,1.55.56,8.33,0,16.66,0,24.99-.02.29,0,.59-.08.88-.13t0,0c1.59.04,3.18.1,4.77.12.77.01,1.21-.69.98-1.45-.18-.6-.64-.73-1.15-.7-2.62.19-4.03-1.37-4.98-3.5-.86-1.92-1.31-3.95-1.3-6.07.02-7.76-.03-15.52.06-23.28.03-2.17.4-4.35.73-6.51.19-1.28.72-2.48,1.4-3.6,1.21-2,3.91-3.48,6.24-3.34,1.95.12,3.65.78,5.03,2.25,1.34,1.42,2.13,3.08,2.71,4.91.72,2.29.68,4.71,1.23,7.02.23.96.38,1.95.46,2.94.26,3.17.47,6.33.71,9.5.02.3.03.61.13.88.5,1.34.41,2.74.44,4.13.02.8-.11,1.64.11,2.38.71,2.29.2,4.55-.13,6.78-.42,2.89-2.01,4.92-4.93,5.72-.57.16-1.17.22-1.73.41-.46.15-.46.59-.44,1,.65.92,1.62.54,2.45.54,6.84.03,13.68.02,20.52,0,1.48,0,2.97-.07,4.45-.11,1.38-.11,2.77-.23,4.15-.34Z"/>
  <path class="uuid-1195e76c-7fbb-42ca-ad8a-7d8880569a2a" d="m343.61,822.8c.4-.24.73-.66.98-1.07.11-.19,0-.56-.12-.81-.06-.13-.33-.23-.5-.21-.29.02-.58.12-.86.21-2.38.76-4.24-.67-5.05-2.59-.39-.91-.72-1.86-.98-2.81-.55-2.04-.6-4.13-.6-6.23,0-10.86,0-21.73,0-32.59,0-.8.02-1.6,0-2.39-.04-1.05-.91-1.6-1.85-1.07-.95.53-1.89,1.15-2.66,1.9-1.91,1.84-4.22,2.98-6.6,4.01-2.47,1.07-5.05,1.83-7.68,2.42-1.2.03-2.44-.21-3.53.53-1-.02-2-.04-3-.06h0c-.39-.33-.75-.59-.87.21-.16.37-.21.74,0,1.1.23.66.76.67,1.33.61,2.54.42,3.99,2.12,4.84,4.36.63,1.67,1.06,3.39,1.17,5.21.39,6.57.24,13.12-.17,19.68-.31.36-.39.79-.33,1.25-.71,2.04-1.14,4.19-2.51,5.95-1.57.22-2.36,1.49-3.35,2.5,0,0-.15.08-.15.08-1.55.2-3.07.76-4.68.51-2.01-.98-3.78-2.24-4.68-4.38-.5-1.19-.92-2.42-1.27-3.66-.77-2.71-.75-5.52-.75-8.3,0-10.16,0-20.32,0-30.48,0-.7-.03-1.4,0-2.09.08-1.63-1.24-1.77-2.23-1.25-.87.46-1.7,1.07-2.42,1.74-2.15,2.03-4.74,3.3-7.42,4.36-4.37,1.71-8.87,2.9-13.64,2.53-.33-.03-.58.1-.69.4-.14.4-.06.78.22,1.11.35.4.85.48,1.34.58,2.25.47,3.68,1.89,4.51,3.96.66,1.66,1.14,3.37,1.29,5.18.33,4.08.29,8.15.3,12.24,0,2.29.03,4.58.72,6.8l-.08.19s.18.12.18.13c2,6.4,6.41,10.29,12.75,12.16,1.12.78,2.12,1.65,3.66,1.67,3.55.04,7.08-.12,10.59-.69.95-.15,1.97-.22,2.74-.95,2.15-.62,4.02-1.69,5.46-3.44.31-.38.69-.71,1.07-1.03.53-.45,1.07-.37,1.54.18.13.15.23.32.36.48,2.85,3.5,6.37,5.57,11.06,5.1.79-.08,1.58-.14,2.38-.2,1.13.08,2.26.2,3.25-.52.11,0,.22-.02.32-.07.76.09,1.5.08,2.1-.51.1,0,.2-.04.29-.1.59.09,1.11-.02,1.53-.48.89-.43,1.81-.82,2.67-1.32Z"/>
  <path class="uuid-1195e76c-7fbb-42ca-ad8a-7d8880569a2a" d="m396.42,810.67c.17-.36.41-.71.47-1.09.08-.51-.08-1.01-.6-1.25-.43-.2-.8.06-1.01.39-1.53,2.28-3.63,3.9-5.83,5.5-1.6,1.16-3.27,1.82-5.18,2.09-3.15.46-6.17-.26-9-1.41-5.76-2.33-9.11-6.89-10.86-12.73-.23-.78.05-1.12,1.07-1.37.29-.07.59-.08.89-.12.59.01,1.19.09,1.78.03,4.34-.46,8.67-.94,13.01-1.43.17-.02.33-.21.49-.31.29-.05.58-.1.87-.15,1.13.13,2.26.24,3.27-.49.75-.27,1.52-.47,2.24-.81,2.81-1.32,4.52-3.55,5.09-6.58.41-2.19.19-4.36-.7-6.44-1.42-3.32-3.79-5.83-6.8-7.73-3.88-2.44-8.14-3.66-12.74-3.62-2.66-.65-5.33-.62-8-.14-.08.01-.14.13-.21.19-.74.79-1.8.77-2.74,1.06-9.24,2.85-15.25,8.71-17.1,18.41-.43,2.26-.4,4.56-.41,6.85-.05.08-.14.16-.13.23.03.16.11.32.17.48.03.5.05.99.1,1.49.68,7.42,3.88,13.44,9.76,18.12,3.93,3.13,8.58,4.54,13.17,6.15.37.13.79.14,1.18.13,3.19-.06,6.38-.07,9.51-.85,8.33-2.06,14.59-6.68,18.23-14.58Zm-30.67-11.28c.07,0,.13-.02.19-.04-.06.03-.12.04-.19.04Zm-2.91-4.12c-.06.14-.09.29-.08.43-.01-.14.01-.28.08-.43Zm.77,3.69c-.35-.35-.39-.76-.24-1.21-.04-.41-.08-.83-.12-1.24.45-.59.48-1.16-.11-1.68-.29-3.17-.31-6.34.12-9.5.29-2.08.69-4.1,1.6-6.01.78-1.65,1.85-2.94,3.44-3.97,1.09-.71,2.1-1.02,3.31-.95,1.33.07,2.51.55,3.5,1.43.75.66,1.4,1.43,1.79,2.36.93,2.19,1.89,4.37,1.95,6.82.01.49.12.98.22,1.47,1.36,6.9-2.43,10.5-7.53,11.81-1.72.44-3.52.53-5.29.79t0,0c-.31-.06-.54.05-.72.3-.33.04-.67.07-1,.11h0c-.23-.08-.46-.15-.7-.23-.05-.11-.12-.21-.21-.29Zm.54.52c-.06-.02-.12-.05-.18-.09.06.04.12.07.18.09Z"/>
  <path class="uuid-1195e76c-7fbb-42ca-ad8a-7d8880569a2a" d="m448.97,816.89c1.88-2.23,3.36-4.69,4.37-7.43.08-.2-.08-.63-.27-.76-.18-.13-.54-.02-.82.01-.08.01-.18.1-.23.19-1.46,2.35-3.72,3.81-5.89,5.41-1.58,1.17-3.3,1.73-5.18,2.09-2.45.48-4.72-.46-7.06-.74-1.46-.17-2.82-.93-4.12-1.68-3.2-1.86-5.55-4.52-7.17-7.81-.57-1.16-1.02-2.38-1.41-3.61-.38-1.2-.03-1.68,1.17-1.84.39-.05.79-.06,1.19-.11,5.34-.62,10.69-1.23,16.02-1.88,1.68-.2,3.34-.54,4.9-1.27,5.63-2.62,6.45-8.8,4.42-13.23-1.9-4.14-5.15-6.99-9.29-8.87-3.32-1.51-6.79-2.24-10.43-2.19-2.55,0-5.11-.02-7.66-.03-.54.47-1.17.72-1.87.87-2.06.43-3.98,1.24-5.84,2.19-5.47,2.8-9.35,6.95-11.23,12.93-1.75,5.57-1.9,11.13-.53,16.78,1.42,5.85,4.61,10.48,9.38,14.13,3.72,2.83,8.09,4.22,12.35,5.87.36.14.78.15,1.18.15,4.71.02,9.36-.35,13.79-2.13,3.93-1.58,7.47-3.76,10.24-7.04Zm-29.27-22.08c-.12-1.38-.03-2.78-.03-3.92-.39-2.86.18-5.4.6-7.95.28-1.67.98-3.22,1.74-4.74.91-1.81,2.51-2.9,4.21-3.6,1.81-.75,3.73-.32,5.3,1.02,1.16.99,1.99,2.2,2.57,3.61,1.45,3.56,1.97,7.26,1.78,11.08-.15,2.93-1.6,5.04-4.05,6.55-1.82,1.13-3.87,1.53-5.92,1.92-.39.07-.8.19-1.18.13-1.47-.2-2.85.86-4.33.27-.24-1.46-.56-2.91-.68-4.38Z"/>
  <path class="uuid-1195e76c-7fbb-42ca-ad8a-7d8880569a2a" d="m732.34,809.61c.12-.28.13-.59-.14-.81-.34-.29-.76-.32-1.07-.02-.99.98-1.91,2.04-2.93,2.98-1.76,1.61-3.58,3.15-5.86,4.01-3.66,1.38-7.35.6-10.78-.51-6.15-2-9.69-6.72-11.59-12.75-.4-1.26-.09-1.71,1.13-1.84,4.05-.42,8.11-.81,12.16-1.28,2.57-.3,5.13-.65,7.67-1.13,1.66-.32,3.22-.95,4.57-2.08,3.59-3,4.45-7.73,2.24-12.2-1.48-3-3.79-5.4-6.63-7.15-3.61-2.22-7.54-3.56-11.86-3.59-1.69-.01-3.37-.14-5.06-.37-1.83-.25-3.77-.56-5.37.97-.39.37-1.11.38-1.67.61-1.66.67-3.4,1.2-4.94,2.08-7.26,4.15-11.56,10.19-11.63,18.8,0,1,0,1.99,0,2.99.03,0,.06,0,.1,0,0,2.09-.31,4.24.06,6.26.86,4.68,2.89,8.84,6.22,12.35,3.23,3.41,7.05,5.8,11.46,7.33.75.26,1.69.37,2.18.89,1.3,1.37,2.77,1.31,4.4,1.02,1.07-.19,2.17-.24,3.27-.3,4.75-.26,9.22-1.52,13.38-3.82,5.09-2.82,8.49-7.13,10.7-12.44Zm-33.51-11.62c-.2-.86-.23-1.77-.26-2.67-.04-1.39-.01-2.79-.01-4.19-.02-2.88-.28-5.79.61-8.6.39-1.23.83-2.45,1.29-3.65.8-2.1,2.52-3.39,4.42-4.24,1.81-.81,3.74-.43,5.35.83,1.19.93,2.17,2.07,2.68,3.53,1.16,3.31,1.91,6.67,1.9,10.21,0,4.1-1.98,6.79-5.59,8.36-1.82.79-3.78,1.24-5.78,1.41-.79.07-1.58.18-2.36.31-1.23.19-1.98-.17-2.25-1.31Z"/>
  <path class="uuid-1195e76c-7fbb-42ca-ad8a-7d8880569a2a" d="m675.27,808.74c-.14-.09-.43-.12-.55-.04-.31.22-.61.5-.84.8-1.86,2.56-4.48,4.2-7.13,5.78-1.3.77-2.72,1.11-4.27,1.14-2.5.04-4.95-.38-7.29-1.08-6.68-1.99-10.06-7.09-12.04-13.38-.22-.7.11-1.17.84-1.25,3.95-.43,7.9-.84,11.85-1.27,1.98-.21,3.97-.38,5.93-.7,1.46-.24,2.9-.68,4.33-1.09,2.88-.84,6.34-4.81,6.1-8.74-.15-2.48-.9-4.68-2.21-6.71-2.85-4.41-7.06-6.88-12.01-8.29-2.82-.81-5.72-.66-8.6-.78-2-.08-3.99-.13-5.93.4-1.82.49-3.67.97-5.41,1.69-6.73,2.78-11.39,7.52-13.51,14.59-.84,2.8-.99,5.68-.85,8.68-.17,3.3.08,6.64,1.31,9.89,1.93,5.09,5.07,9.16,9.53,12.31,3.48,2.46,7.56,3.48,11.36,5.16.43.19.98.14,1.47.13,3.58-.09,7.12-.28,10.64-1.23,8.14-2.2,13.96-6.97,17.32-14.71.12-.27.22-.55.24-.84,0-.16-.13-.39-.27-.48Zm-32.99-11.32c-.1-2.58-.66-5.12-.63-7.72.03-2.92.57-5.73,1.27-8.53.75-2.98,2.63-5.07,5.3-6.49,1.03-.55,2.17-.49,3.2-.2,1.65.47,3.06,1.33,3.94,2.96,1.82,3.4,2.87,6.97,2.59,10.3,0,1.16-.02,1.76,0,2.36.13,3.15-1.51,5.26-4.07,6.76-2.18,1.28-4.62,1.78-7.1,2.1-.69.09-1.39.08-2.08.19-2.1.32-2.36.22-2.44-1.72Z"/>
  <path class="uuid-1195e76c-7fbb-42ca-ad8a-7d8880569a2a" d="m351.88,461.83c-2.24,3.29-4.5,6.57-6.77,9.85-.92,1.33-.9,1.92.27,3.09.39.39.87.52,1.34.19.41-.28.78-.62,1.13-.97,1.97-1.98,4.05-3.83,6.23-5.58,3.58-2.88,7.29-5.58,11.34-7.74,7.61-4.06,15.58-7.03,24.28-7.81,7.16-.64,14.3-.89,21.45.1,4.74.66,9.4,1.6,13.94,3.13,1.59.53,3.2,1.03,4.73,1.52.76-.67.77-1.53.97-2.28.35-1.28.08-1.77-1.26-2.25-3-1.07-6.01-2.1-9.03-3.12-7.74-2.61-15.49-5.19-23.22-7.8-6.04-2.04-12.06-4.13-18.08-6.2-7.25-2.48-14.5-4.97-21.75-7.44-3.3-1.12-6.61-2.21-9.91-3.34-.7-.24-1.33-.34-2,.07-.48.3-.71.85-.42,1.25.23.32.5.62.76.91,4.9,5.51,9.79,11.02,14.69,16.53,1.94,2.18,1.95,2.2.36,4.55-3.01,4.46-6.03,8.9-9.06,13.34Z"/>
  <path class="uuid-1195e76c-7fbb-42ca-ad8a-7d8880569a2a" d="m469.56,408.69c-2.24-4.17-5.05-7.91-8.45-11.15-3.48-3.31-7.5-5.94-11.76-8.16-1.75-.91-3.62-1.62-5.68-1.65-5.24-.08-10.88,4.59-11.5,10.62-.5,4.9,1.24,9.2,4.15,13.04.96,1.26,2.22,2.29,3.31,3.46,1.6,1.72,3.54,2.93,5.7,3.74,2.81,1.05,5.48,2.39,8.13,3.78,5.13,2.71,9.86,6,14.12,9.97,4.11,3.83,7.48,8.24,10.63,12.85.21.31.46.6.93,1.2.52-1.44-.09-2.35-.25-3.31-.79-4.7-1.58-9.41-2.5-14.09-1.39-7.06-3.39-13.91-6.82-20.3Z"/>
  <path class="uuid-1195e76c-7fbb-42ca-ad8a-7d8880569a2a" d="m488.26,406.44c-.65-3.64-1.22-7.16-1.92-10.66-1.06-5.26-2.16-10.52-3.36-15.75-.28-1.22-.22-2.61-1.21-3.61-.04-1.52-.69-2.9-.97-4.36-1-5.3-2.55-10.44-4.25-15.54-1.15-3.45-2.93-6.57-5.07-9.44-5.98-8.03-14.04-13.15-23.55-16.04-2.28-.69-4.65-1.08-7.08-.85-6.35.61-10.9,3.96-14.27,9.2-1.98,3.08-2.17,6.39-1.16,9.75,1.37,4.54,3.84,8.51,6.96,12.07,1.91,2.18,4.14,4.03,6.4,5.83,3.5,2.78,7.03,5.54,10.55,8.31.22.32.38.72.67.96,4.96,4,9.93,7.99,14.92,11.95,4.36,3.47,8.78,6.87,13.12,10.37,2.79,2.25,5.48,4.61,8.21,6.93.58.49,1.11,1.04,2,.88Z"/>
  <path class="uuid-1195e76c-7fbb-42ca-ad8a-7d8880569a2a" d="m861.9,863.19c.05-3.23.54-3.77,3.7-4.21.29-.04.59-.09.84-.22.13-.07.16-.32.23-.49-.16-.4-.47-.58-.88-.57-1.43.03-2.86.07-4.29.1-.49-.06-.98-.18-1.47-.17-.89,0-1.85-.1-2.66.18-.95.34-.7,1.55-1.11,2.32-.88,1.67-1.57,3.44-2.38,5.15-.59,1.24-.93,2.63-2.13,3.53-.28.21-.38.67-.5,1.04-1.58,5.06-4.27,9.63-6.3,14.49-.14.33-.34.75-.85.67-.46-.07-.61-.47-.77-.82-.96-2.07-1.89-4.14-2.85-6.21-2.67-5.78-5.33-11.57-8.04-17.34-.41-.87-.59-1.93-1.57-2.45-.26-.31-.6-.48-1-.47-1.24.03-2.48.08-3.72.13-1.37-.37-2.76-.27-4.15-.15-.14.01-.33.19-.39.33-.16.38.15.55.42.64.27.1.59.07.88.12,2.41.37,3.15,1.09,3.35,3.38.12,1.49.13,2.98.18,4.47.1.14.18.28.23.43.08.21.1.42.06.63.04-.21.02-.42-.06-.63-.05-.14-.13-.28-.23-.43-.32.56-.31,1.12-.02,1.69-.12.47-.24.93-.35,1.4l-.21.14s.19.17.19.17c.55,2.14.51,4.33.49,6.52-.03,3.68.13,7.37-.08,11.04-.19,3.48-.71,4.65-4.14,5.04-.19.02-.37.14-.54.23-.06.04-.1.14-.12.22-.06.25.03.39.26.43.1.02.19.07.29.07,3.48-.06,6.95-.12,10.43-.19.09,0,.21-.04.26-.1.05-.07.05-.19.05-.29,0-.08-.03-.18-.08-.25-.29-.35-.72-.27-1.1-.34-2.36-.42-3.06-1.16-3.26-3.48-.06-.69-.04-1.39-.05-2.09-.02-3.18-.03-6.37-.05-9.55.82-.65.25-1.19-.13-1.75,0-3.4.24-6.81-.05-10.21.15-.12.21-.28.16-.47.42-.1.78-.05.99.39.88,1.79,1.79,3.56,2.62,5.37,2.97,6.42,6.2,12.71,8.77,19.31.36.93.81,1.82,1.27,2.7.12.23.43.49.65.49.23,0,.57-.25.67-.48,1.06-2.25,2.08-4.52,3.13-6.78,1.51-3.25,3.31-6.4,4.47-9.77,1.21-3.51,3.01-6.72,4.39-10.13.22-.54.62-1.01.99-1.47.17-.22.5-.4.78-.19.21.16.46.44.46.67-.01,1.19-.15,2.38-.15,3.57-.02,5.38-.02,10.76.01,16.15,0,1.39.17,2.76,0,4.16-.27,2.19-1.27,3.38-3.42,3.9-.53.13-1.22-.19-1.55.54.16.08.31.23.46.23,4.38-.04,8.76-.09,13.14-.15.1,0,.22-.02.28-.08.06-.05.06-.18.07-.27,0-.09,0-.21-.05-.25-.6-.47-1.34-.23-2.01-.4-1.53-.38-2.23-1.08-2.42-2.64-.12-.99-.16-1.99-.16-2.98.02-5.77.06-11.54.09-17.3.01-2.09-.01-4.19.02-6.28Z"/>
  <path class="uuid-1195e76c-7fbb-42ca-ad8a-7d8880569a2a" d="m542,858.81c-2.54-.6-5.12-.86-7.67-1.02-4.77-.29-9.57-.16-14.35-.19-.29,0-.6.03-.88.12-.14.05-.31.24-.33.39-.02.15.09.43.21.47.37.13.76.19,1.15.23,2.39.25,3.16.95,3.46,3.24.05.39.04.8.04,1.19,0,8.37,0,16.74-.01,25.12,0,.69-.1,1.39-.25,2.06-.27,1.19-.99,1.92-2.28,1.98-.59.03-1.19.08-1.77.2-.27.06-.55.3-.43.65.04.14.28.29.43.29,2.89.02,5.78.01,8.67.01,4.08,0,8.17.1,12.21-.71,5.86-1.18,10.27-4.24,12.61-9.86,2.04-4.91,2.02-9.9.04-14.84-1.99-4.96-5.55-8.11-10.83-9.35Zm4.24,26.29c-2.48,4.32-6.3,6.86-11.51,6.57-1.66-.09-3.28-.66-4.98-.61-.65.02-1.1-.48-1.18-1.14-.09-.69-.07-1.39-.07-2.08,0-4.08,0-8.15,0-12.23h0c0-3.98,0-7.95,0-11.93,0-.69,0-1.39.06-2.08.04-.55.38-1.01.91-1.01,1.6-.01,3.11-.53,4.67-.67,6.58-.6,11.97,4.43,13.19,8.72,1.59,5.62,1.91,11.24-1.09,16.47Z"/>
  <path class="uuid-1195e76c-7fbb-42ca-ad8a-7d8880569a2a" d="m320.08,892.57c-.58-.14-1.18-.17-1.75-.3-1.8-.41-2.54-1.23-2.75-3.04-.07-.59-.06-1.19-.06-1.79,0-7.66,0-15.32.01-22.98,0-.79.07-1.59.13-2.38.11-1.43.82-2.42,2.22-2.86.77.1,1.54.26,2.21-.33.26-.24.3-.52.13-.83-1.16.04-2.31.08-3.47.12,1.16-.04,2.31-.08,3.47-.12-.35-.41-.83-.45-1.32-.44-1.16.03-2.31.08-3.47.12h0c-2.97-.39-5.96-.07-8.94-.15-.19,0-.41.05-.55.16-.13.1-.24.31-.23.46.01.17.16.44.28.46.58.1,1.18.1,1.77.19,1.99.29,2.76,1.11,2.77,3.16,0,4.08-.05,8.16-.08,12.24-1.73.06-3.46.12-5.2.18.42.2.84.34,1.25.44.42.09.84.14,1.26.14-.42,0-.84-.04-1.26-.14s-.84-.24-1.25-.44c-1.16-.33-2.36-.21-3.54-.22-2.18-.02-4.35.01-6.53-.03-.95-.02-1.24-.31-1.24-1.27-.02-3.36.05-6.73-.01-10.09-.03-1.83.68-3.03,2.41-3.63.77.13,1.54.26,2.21-.31.25-.24.3-.51.14-.82-.35-.41-.83-.45-1.32-.43-1.16.04-2.32.08-3.48.13-3.07-.39-6.16-.11-9.24-.13-.09,0-.18.07-.27.1-.23.07-.34.22-.26.46.06.17.16.45.28.47.58.1,1.18.11,1.77.2,1.96.28,2.78,1.16,2.79,3.16.02,9.06,0,18.11.03,27.17,0,1.43-.43,2.51-1.71,3.21-1.02.05-2.11-.29-3,.53.05.66.54.76,1.05.75,4.27-.03,8.55-.08,12.82-.13.1,0,.22,0,.29-.06.14-.11.32-.24.35-.38.03-.15-.08-.44-.19-.48-.36-.13-.76-.17-1.14-.24-2.7-.49-3.47-1.27-3.48-3.9-.02-3.88.05-7.75.08-11.63,2.85-.04,5.69-.06,8.54-.11.86-.02,1.79.2,2.52-.52,1.28-.03,2.56-.1,3.84-.09,1.29.01,1.57.26,1.58,1.56.04,3.94,0,7.89.03,11.83,0,1.34-.63,2.23-1.74,2.86-1.01.08-2.1-.3-2.98.53-.27.54.1.75.5.75,4.47-.02,8.95-.08,13.42-.13.1,0,.19-.06.29-.07.26-.03.38-.17.31-.42-.05-.17-.13-.45-.25-.47Z"/>
  <path class="uuid-1195e76c-7fbb-42ca-ad8a-7d8880569a2a" d="m792.21,859.51c-2.32-1.5-4.92-2.09-7.61-2.41-2.53-.3-4.92.07-7.14,1.4-.68.41-1.46.64-2.18.97-3.01,1.37-5.31,3.51-6.69,6.52-3.1,6.76-3.06,13.48.45,20.08,1.39,2.6,3.35,4.66,6.16,5.83,1,.42,1.96.98,2.87,1.58.78.52,1.57.8,2.51.75.79-.05,1.59,0,2.83,0,5.84.4,10.84-3.18,13.73-6.94,2.19-2.85,3.36-6.1,3.64-9.64.6-7.65-1.95-13.86-8.57-18.14Zm1.19,26.09c-1.37,2.93-3.63,4.94-6.39,6.46-.26.14-.55.24-.84.3-2.9.6-8.76-.4-10.88-3.98-1.02-1.73-1.97-3.47-2.46-5.41-1.22-4.8-1.27-9.63-.11-14.45.59-2.45,1.56-4.73,3.38-6.55,3.98-3.96,10.71-4.97,15.16.55,1.9,2.36,3.22,5.02,3.48,8.11.16,1.88.31,3.77.46,5.65-.04,3.22-.41,6.35-1.8,9.32Z"/>
  <path class="uuid-1195e76c-7fbb-42ca-ad8a-7d8880569a2a" d="m404.12,860.63c-2.46-2.02-5.32-3.12-8.44-3.51-2.8-.35-5.55-.2-8.07,1.32-.59.36-1.25.63-1.89.89-3.53,1.44-5.92,4.06-7.34,7.48-2.68,6.43-2.44,12.84.71,19.07,1.24,2.46,3.12,4.37,5.54,5.71,1.22.67,2.48,1.27,3.7,1.94.89.49,1.8.81,2.84.71.69-.06,1.4-.01,2.09-.01v.07c1.39-.11,2.84,0,4.16-.36,3.85-1.02,7.14-3,9.63-6.19,3.46-4.42,4.35-9.45,3.8-14.92-.51-5.08-2.86-9.04-6.73-12.22Zm.76,21.17c-1.04,5.03-3.79,8.68-8.62,10.65-1.15.44-1.88.6-2.65.47.77.13,1.5-.03,2.65-.47-1.4-.03-2.79-.06-4.19-.08-.17-.11-.33-.28-.5-.3-3.86-.43-5.83-3.11-7.37-6.25-1.07-2.17-1.53-4.54-1.76-6.91-.33-3.48-.2-6.97.59-10.39.45-1.96,1.26-3.78,2.45-5.4,2.55-3.45,6.1-4.71,10.2-4.23,2.46.29,4.4,1.84,5.89,3.78,1.84,2.4,3.09,5.04,3.41,8.14.38,3.68.65,7.34-.1,10.99Z"/>
  <path class="uuid-1195e76c-7fbb-42ca-ad8a-7d8880569a2a" d="m599.26,858.35c-4.03-1.61-8.25-2.36-12.35.06-.51.3-1.06.57-1.62.77-3.73,1.33-6.12,4.06-7.63,7.56-2.69,6.19-2.58,12.37.38,18.49,1.44,2.98,3.51,5.28,6.57,6.66.9.41,1.87.75,2.57,1.5.59.64,1.36.79,2.17.82.9.02,1.8,0,2.8,0,1.29-.07,2.72.02,4.07-.26,4.5-.92,8.12-3.35,10.68-7.12,3.5-5.15,4.31-10.81,2.67-16.83-1.52-5.59-4.99-9.54-10.29-11.66Zm4.24,25.67c-1.17,3.31-3.22,5.9-6.32,7.62-.89.49-1.81.74-2.83.8-2.03.13-3.94-.46-5.84-.95-1.79-.47-3-1.97-3.98-3.47-1.49-2.27-2.35-4.81-2.71-7.51-.15-1.18-.3-2.36-.44-3.55-.05-.39-.11-.8-.08-1.19.29-3.46.53-6.93,1.9-10.2,1.78-4.26,5.08-6.6,10.24-6.79,2.93-.11,5.23,1.3,6.99,3.43,1.9,2.3,3.35,4.85,3.73,7.98.24,1.98.48,3.93.48,6.36.19,2.28-.24,4.91-1.14,7.47Z"/>
  <path class="uuid-1195e76c-7fbb-42ca-ad8a-7d8880569a2a" d="m728.54,756.03c.6.52,1.18,1.08,1.68,1.7,2.27,2.77,2.73,6.43-.58,9.25-.3.26-.66.48-.87.8-.13.2-.1.57-.03.83.03.14.3.3.46.31.39.02.82.05,1.17-.1,2.03-.83,4.03-1.71,5.79-3.06,4.58-3.53,7.12-8.21,7.8-13.91.25-2.11.07-4.22-.68-6.18-1.19-3.11-3.14-5.56-6.65-6.24-.97-.19-1.97-.21-2.89-.31-.94.26-1.97-.3-2.68.37-1.24,1.15-2.78,1.92-3.91,3.23-2.29,2.65-2.85,6.33-1.36,9.46.69,1.45,1.51,2.8,2.74,3.87Z"/>
  <path class="uuid-1195e76c-7fbb-42ca-ad8a-7d8880569a2a" d="m467.5,857.87c-1.88-.13-3.77-.28-5.66-.31-1.69-.03-3.38.09-5.07.15-.25,0-.37.19-.3.43.05.17.12.42.25.48.26.12.58.21.86.19,2-.17,2.87,1.19,3.47,2.7.31.8.27,1.76.27,2.65.02,5.28.04,10.57,0,15.85,0,1.16.33,2.36-.23,3.49-1.41-.14-1.65-1.49-2.35-2.35-.4-.49-.95-.72-1.4-1.09-.54-.44-1.06-.93-1.28-1.62-.18-.59-.52-1.06-.92-1.51-3.85-4.31-7.38-8.89-11-13.4-1.25-1.55-2.53-3.08-3.81-4.6-.59-.71-1.3-1.21-2.29-1.22-2.19-.04-4.38-.12-6.58-.16-.39,0-.79.07-1.16.18-.13.04-.27.28-.27.44,0,.16.12.43.25.47.37.12.77.18,1.16.21,1.67.14,3.02.92,4.23,2.01.86.77,1.37,1.65,1.3,2.87-.12,1.98-.22,3.97-.22,5.96,0,5.98.07,11.96.1,17.94,0,.5.02,1-.04,1.49-.23,1.85-1.09,2.77-2.99,3.23-.39.09-.79.1-1.17.21-.15.04-.31.26-.34.42-.07.35.2.59.48.58,3.49-.01,6.98-.05,10.46-.1.29,0,.56-.24.49-.58-.03-.16-.21-.38-.35-.41-.58-.12-1.18-.15-1.77-.26-1.33-.27-2.08-1.15-2.3-2.44-.12-.68-.09-1.39-.09-2.09,0-3.19,0-6.38,0-9.57-.04,0-.09,0-.13,0,0-3.39,0-6.78,0-10.17,0-.49.04-.99.17-1.46.08-.29.47-.43.72-.24.39.29.72.67,1.03,1.04,3.86,4.69,7.73,9.38,11.57,14.09,1.76,2.16,3.6,4.27,5.21,6.54,1.32,1.88,2.78,3.63,4.23,5.41.24.29.52.71.97.39.2-.14.33-.48.35-.73.05-.69.02-1.39.02-2.09,0-8.77,0-17.55,0-26.32,0-1.09-.05-2.19.25-3.27.29-1.05.87-1.78,1.94-2.07.67-.18,1.36-.32,2.02-.52.13-.04.27-.31.25-.45-.02-.16-.21-.41-.34-.41Z"/>
  <path class="uuid-1195e76c-7fbb-42ca-ad8a-7d8880569a2a" d="m258.26,876.66c-1.3-.91-2.7-1.68-4.07-2.5-2.48-1.47-5-2.89-7.45-4.42-.92-.57-1.8-1.29-2.5-2.1-2.11-2.46-1.3-6.07,1.62-7.53.44-.22.97-.27,1.39-.52,2.77-1.64,5.25-.52,7.45,1.06,2.23,1.6,3.69,3.89,4.06,6.72.05.39.12.8.29,1.15.11.22.4.44.64.48.35.06.52-.28.52-.58.02-1.69.01-3.38.01-5.08h-.04c0-1.69.01-3.39-.01-5.08,0-.27-.04-.6-.42-.71-.34-.1-.62.03-.76.26-.86,1.46-2.02,1.29-3.37.79-1.49-.55-3-1.14-4.55-1.38-2.44-.37-4.96-.73-7,1.31-.34.34-.83.57-1.29.74-1.1.42-1.72,1.3-2.38,2.18-.88,1.18-.97,2.55-1.09,3.95-.29,3.38.96,5.99,3.64,8.02,1.67,1.26,3.42,2.4,5.24,3.44,1.9,1.09,3.75,2.27,5.65,3.34,2,1.13,3.35,2.7,3.94,4.97.47,1.79-.04,4-1.51,5.12-1.94,1.48-4.03,2.49-6.62,2.07-.81-.13-1.49-.5-2.25-.71-3.75-.99-5.93-3.46-6.72-7.22-.12-.58-.29-1.15-.5-1.7-.04-.11-.34-.21-.49-.18-.14.03-.26.22-.36.36-.05.07-.04.19-.04.29-.13,3.47.32,6.94,0,10.42,0,.11.24.32.39.34.16.03.47-.08.5-.19.55-2.13,2.11-1.77,3.58-1.4.85.22,1.69.61,2.46,1.06.98.57,1.98.85,3.12.77.99-.07,1.99,0,2.99-.03,3.4-.09,6.17-1.54,8.22-4.19,1.88-2.42,2.38-5.19,1.53-8.18-.63-2.22-1.99-3.89-3.83-5.18Z"/>
  <path class="uuid-1195e76c-7fbb-42ca-ad8a-7d8880569a2a" d="m216.88,892.5c-2.63-.37-3.84-2.27-4.84-4.41-.38-.81-.72-1.64-1.07-2.46-3.68-8.81-7.36-17.63-11.05-26.44-.23-.55-.5-1.08-.79-1.6-.18-.33-.86-.3-1.01.05-.72,1.63-1.52,3.24-2.06,4.94-.55,1.72-1.19,3.39-2.07,4.94-.69,1.21-1.22,2.48-1.75,3.75-2.28,5.4-4.55,10.82-6.89,16.19-1,2.29-2.12,4.54-4.84,5.3-.13.04-.27.33-.25.48.02.14.25.33.4.35,3.18.41,6.34-.33,9.51-.25.22,0,.32-.18.26-.43-.02-.08-.07-.21-.13-.23-.37-.13-.74-.23-1.11-.33-2.19-.58-2.76-1.38-2.12-3.39.78-2.46,1.64-4.9,3.24-6.99.18-.07.36-.17.54-.25-.18.08-.36.18-.54.25,2.39.04,4.78.07,7.17.11.41,0,.78-.12,1.07-.43.99-.06,1.98-.16,2.98-.17,2.48-.03,2.67-.16,3.69,2.49.5,1.3,1.08,2.57,1.59,3.86.22.55.41,1.13.5,1.71.25,1.64-.42,2.55-2.13,2.94-.29.07-.6.05-.88.14-.15.05-.32.24-.37.4-.13.42.25.52.51.51,4.08-.01,8.16-.04,12.24-.09.31,0,.57-.21.55-.54,0-.15-.21-.39-.35-.41Zm-14.83-12.58c-1.09.03-2.2.13-3.27-.03-1.97-.3-3.93-.44-5.92-.36-1.41.06-1.79-.54-1.12-1.87,1.75-3.46,2.69-7.24,4.32-10.74.12-.26.11-.58.17-.87,0,0,0,0,0,0,.4-.12.81-.24,1.21-.37.07.1.17.19.28.25.36.27.66.57.75.98-.09-.41-.39-.71-.75-.98-.2.72.13,1.16.76,1.43.94,3.35,2.67,6.4,3.84,9.66.2.56.46,1.1.62,1.67.18.63-.23,1.21-.9,1.23Z"/>
  <path class="uuid-1195e76c-7fbb-42ca-ad8a-7d8880569a2a" d="m744.14,885.33c-.13-.07-.43-.01-.54.1-1.19,1.2-2.28,2.52-3.55,3.63-2.84,2.48-6.05,3.69-9.86,2.5-.47-.15-.97-.22-1.46-.23-2.13-.04-3.8-1.07-5.33-2.4-2.03-1.75-3.17-4.04-3.95-6.56-.66-2.13-.65-4.32-.6-6.51,0-.9-.05-1.8,0-2.69.25-3.75,1.31-7.22,3.59-10.27,1.11-1.49,2.55-2.53,4.28-3.1,1.78-.58,3.63-1.11,5.5-.96,2.38.19,4.7.62,6.52,2.48,1.56,1.6,2.88,3.29,3.6,5.42.19.56.43,1.12.69,1.65.06.12.32.18.5.21.24.04.4-.1.41-.34.02-.49.1-1,0-1.48-.52-2.66-.46-5.35-.58-8.04-.01-.3-.02-.6-.1-.88-.05-.16-.21-.35-.37-.41-.15-.06-.39-.03-.54.05-.16.09-.27.29-.39.44-1.52,1.86-1.63,1.92-3.67.91-3.22-1.6-6.66-1.92-10.17-1.85-.39,0-.8.09-1.15.25-1.9.86-3.81,1.72-5.67,2.66-2.28,1.14-4.12,2.86-5.29,5.09-1.92,3.64-3.2,7.48-3.04,11.71.23,6.31,2.83,11.28,8.04,14.88.9.62,1.85,1.13,2.69,1.87.89.79,2.09,1.03,3.34.92,1.29-.12,2.58-.18,3.87-.19,6.08-.05,10.29-3.16,13.4-8.1.16-.25.15-.6-.16-.75Z"/>
  <path class="uuid-1195e76c-7fbb-42ca-ad8a-7d8880569a2a" d="m158.16,857.81c-.39-.06-.79-.06-1.19-.07-7.28-.05-14.56-.11-21.84-.15-.49,0-.99.06-1.48.1-.26.02-.38.18-.28.42.07.17.16.39.31.46.26.12.57.17.86.22,2.73.44,3.38,1.15,3.49,3.85.02.4,0,.8,0,1.2,0,7.98,0,15.95,0,23.93,0,.5,0,1-.01,1.5-.09,2.12-.59,2.72-2.68,3.38-.51.16-1.24-.12-1.49.64.27.38.68.3,1.04.3,2.09.02,4.19.05,6.28.03,1.89-.02,3.79-.09,5.68-.16.27-.01.62-.11.57-.5-.04-.32-.28-.49-.6-.52-.3-.03-.6-.04-.89-.1-2.09-.43-2.93-1.34-2.98-3.44-.08-3.49-.07-6.98-.09-10.47,0-.3.03-.6.08-.89.06-.43.31-.79.73-.82,2.28-.13,4.49-.87,6.81-.62,1.7.19,2.72,1.09,3.25,2.64.16.46.21.97.36,1.43.04.12.32.25.46.23.13-.02.33-.24.33-.37.01-1.79,0-3.59,0-5.38,0-1.59,0-3.18-.01-4.78,0-.26-.15-.4-.39-.32-.17.06-.38.16-.45.3-.13.26-.16.57-.24.85-.73,2.39-1.55,3.09-4.03,3.15-1.89.04-3.78-.07-5.67-.16-.86-.04-1.21-.41-1.21-1.36-.02-3.69-.02-7.38,0-11.06,0-.86.38-1.18,1.35-1.2,2.58-.06,5.16.12,7.73-.23.2-.03.4-.01.6,0,2.46.2,4.44,1.12,5.37,3.6.14.37.31.74.5,1.09.18.33.34.77.87.51.31-.15.33-.45.33-.75-.05-1.69-.08-3.39-.18-5.08-.05-.83-.51-1.29-1.29-1.4Z"/>
  <path class="uuid-1195e76c-7fbb-42ca-ad8a-7d8880569a2a" d="m659.52,857.88c-.48-.09-.99-.07-1.49-.07-7.78-.06-15.55-.12-23.33-.18-2.39-.02-2.58,0-2.61,2.39-.02,1.68-.29,3.36-.42,5.05-.02.3.18.59.52.59.15,0,.38-.17.44-.31.29-.74.5-1.51.79-2.25.5-1.29,1.41-2.29,2.78-2.47,1.67-.22,3.29-.75,5.01-.69,2.27.07,2.3.03,2.85,2.51.09.38.06.79.06,1.19,0,8.27.02,16.55.01,24.82,0,.69-.07,1.4-.25,2.06-.33,1.14-1.03,1.88-2.33,1.97-.74.05-1.61-.26-2.52.95,4.8.16,9.27.03,13.74-.09.1,0,.21-.04.28-.1.06-.05.09-.16.1-.24,0-.08,0-.21-.04-.26-.41-.39-.94-.24-1.42-.31-1.7-.24-2.53-.93-2.81-2.56-.15-.87-.11-1.79-.11-2.68,0-7.78,0-15.55,0-23.33,0-.6-.01-1.2.02-1.79.07-1.2.23-1.42,1.36-1.52.7-.06,1.35-.16,2.02-.4,1.25-.45,2.6-.39,3.84-.12,2.21.49,3.62,1.97,4.29,4.15.14.47-.16,1.26.85,1.3.42-2.22-.04-4.34-.41-6.48-.12-.69-.62-1.01-1.23-1.12Z"/>
  <path class="uuid-1195e76c-7fbb-42ca-ad8a-7d8880569a2a" d="m772.18,825.26c.84-.06,1.69-.01,2.48-.41.43.3.78.2,1.08-.2,2.2-.3,4.24-1.1,6.22-2.04,2.45-1.16,4.58-2.79,6.38-4.85,2.58-2.95,3.4-6.52,3.33-10.26-.04-2.55-1.19-4.79-2.96-6.69-2.71-2.92-6.09-4.76-9.76-6.16-.17-.31-.42-.45-.77-.4-1.17-.5-2.35-1.01-3.52-1.51-.48-.71-1.28-.95-2.01-1.22-2.16-.8-4.12-1.97-6.1-3.12-1.23-.71-2.29-1.6-3.19-2.67-1.92-2.25-2.24-5.46-.88-8.06.57-1.1,1.38-2,2.57-2.37,2.26-.7,4.54-1.25,6.94-.5.64.2,1.37.13,2.06.18.68.41,1.37.8,2.05,1.22,1.57.98,2.43,2.5,3.4,4.04,1.35,2.14,2.36,4.35,3.08,6.75.25.85.52,1.71.86,2.53.08.18.51.35.73.3.23-.05.5-.34.56-.58.09-.37.04-.79,0-1.19-.42-4.56-.84-9.12-1.28-13.67-.1-1.03-.92-1.52-1.64-.87-1.29,1.16-2.7,1.07-4.2.83-1.18-.19-2.36-.36-3.54-.53-1.35-.92-2.85-.52-4.31-.51-2.17-.08-4.34-.16-6.51-.22-.8-.02-1.6-.02-2.11.76-3.1.49-5.81,1.83-8.46,3.46-3.94,2.43-6.07,8.42-4.59,13.45,1.04,3.53,3.26,6.1,6.14,8.18,2.66,1.93,5.57,3.46,8.59,4.76,1.82.79,3.6,1.69,5.41,2.5,3.36,1.51,6.04,3.74,7.62,7.14l.08,1.76c0,.43,0,.85-.01,1.28-.43,1.37-.87,2.74-1.3,4.1-.34.1-.53.33-.56.68-.6.59-1.19,1.19-1.79,1.78-.05.18-.08.37-.12.56.04-.18.07-.37.12-.56-.47.15-.97.23-1.4.45-1.57.81-3.26.99-4.94.79-1.76-.21-3.52-.46-5.28-.69-2.97-.39-5.16-3.59-3.48-6.75.91-1.72,2.05-2.85,4.16-2.81,1.13.02,1.32-.32,1.39-1.44.14-2.45-.95-4.37-2.45-6.2-1.17-1.42-2.62-2.04-4.4-2.04-1.19,0-2.38.08-3.58.07-.73,0-1.36.12-1.87.7-.32.37-.75.66-1.07,1.04-2.48,2.95-3.61,6.12-1.77,9.87,1.89,3.84,4.88,6.45,8.77,8.1,1.09.46,2.3.72,3.3,1.32.92.55,1.83.72,2.84.69,2.78-.08,5.57-.16,8.35-.24.51-.02.98-.13,1.34-.54Z"/>
  <path class="uuid-1195e76c-7fbb-42ca-ad8a-7d8880569a2a" d="m350.67,861.76c.21-1.57.86-2.23,2.44-2.58.58-.13,1.19-.12,1.75-.29.21-.06.33-.42.48-.65-.22-.53-.68-.61-1.17-.61-1.34.02-2.68.05-4.02.07-2.98-.26-5.97-.12-8.96-.05-.31,0-.53.27-.47.6.03.16.21.39.35.41.69.11,1.39.1,2.07.25,1.55.34,2.19,1.13,2.23,2.7.03,1-.02,1.99-.02,2.99,0,8.08-.02,16.16,0,24.23,0,1.35-.07,2.59-1.29,3.45-.84.04-1.68.08-2.53.12-.4.02-.71.19-.91.54.16.83.84.72,1.4.72,4.17-.04,8.34-.1,12.51-.15.1,0,.19-.05.29-.06.26-.02.39-.15.34-.38-.04-.17-.12-.44-.23-.47-.57-.14-1.16-.19-1.73-.33-1.74-.43-2.47-1.3-2.62-3.12-.05-.59-.05-1.19-.05-1.79,0-7.75,0-15.49,0-23.24,0-.79.01-1.59.12-2.38Z"/>
  <path class="uuid-1195e76c-7fbb-42ca-ad8a-7d8880569a2a" d="m421.72,772.96c-.08.01-.15.12-.22.18,2.55,0,5.11.02,7.66.03-2.46-.72-4.94-.61-7.44-.21Z"/>
  <path class="uuid-1195e76c-7fbb-42ca-ad8a-7d8880569a2a" d="m505.57,465.27c.05-.07.09-.15.14-.22-.04.02-.08.04-.12.08-.03.03-.01.1-.02.15Z"/>
  <path class="uuid-1195e76c-7fbb-42ca-ad8a-7d8880569a2a" d="m505.79,465.01l-.04-.03s-.03.05-.04.07c.03-.01.05-.03.08-.04Z"/>
  <polygon class="uuid-1195e76c-7fbb-42ca-ad8a-7d8880569a2a" points="237.91 746.43 238.08 746.36 237.88 746.23 237.91 746.43"/>
  <path class="uuid-1195e76c-7fbb-42ca-ad8a-7d8880569a2a" d="m363.61,798.96c.15-.45.09-.86-.25-1.21-.14.45-.11.86.25,1.21Z"/>
  <path class="uuid-1195e76c-7fbb-42ca-ad8a-7d8880569a2a" d="m433.5,513.78c5.96-1.07,11.9-2.26,17.85-3.41,2.05-.4,4.1-.79,6.13-1.25,1.04-.24,2.02-1.17,1.9-1.67-.19-.82-1.02-.83-1.6-1.17-.34-.2-.71-.36-1.08-.52-6.57-2.87-13.1-5.8-19.71-8.56-4.12-1.72-8.27-3.42-12.56-4.72-2.79-.85-5.62-1.41-8.53-1.02-1.86.25-3.72.68-5.54,1.15-3.84.99-7.2,2.74-9.71,5.96-2.97,3.81-3.25,6.28-.7,10.33,1.65,2.62,3.58,4.98,6.52,6.38,2.35,1.12,4.79,1.2,7.29,1.2,2.09-.02,4.15-.11,6.22-.5,4.49-.85,9.03-1.39,13.52-2.19Z"/>
</svg>