<?xml version="1.0" encoding="UTF-8"?>
<svg id="uuid-480bebbe-504a-40d9-9afa-7ef1edcbe67f" data-name="Layer 1" xmlns="http://www.w3.org/2000/svg" viewBox="0 0 1000 1000">
  <defs>
    <style>
      .uuid-18b27cec-ff1c-49ef-857d-892a50199382 {
        fill: #fff;
      }
    </style>
  </defs>
  <g>
    <path class="uuid-18b27cec-ff1c-49ef-857d-892a50199382" d="m818.39,732.88c0-1.49.02-3-.25-4.46-.64-3.51-2.03-6.5-5.53-8.22-2.68-1.32-5.48-1.68-8.35-1.69-14.82-.05-29.63-.02-44.45-.03-3,0-5.91.57-8.69,1.55-2.57.91-4.5,2.93-4.96,5.55-.49,2.81-.56,5.74-.54,8.64.05,9.12.06,18.23,0,27.35-.02,2.99.37,5.94.41,8.92,0,.68.32,1.22.64,1.65.97,1.3,1.77,2.78,3.31,3.55.19.26.44.34.75.29.1.16.23.22.41.18.7.33,1.3.94,2.17.75.32.1.64.21.96.31,0,0-.02,0-.02,0-.04.05-.11.14-.1.15.1.11.15.05.13-.15,1.05.08,2.09.17,3.14.25.92.43,1.9.26,2.85.26,14.46.01,28.93.02,43.39,0,1.92,0,3.85-.22,5.77-.39,1.14-.1,2.26-.33,3.17-1.13.11-.14.23-.28.34-.41.54.09,1.1.24,1.33-.5,0,0,.23-.05.23-.05l.06-.23c.35.16.45-.14.62-.33.39-.22.67-.52.86-.94,1.4-3.04,2.42-6.14,2.39-9.58-.07-10.43-.01-20.86-.03-31.29Zm-57.44-3.96c-.51-.02-1.08-.16-1.49.3.41-.47.98-.33,1.49-.3Zm-1.68,35.82c0-11.54,0-23.08,0-34.63,0-.26.06-.52.09-.78,1.05,0,2.1-.02,3.15-.03,13.93-.01,27.86-.02,41.79-.03.42.83.23,1.72.23,2.58.01,10.59.02,21.19-.01,31.78,0,.99.42,2.13-.6,2.93-.75-.31-1.55-.14-2.32-.14-14,.01-28,.04-42,.07-.43-.53-.33-1.16-.33-1.76Zm44.65,1.84h0c-5.51.03-11.02.08-16.53.09,5.51-.01,11.01-.06,16.53-.09Z"/>
    <path class="uuid-18b27cec-ff1c-49ef-857d-892a50199382" d="m387.24,730.98c0-1.3.07-2.64-.53-3.87.23-.93-.28-1.6-.76-2.3-.48-1.8-1.26-3.23-3.16-4.08-2.87-1.28-5.77-2.24-8.93-2.24-15.03,0-30.07-.01-45.1,0-2.9,0-5.76.4-8.47,1.41-1.51.56-3.31,1.04-3.73,3.05-.24,0-.29.12-.24.33-.08.24-.16.48-.24.73-.3.02-.52.09-.32.46-.44.4-.5.93-.53,1.48,0,0-.01.04-.01.04-.52,1.69-.65,3.43-.65,5.19,0,11.38,0,22.77,0,34.15,0,1.67.17,3.33.59,4.94.55,2.12,1.38,4.29,3.36,5.3,2.3,1.18,4.82,2.12,7.54,1.87.82.43,1.71.28,2.57.28,14.86.01,29.72.01,44.58,0,.86,0,1.75.15,2.57-.29,1.23,0,2.47.02,3.64-.47,1.26-.07,2.32-.66,3.37-1.28,0,0,.18.03.18.03l.16-.09c.29.06.41-.04.34-.34.07-.16.11-.32.11-.5h.12s.02-.11.02-.11c.17.02.32-.03.44-.16.29.07.41-.12.51-.34,1.01-1.12,1.18-2.59,1.65-3.93.56-.27.62-.72.44-1.26.53-1.15.48-2.39.49-3.61.01-11.47.01-22.94,0-34.41Zm-15.86,35.68c.52,0,1.06.16,1.57-.07-.5.24-1.05.07-1.57.07Zm-41.01-37.75c-.68-.04-1.38-.17-1.99.33h0c.6-.5,1.31-.37,1.99-.33Zm-2.17,35.77c0-11.56,0-23.12.02-34.68,0-.25.11-.51.17-.76,1.22.02,2.44.05,3.66.06,13.77.02,27.55.04,41.32.05.04,4.1.09,8.2.1,12.3.02,7.33.01,14.66,0,21.99,0,.94.25,1.92-.3,2.81-14.44-.01-28.88-.02-43.33-.03-.34,0-.68.1-1.02.15-.71-.47-.61-1.2-.61-1.89Z"/>
    <path class="uuid-18b27cec-ff1c-49ef-857d-892a50199382" d="m915.79,776.26c-1.57-1.2-3.12-2.43-4.65-3.68-5.39-4.38-10.78-8.75-16.14-13.16-1.43-1.18-2.79-2.46-4.54-4.01,3.61-.1,6.71-.19,9.82-.27,1.3.26,2.53-.18,3.78-.38.7-.11,1.36-.26,1.52-1.1,1.11,0,1.92-.55,2.71-1.33,2.07-2.04,2.77-4.6,2.9-7.35.12-2.53.03-5.07.03-7.61,0-2.97.18-5.96-.09-8.91-.3-3.22-1.27-6.09-4.56-7.87-2.9-1.57-5.89-2.08-9.04-2.09-15.92-.04-31.83-.02-47.75,0-.76,0-1.58-.27-2.27.3,0,0,.01-.05.01-.05,0,0-.11-.07-.11-.07l.09.11c-.36.64-.22,1.34-.22,2.02,0,18.2,0,36.41,0,54.61,0,.68-.23,1.41.31,2.01,3.71.74,7.46.12,11.19.3.57.03,1.24.24,1.72-.32.49-.72.25-1.53.26-2.3.02-5.95,0-11.9.01-17.86,0-1.89.04-1.92,1.85-1.94,3.24-.03,6.48.01,9.72-.02,1.02-.01,1.75.29,2.53,1.04,3.04,2.97,6.3,5.72,9.3,8.73,3.99,4.02,8.57,7.42,12.19,11.81.24.29.55.41.92.4.51.71,1.27.45,1.93.46,5.24.02,10.48.02,15.72,0,.51,0,1.05.16,1.5-.25.24-.65-.21-.9-.64-1.24Zm-37.99-30.98c-4.99,0-9.98.01-14.96,0-2.09,0-2.1-.03-2.11-2.18-.01-4.11-.02-8.22,0-12.34,0-1.91.04-1.96,1.84-1.96,9.89-.02,19.78,0,29.67,0,1.34,0,2.5.57,3.73.93,1.05.3,1.54,1.14,1.67,2.11.46,3.48.49,6.97-.02,10.44-.27,1.83-1.59,2.63-3.27,2.86-1.04.14-2.09.15-3.14.15-4.46.01-8.93,0-13.39,0Z"/>
    <path class="uuid-18b27cec-ff1c-49ef-857d-892a50199382" d="m642.96,743.9v-.16s-.18.01-.19.01c-.28-.12-.56-.23-.85-.35-.18-.58-.62-.73-1.18-.68-.38-.09-.77-.19-1.16-.29-.22,0-.45.05-.67.07-.06,0-.13,0-.19,0,.06,0,.12,0,.19,0,.22-.01.45-.06.67-.07-.43-.37-.93-.34-1.44-.28-2.75-.57-5.55-.61-8.35-.61-10.68.01-21.37.01-32.05,0-2.36,0-2.38-.03-2.41-2.26-.03-2.71-.03-5.43-.01-8.14.01-2.13.04-2.16,2.18-2.16,8.23-.01,16.46,0,24.7,0,3.33,0,6.66.05,9.98-.03,1.39-.03,1.86.48,1.77,1.83-.1,1.39-.09,2.8-.01,4.2.05.86.55,1.03,1.21.41,2.01-.45,4.01-.9,6.02-1.35h0c1.41.48,2.24-1.14,3.64-.97,1.08.13,1.4-.63,1.42-1.71.07-3.02-.51-5.85-2.03-8.48l.05-.07s-.08.05-.08.05c-.31-.37-.62-.73-.93-1.1,0,0-.04-.04-.04-.04-.17-.15-.34-.3-.51-.45,0,0-.03-.03-.03-.03-.48-.32-.95-.64-1.43-.96-.08-.38-.29-.47-.62-.25.02.09.06.15.1.2-.04-.05-.07-.11-.1-.2-.52-.06-1.12.03-1.54-.21-2.31-1.3-4.85-1.31-7.36-1.31-11.28-.03-22.56-.02-33.84,0-1.04,0-2.1-.12-3.11.29l-.02-.12s-.02.11-.02.11c-1.34-.11-2.57.36-3.83.7-.32-.11-.62-.15-.9.11-.4.16-.8.32-1.2.49h0c-.54,0-.97.16-1.13.74.19-.02.35-.07.51-.15-.15.07-.32.12-.51.15-.27.13-.55.27-.82.4,0,0,0,.01-.02.02,0-.01.02-.02.02-.02,0,0-.04.04-.04.04-1.67,1.26-2.61,3.01-2.88,5-.87,6.36-.83,12.74-.02,19.12.27,2.16,1.36,3.83,3.09,5.11.1.25.22.47.55.4.72.67,1.43,1.36,2.55,1.09.71.39,1.4.83,2.27.61.9.79,2.01.49,3.02.49,12.14.04,24.28.04,36.43.05.7,0,1.4,0,2.1.02.64.02.96.38.93,1-.15,4.09.32,8.19-.24,12.27-13.75,0-27.5,0-41.26,0-.62-2.15.14-4.4-.42-6.56,0,0,.08.03.08.03l-.05-.1s-.03.06-.03.07c0,0,0,0,0,0l.03-.07c-.44.04-.87.07-1.31.11,0-.02-.03-.21-.03-.21l-.03.21s.05,0,.05,0c-.25.05-.5.09-.75.14-.4-.14-.76-.11-1.08.22-2.11.45-4.22.91-6.33,1.36q-2.72.31-2.52,2.76c-.1,1.21-.15,2.42.34,3.57-.22.46-.13.87.25,1.22-.13,2,.74,3.69,1.99,5.07,1.94,2.13,4.5,3.06,7.39,3.07,1.35.46,2.76.43,4.15.43,12.51.01,25.02.01,37.53,0,.86,0,1.75.17,2.58-.27,1.39-.04,2.79.02,4.11-.56.76.17,1.29-.33,1.86-.68,0,0,.14.02.14.02l.1-.1c.46.07.8-.13,1.11-.45,2.95-1.91,3.85-4.94,4.13-8.13.47-5.24.49-10.51,0-15.74-.28-2.98-.94-6-3.68-7.94Z"/>
    <path class="uuid-18b27cec-ff1c-49ef-857d-892a50199382" d="m155.55,721.04c0-.76.18-1.55-.24-2.27-.6-.47-1.31-.28-1.98-.29-3.15-.02-6.3-.01-9.46,0-2.32,0-2.33.01-2.34,2.25,0,6.22,0,12.43,0,18.65,0,1.98-.04,2.02-2.06,2.02-12.87.01-25.74.01-38.62,0-2.14,0-2.17-.04-2.18-2.23-.02-5.95,0-11.91-.01-17.86,0-.84.19-1.72-.2-2.53.02,0,.19-.1.19-.1l-.21.05s.02.05.02.05c-3.55-.64-7.13-.15-10.7-.27-.84-.03-1.75-.3-2.54.3,0,0,0-.04,0-.04,0,0-.12-.05-.12-.05l.1.09c-.39.63-.24,1.34-.24,2.02-.01,18.3-.01,36.6-.01,54.89,0,.59-.22,1.24.34,1.72,1.66.73,3.4.3,5.09.28,2.65-.03,5.33.42,7.95-.28.64-.77.3-1.68.31-2.53.02-6.74,0-13.48.01-20.22,0-2.49.02-2.5,2.38-2.51,12.78,0,25.56,0,38.34,0,2.11,0,2.13.03,2.14,2.18.01,6.83,0,13.65.02,20.48,0,.86-.25,1.75.24,2.57.47.6,1.13.32,1.71.33,3.23.02,6.45.03,9.68,0,.66,0,1.4.28,1.98-.31.73-.63.38-1.48.38-2.22.02-18.05.02-36.11,0-54.16Z"/>
    <path class="uuid-18b27cec-ff1c-49ef-857d-892a50199382" d="m245.58,766.55c-.25-.04-.5-.12-.75-.12-14.45,0-28.9,0-43.35,0-.51,0-1.03.1-1.55.15h0c-.85-.47-.7-1.3-.7-2.06-.01-1.81-.06-3.62.01-5.43.1-2.4-.34-4.81.25-7.19,8.57.03,17.15.05,25.72.08.35,0,.69-.01.94-.33.6-2.94.11-5.92.25-8.88.03-.68-.4-.89-1-.89-.61,0-1.23,0-1.84,0-7.45,0-14.9,0-22.36,0-1.9,0-1.95-.04-1.96-1.86-.03-3.24.02-6.49-.02-9.73-.01-1.08.3-1.66,1.48-1.57.7.05,1.4,0,2.1,0,13.06,0,26.13.01,39.19,0,.96,0,1.91.05,2.87-.21.7-.19,1.02-.47,1.01-1.22-.03-2.54-.02-5.08,0-7.63,0-.9-.43-1.26-1.3-1.19-.44.03-.88.01-1.31.01-18.41,0-36.82,0-55.23,0-.44,0-.88.02-1.31,0-1-.06-1.46.39-1.4,1.39.02.44,0,.88,0,1.31,0,18.06,0,36.11,0,54.17,0,.68-.23,1.41.28,2.02.55.68,1.3.35,1.95.35,18.86.02,37.71.02,56.57,0,.66,0,1.4.29,1.98-.32.59-3.4.19-6.82.21-10.24,0-.39-.36-.54-.7-.62Z"/>
    <path class="uuid-18b27cec-ff1c-49ef-857d-892a50199382" d="m999.35,766.55s0,0,0,0c-7.07-.04-14.14-.11-21.21-.12-8.31,0-16.63.05-24.95.08-.14-.31-.41-.62-.4-.93.02-4.53-.25-9.07.13-13.6,8.04,0,16.08,0,24.12-.02.84,0,1.74.32,2.51-.3.72-2.57.21-5.2.31-7.79.07-1.94-.02-1.97-2.04-1.98-7.36-.01-14.72,0-22.08,0-.61,0-1.23,0-1.84,0-.75,0-1.14-.38-1.14-1.12,0-3.59,0-7.18-.02-10.78,0-.89.45-1.26,1.3-1.25.61,0,1.23,0,1.84,0,13.41,0,26.81,0,40.22,0,.53,0,1.06-.04,1.58,0,1.31.12,1.91-.34,1.84-1.77-.1-2.19,0-4.38-.03-6.57-.02-1.86-.05-1.91-1.91-1.91-18.93-.01-37.86,0-56.78-.03-1.32,0-2.02.3-1.85,1.73.04.35,0,.7,0,1.05,0,17.96,0,35.92.01,53.88,0,.77-.26,1.58.25,2.3.57.62,1.32.32,1.98.32,18.81.02,37.61.02,56.42,0,.67,0,1.4.25,2.01-.28.12-.21.34-.43.34-.64.03-3.09.03-6.18.03-9.28,0-.46-.17-.82-.65-.98Z"/>
    <path class="uuid-18b27cec-ff1c-49ef-857d-892a50199382" d="m68.09,719.4c.02-.6-.41-.92-1.03-.92-.53,0-1.05,0-1.58,0-20.92,0-41.84,0-62.76,0-.53,0-1.05,0-1.58,0-.77-.01-1.13.38-1.1,1.12.14,3.13-.34,6.27.26,9.38.76.66,1.67.3,2.51.3,8.11.05,16.22.07,24.33.09.02.78.07,1.57.07,2.36,0,14.29,0,28.57.02,42.86,0,.94-.29,1.93.26,2.83,1.48.68,3.05.33,4.56.29,2.83-.07,5.68.42,8.49-.27.82-.7.41-1.64.42-2.46.03-14.28.02-28.55.03-42.83,0-.96-.17-1.93.18-2.86,8.29,0,16.58.02,24.87.02.58,0,1.23.22,1.74-.29.75-3.18.17-6.41.3-9.61Z"/>
    <path class="uuid-18b27cec-ff1c-49ef-857d-892a50199382" d="m518.71,767.25c0-.4-.31-.58-.67-.68-.29-.3-.66-.14-.99-.14-13.3,0-26.59,0-39.89,0-.69,0-1.4-.16-2.08.15-1.12-.74-.68-1.9-.69-2.89-.03-14.11,0-28.21-.04-42.32,0-.91.39-1.94-.47-2.73-4.19-.38-8.39-.22-12.6-.07-1.05.79-.58,1.94-.58,2.92-.03,17.79-.03,35.58-.01,53.37,0,.85-.28,1.75.28,2.55.58.6,1.32.31,1.98.31,17.85.02,35.7.02,53.55,0,.66,0,1.41.29,1.98-.33.55-3.37.16-6.77.21-10.16Z"/>
    <path class="uuid-18b27cec-ff1c-49ef-857d-892a50199382" d="m430.47,721c0-.35-.03-.7,0-1.05.1-1.16-.46-1.51-1.56-1.49-3.41.05-6.83,0-10.25.02-2.02,0-2.02.03-2.07,1.99,0,.26,0,.53,0,.79,0,17.86,0,35.72.01,53.58,0,.85-.25,1.75.24,2.57.48.57,1.13.32,1.71.32,3.31.02,6.62.02,9.93,0,.58,0,1.23.24,1.71-.33.46-.63.25-1.35.25-2.04.01-18.12,0-36.25.01-54.37Z"/>
    <path class="uuid-18b27cec-ff1c-49ef-857d-892a50199382" d="m729.82,718.77s.07-.04.07-.04l-.08.04c-.71-.52-1.52-.27-2.28-.27-20.98-.01-41.95-.01-62.93-.01-.35,0-.7.03-1.05,0-1.14-.12-1.57.4-1.54,1.52.04,1.92-.05,3.85.04,5.77.05,1.08-.46,2.25.39,3.24,2.04.69,4.14.27,6.2.28,6.64.03,13.29-.06,19.93-.1-.06-.02-.12-.05-.18-.07.06.03.12.05.18.07.83.79.47,1.81.48,2.73.02,14.33.01,28.66.04,42.99,0,.83-.35,1.75.34,2.51.39.49.94.34,1.43.34,3.44,0,6.89,0,10.33,0,.49,0,1.05.16,1.43-.35.47-.82.23-1.71.23-2.56.02-14.23,0-28.45.02-42.68,0-.96.09-1.91.13-2.87,8.37,0,16.74.02,25.1,0,.56,0,1.23.32,1.67-.34.6-3.39.49-6.78.03-10.18,0,0,.02,0,.02,0Z"/>
    <path class="uuid-18b27cec-ff1c-49ef-857d-892a50199382" d="m155.29,718.73s.01.03.02.05c.01.01.03.02.04.03,0,0-.07-.07-.07-.07Z"/>
  </g>
  <g>
    <path class="uuid-18b27cec-ff1c-49ef-857d-892a50199382" d="m443.26,626.21c-4.03.19-8.05.14-12.08.02-.65-.02-1.24.05-1.27.92-.03.88.43,1.28,1.26,1.32.44.02.9-.08,1.31.03,2.86.8,3.03.48,3.18,3.41,0,.17.02.35.02.52.03,8.49.06,16.98.08,25.48,0,.59.19,1.24-.38,1.71-.15-.14-.3-.14-.45,0-1.34-1.54-2.57-3.19-4.04-4.59-4.06-3.88-6.94-8.73-10.74-12.85-2.68-2.9-5.31-6.05-7.33-9.54-.96-1.65-2.63-2.59-3.52-4.35-.76-1.49-2.31-2.54-4.41-2.02-1.07.26-2.27.06-3.41.05-1.05-.02-2.1-.08-3.15-.1-.75-.01-1.14.38-1.11,1.13.03.62.41.93,1.01.98.26.02.53-.02.79,0,2.87.19,3.57.9,3.78,3.84.04.61.07,1.22.07,1.84,0,7.88.03,15.76,0,23.65,0,1.83-.18,3.67-.37,5.5-.17,1.73-.75,2.24-2.49,2.4-.61.06-1.24-.03-1.83.09-.91.17-1.09.74-.63,1.53.25.28.56.4.93.38,3.93-.24,7.86-.46,11.79-.07.43.04.88.03,1.04-.52.16-.67.13-1.24-.74-1.36-1.15-.16-2.3-.29-3.39-.75-1.57-.36-.94-1.7-.98-2.57-.36-8.91-.25-17.82-.25-26.74,0-.66-.23-1.42.49-1.92-.02.14.04.23.18.27,1.64,2.87,4.04,5.16,5.95,7.82.36.36.26,1.1.96,1.18.41.64.82,1.28,1.23,1.92.04.54.47.35.77.4-.05-.22-.15-.34-.28-.39-.07-.03-.14-.04-.22-.04.08,0,.16.01.22.04.13.06.23.18.28.39.18.18.35.37.53.55.14,0,.26.03.35.09-.09-.06-.21-.09-.35-.09.05.29.28.35.51.41,1.38,2.74,3.71,4.72,5.63,7.03,0,.16.09.26.25.28-.01.12.04.19.16.21.11.13.22.25.33.38.18.22.37.43.55.65,0,.41.15.7.57.82,1.72,2.81,4.15,5.06,6.22,7.59,1.1,1.34,2.05,2.95,3.73,3.75.11.41.16.83.76.81.77-.02,1.54.02,2.31.04,0,0,0,0,0,0,.39.34.87.1,1.3.18h0c.15.47.55.43.75.2.34-.39.38-.88-.04-1.31-.12-2.53-.33-5.06-.34-7.59-.04-8.4-.02-16.81-.01-25.21,0-.96-.02-1.93.09-2.89.26-2.38.6-2.68,2.88-2.8.52-.03,1.05,0,1.57.01.76.02,1.16-.36,1.16-1.09,0-.77-.48-1.08-1.19-1.05Z"/>
    <path class="uuid-18b27cec-ff1c-49ef-857d-892a50199382" d="m521.11,657.17c-.73-.08-1.18.39-1.34,1.01-.26,1-.51,2.02-.59,3.05-.15,1.92-1.1,2.97-3.02,3.13-.25-.09-.48-.11-.68.13-4.78.36-9.55.3-14.47-.11,0-5.15.02-10.11-.02-15.08,0-1.01.35-1.39,1.36-1.38,2.97.04,5.94.05,8.91,0,.66,0,1.12.44,1.7.5,1.12.12,1.39.81,1.49,1.79.1,1.01-.19,2.09.47,3.01.51.57,1.03.55,1.58.05.32-.34-.11-.65-.07-.89.68-3.6-.31-7.24.3-10.84.07-.42,0-.87-.04-1.31-.05-.52-.4-.74-.9-.73-.53,0-1.1,0-1.17.71-.08.87-.07,1.75-.17,2.61-.14,1.12-1.21,2.12-2.35,2.18-3.15.16-6.29.26-9.44.09-1.16-.06-1.72-.38-1.69-1.69.1-4.2.1-8.4.09-12.6,0-1.39.61-1.78,1.92-1.76,3.5.05,7-.01,10.5-.03.33.13.66.26.99.38,0,0,.16.11.16.11,1.03.19,1.78,1.23,2.96.99.62.64.49,1.46.51,2.23.02.61,0,1.22.01,1.84.01.57.17,1.04.87,1.04.6,0,.98-.3,1.11-.88.04-.17.05-.35.07-.52.28-2.13-.1-4.33.87-6.41.41-.88-.24-1.47-1.21-1.52-1.4-.06-2.8-.17-4.19-.14-8.04.14-16.09.35-24.13-.02-.61-.03-1.23-.02-1.83.03-.43.04-.85.17-.91.73-.07.57.07,1.01.62,1.31.74.41,1.54.27,2.31.27,1.5,0,2.35.79,2.82,2.13.44,1.25.61,2.55.62,3.86.01,8.57-.02,17.14.03,25.71,0,1.42-.73,2.64-.79,4.05-.03.8-.9,1.23-1.74,1.31-.7.07-1.4.04-2.09.11-.88.09-.91.64-.66,1.32-.03.31.11.43.41.35.39.22.79.21,1.19.06,3.22-.03,6.44-.04,9.66-.08,2-.03,3.99.36,5.99,0,4.28.35,8.55.45,12.84.09.72-.06,1.45,0,1.44-1.03-.03-2.63.19-5.24.59-7.84.1-.65-.09-1.25-.89-1.34Z"/>
    <path class="uuid-18b27cec-ff1c-49ef-857d-892a50199382" d="m625.42,651.31c.07-.43-.06-.71-.54-.72-.23-.3-.46-.6-.69-.9l.14-.06s-.13,0-.13,0c0-.39-.13-.72-.42-.98,0,0-.06-.03-.05-.03-1.72-2.1-4.75-2.46-6.41-4.63,1.09-.77,2.19-1.32,2.98-2.16,1.2-1.29,2.57-2.46,3.25-4.2,1.84-4.72-.2-8.76-4.29-10.84l.04-.12s-.17.04-.18.04c-.53-.18-1.06-.35-1.58-.53-.07.02-.15.04-.22.06.07-.02.15-.04.22-.06-.27-.2-.55-.2-.86-.07-1.49-.7-3.08-.4-4.64-.42-3.28-.05-6.22,1.35-8.29,3.55-2.72,2.89-3.26,6.68-2.08,10.6.41,1.37,1.02,2.65,2.16,3.47,1.25.9,2.18,2.07,3.53,3.24-4.04,2.03-7.2,4.58-7.29,9.38-.41,1.29-.44,2.56.16,3.81.33,3.82,2.97,6.68,7.08,7.68,2.88,1.06,5.77,1.08,8.66,0,2.57-.71,4.47-2.49,6.51-4.06.38-.29.53-.65.49-1.11.38-.27,1.05-.33.78-1.07.27-.27.36-.59.28-.97,0,0,.04-.05.03-.05.33-.14.55-.38.65-.72.47-.1.76-.34.69-.88.73-2.42.83-4.84.04-7.26Zm-5.48-13.8c.2-.14.27-.33.29-.53-.02.2-.1.39-.29.53Zm.26-3.79c.02-.26.06-.52.02-.76.04.23,0,.5-.02.76Zm-3.12-7.46c-.07,0-.14,0-.21-.03.07.02.14.03.21.03Zm-10.72,11.42c-.52-.44-.24-1.79-.37-2.72-.78-5.76,4.56-7.68,8.44-6.84,2.53.55,3.98,2.03,5.04,4.17-.02.67.23,1.23.71,1.69,0,.7,0,1.4-.01,2.11-.55.4-.63.96-.53,1.58-.78.92-1.43,1.91-1.66,3.12,0,0-.09-.04-.09-.04l.06.07s.03-.03.03-.03c0,0,0,0,0,0l-.03.03c-.19.15-.39.3-.58.44l-.05.03-.55.42h0s-.2.02-.2.02v.18c-.26.29-.53.57-.81.86,0,0-.02.01-.03.02l-.03.02c-1.44.86-2.38-.36-3.5-.85,0,0,0,0,0,0-.05-.29-.27-.19-.45-.18-2.57-.32-3.69-2.65-5.41-4.1Zm5.52,4.3s-.07-.05-.09-.1c.02.05.05.09.09.1Zm-1.07,5.28c-.11-.13-.22-.22-.33-.29.1.07.21.16.33.29Zm-.48-.36c-.61-.23-1.1.45-1.63.87h0c.53-.42,1.02-1.1,1.63-.87Zm9.48,15.5c.15,0,.24-.05.29-.16-.05.1-.14.16-.29.16Zm.35-.46c-.22.07-.57.02-.47.44-2.56,3.61-6.31,4.13-10.15,3.29-1.65-.36-3.25-1.7-4.23-3.52-1.45-2.71-1.56-5.47-1.04-8.36.28.03.41-.1.37-.38-.15-.03-.26-.01-.32.05.06-.06.17-.08.32-.05.9-1.93,1.71-3.94,3.71-5.07l.03-.02c.11-.18.22-.37.33-.55.79.13,1.47-.56,2.28-.29,1.07.7,2.2,1.27,3.38,1.78,2.39,1.05,4.38,2.7,6.18,4.58.36.49.68.99.64,1.6.04-.61-.28-1.11-.64-1.6.24.61.1,1.34.6,1.87.28,2.17-.07,4.24-.98,6.23Z"/>
    <path class="uuid-18b27cec-ff1c-49ef-857d-892a50199382" d="m375.39,652.42c.12-.53.17-1.04-.53-1.22-.14-.51-.28-1.02-.42-1.53l.04-.1s-.11.01-.12.01c-.15-.32-.29-.64-.44-.97l.04-.09s-.1.03-.1.03c-1.07-1.16-1.87-2.65-3.65-2.93-2.23-.4-4.28-1.71-6.67-1.36.69.14,1.38.33,2.06.52-.68-.19-1.37-.38-2.06-.52-.99-.12-1.99-.23-2.99-.35-.37-.28-.79-.23-1.21-.15-.69-.03-1.39-.02-2.08-.11-4.02-.52-5.64-1.9-6.23-4.84-.61-3.08-.37-6.22,2.57-8.36.36-.04.83.14.92-.46,0,0,.07-.07.07-.07.58-.01.91-.36,1.12-.85,3.19-1.01,6.39-.75,9.6-.11.43.17.87.34,1.3.51,0,0,.1.09.1.09.18.41.56.37.9.42,1.36.65,2.06,1.68,1.98,3.24-.03.68.17,1.36.26,2.05.09.72.47,1.05,1.22,1,.69-.05.82-.49.84-1.05.06-1.46.13-2.93.2-4.39,0,0,0,0,0,0,.79-2.61.99-2.64-2-3.48-.25-.07-.51-.1-.77-.15-.39-.93-1.23-.65-1.95-.74-2.29-.47-4.6-.97-6.97-.76-5.27.47-10.46,1.1-13.21,6.62-.25.51-1.07.48-1.09,1.29-.06,2.08-.85,4.12-.49,6.22.28,1.58.02,3.39,1.59,4.52h-.08s.1.02.1.02c0,.16.05.29.16.4-.09.26.02.39.28.43.18.2.37.41.55.61.06.64.6.71,1.06.87.17.09.34.18.5.27.22.31.52.46.9.46.19.28.45.43.78.47.3.08.61.16.92.24.69.66,1.52.27,2.29.32,2.51.83,5.14.5,7.71.79-.96-.16-1.92-.3-2.88-.42.96.12,1.92.26,2.88.42.3.06.61.13.92.19,0,0,0,0,0,0,0,0,0,0,0,0,.08,0,.16,0,.24.01,0,0,0,0,0,0,.3,0,.6,0,.9,0-.3,0-.6,0-.9,0,1.1.11,1.96.94,3.05,1.08,2.45,1.6,3.94,3.8,3.57,6.77-.22,1.76-1.27,3.29-2.46,4.66-1.26,1.47-2.97,2.18-4.67,2.93-2.82.89-5.65.89-8.48.03-5.11-1.26-5.5-1.63-5.99-6.98-.13-1.44-1.17-.93-1.83-1.25l.06.06c-.72,3.02-.7,6.08-.56,9.15,5.36,2.58,10.94,2.88,16.66,1.55,5.19-1,9.13-3.65,11.26-8.64.21-.18.45-.35.36-.69.12-.56.24-1.12.36-1.69.4-.21.71-.47.52-.99.24-1,.26-1.99-.02-2.98Zm-9.36-7.53c.41.11.82.22,1.24.32-.41-.1-.83-.21-1.24-.32Z"/>
    <path class="uuid-18b27cec-ff1c-49ef-857d-892a50199382" d="m486.11,661.58c-.55-.31-1.16-.11-1.68.33-.64.55-1.31.96-2.15,1.31-3.44,1.42-6.99,1.61-10.6,1.5-1.71-.05-3.39.04-5.09-.68-2.72-1.15-5.09-2.62-7.2-4.73-2.09-2.09-3.59-4.39-4.26-7.26-.99-4.24-1.73-8.35-.17-12.76.77-2.17,1.87-3.89,3.19-5.61,1.3-1.7,3.03-2.86,4.92-3.79,1,.19,1.73-.35,2.45-.92.78-.38,1.58-.51,2.46-.52,2.95-.02,5.89-.2,8.8.5.46.18.91.36,1.37.54,0,0,.08.06.08.06.19.38.55.39.9.44.16.51.61.48,1.03.6,2.27.64,2.58,1.07,2.65,3.45.02.52,0,1.04.04,1.56.03.52.04,1.07.74,1.16.56.07,1.03-.12,1.35-.58.32-.46.21-1,.23-1.51.11-2.2.14-4.41,1.08-6.6-1.49-.29-2.9-.56-4.3-.83h0c-1.75-1.21-3.76-1.09-5.74-1.17-3.89-.8-7.75-.42-11.59.39-.53-.15-1,.02-1.46.28-.28.18-.56.37-.85.56,0,0-.01,0-.01,0-3.43.54-6.04,2.6-8.64,4.65-.74.58-1.51,1.23-1.96,2.03-2.16,3.79-4.01,7.72-3.88,12.22.07,2.43-.03,4.97.63,7.27.83,2.87,2.94,5.22,4.27,7.92.05.1.32.08.46.16,1.04.61,1.89,1.56,2.89,2.09,1.76.95,3.11,2.75,5.35,2.77,4.75,1.84,9.64,2.15,14.63,1.33.74.46,1.2-.22,1.76-.46.85.04,1.68,0,2.42-.49,1.08.33,1.92-.55,2.93-.58.27.03.35-.11.32-.35,0,0,.11-.16.11-.16.75,0,1.18-.52,1.65-.99.6-.32.73-.96.93-1.51.19-.52.67-1.21-.07-1.63Z"/>
    <path class="uuid-18b27cec-ff1c-49ef-857d-892a50199382" d="m655.55,661.97c-1.46.16-2.94,0-4.37.44-4.84-.23-9.67-.26-14.52.05-.43-.24-.7-.59-.27-1.01,1.25-1.24,2.65-2.31,3.86-3.61,1.63-1.77,3.33-3.5,5.12-5.11,2.43-2.18,4.39-4.76,6.47-7.24.67-.8.23-1.93,1.08-2.59.99-.77,1.16-1.89,1.15-3.05l.1-.08s-.09-.1-.09-.1c.72-3.06.42-5.86-1.36-8.65-1.26-1.98-3.12-3.03-4.82-4.36-.26-.29-.59-.23-.92-.19-4.81-1.54-9.3-1.03-13.57,1.85-1.28.86-2.04,1.67-1.88,3.2-.26.43-.34.86-.11,1.33-.15,1.14-.3,2.28-.46,3.42-.26.24-.32.51-.12.82-.15.52-.23,1.04.42,1.27.43.15.87.08,1.09-.38.25-.52.51-1.02.66-1.62.59-2.37,1.55-4.54,4.17-5.36.97-.06,1.94-.12,2.85-.52.29.37.6.39.94.07.98.31,2.08.2,2.94.89,3.78.81,5.21,5.37,4.8,8.19-.36,2.51-1.46,4.82-2.43,7.14-.52,1.26-1.89,1.86-2.54,3.15-.73,1.44-1.81,2.81-3.04,3.86-3.98,3.41-7.18,7.57-10.96,11.16-1.35,1.28-1.23,1.56.62,2.47,5.75-.04,11.5-.08,17.26-.14,2.26-.02,4.52.37,6.79.02,2.25.19,2.24.19,2.22-1.78,0-.77.01-1.55.08-2.32.08-.89-.3-1.33-1.17-1.24Z"/>
    <path class="uuid-18b27cec-ff1c-49ef-857d-892a50199382" d="m563.7,665.6c-1.68-.15-3.38-.02-5.02-.57-1.05-.32-1.55-1.1-1.64-2.13-.12-1.39-.28-2.79-.26-4.19.07-6.39.2-12.79.31-19.18.06-3.77.15-7.53.19-11.3.02-1.86-.31-2.11-2.11-1.43-1.95.75-4.02,1.23-5.82,2.35-.66-.05-1.06.48-1.61.71-1.88.53-3.63,1.56-5.67,1.6-.09,0-.18,0-.26.03-.95.4-1.66,2.51-.97,3.41.73.95,1.5.22,2.19-.29,1.69-1.27,3.79-1.73,5.61-2.81,1.76-1.04,2.88-.13,2.93,1.9.05,2.01.16,4.02.14,6.03-.07,6.83-.28,13.65-.26,20.48,0,2.45-.7,4.2-3.03,5.13-1.2.09-2.4.18-3.61.28-.89.1-.98.67-.81,1.4.24.65.8.58,1.31.55,5.94-.36,11.87-.31,17.81,0,.5.03,1.07.12,1.3-.55.17-.67.17-1.26-.71-1.39Z"/>
    <path class="uuid-18b27cec-ff1c-49ef-857d-892a50199382" d="m392.83,665.62c-3.09-.2-3.4-.51-3.57-3.54-.53-9.49-.23-19-.21-28.49,0-.96.11-1.91.19-2.87.19-2.06.34-2.21,2.31-2.37.86-.07,1.73-.11,2.59-.16l.21.03s.08-.2.08-.2c.17-1.77.17-1.81-1.37-1.77-4.46.11-8.92.13-13.38-.02-.35-.01-.7,0-1.05.02-.51.04-.78.33-.8.84-.03.57.12,1.09.76,1.17.78.09,1.57.06,2.35.09,1.35.05,2.11.71,2.16,2.1.02.61.09,1.22.11,1.83.33,9.53.29,19.06.02,28.58-.12,4.18-.22,4.18-4.41,4.73-.25.03-.56.04-.74.19-.56.46-.34.87.17,1.22.12.39.41.51.78.49,4.83-.26,9.66-.33,14.49,0,.44.03.86,0,1.03-.52.4-1.7-.83-1.3-1.73-1.36Z"/>
    <path class="uuid-18b27cec-ff1c-49ef-857d-892a50199382" d="m594.18,631.44c-.13-.22-.26-.45-.39-.68l.05-.08s-.1.03-.1.02c-.15-.19-.3-.38-.45-.57-.14-.34-.21-.73-.6-.92-1.48-1.48-3.35-2.32-5.27-3.06-.24-.23-.51-.2-.79-.07-1.33-.61-2.75-.45-4.14-.38-3.22.16-6.08,1.49-8.41,3.52-2.2,1.92-3.45,4.53-3.69,7.59-.35,4.33-.31,8.46,2.82,12,1.02,1.15,2.14,1.87,3.53,2.32.95.44,1.93.66,2.97.46,1.1.39,2.21.38,3.3-.04.67-.02,1.38.13,1.93-.42,1.88-1.17,3.34-3.03,5.73-3.71-.27,3.96-1.63,7.5-3.89,10.29-2.23,2.75-4.61,5.79-8.47,6.7-.2.05-.32.39-.48.6-1.59-.08-2.81,1.22-4.39,1.22-.82,0-1.27.26-.82,1.16.94.34,1.75,1.3,2.86.82,1.36-.58,2.89-.54,4.18-1.3,2.71-1.2,5.17-2.83,7.56-4.57,1.47-1.07,2.95-2.14,3.77-3.85.27-.12.59-.18.7-.52.07-.32.14-.63.21-.95.43-.28,1.1-.37.88-1.15.16-.05.23-.17.19-.34.36-.54,1.04-.92.89-1.73.14,0,.22-.07.23-.22.42-.1.77-.27.76-.79.07-.33.14-.67.21-1,.25-.12.39-.29.31-.58.44-1.49.54-3.04.81-4.55.89-5.11.59-10.04-1.48-14.82,0-.35-.24-.41-.53-.4Zm-5.55-.96c-.02-.06-.04-.11-.08-.16.04.04.06.1.08.16Zm1.09,14.03c-2.74,4.41-8.65,5.71-12.02,1.06-2.1-2.89-2.1-2.9-2.16-6.61-.05-2.76-.05-5.46,1.8-7.88,1.97-2.59,3.72-3.34,7.06-2.66.84.17,1.74.08,2.53.51h0c.41.4.81.81,1.22,1.21-.01.34.25.47.49.61,1.11.74,1.38,2.07,1.66,3.13.93,3.56,1.51,7.27-.58,10.64Z"/>
    <polygon class="uuid-18b27cec-ff1c-49ef-857d-892a50199382" points="346.7 656.8 346.83 656.72 346.77 656.66 346.7 656.8"/>
    <path class="uuid-18b27cec-ff1c-49ef-857d-892a50199382" d="m608.37,648.32s-.03.02-.03.02c0,0,.02-.01.03-.02Z"/>
    <polygon class="uuid-18b27cec-ff1c-49ef-857d-892a50199382" points="617.3 641.2 617.33 641.29 617.38 641.26 617.3 641.2"/>
  </g>
  <g>
    <path class="uuid-18b27cec-ff1c-49ef-857d-892a50199382" d="m827.02,401.48c-.62-4.54-.78-9.16-1.25-13.74-.64-6.16-1.98-12.16-3.11-18.2-1.06-5.64-2.58-11.18-4.38-16.65-1.38-4.2-2.98-8.3-4.61-12.4-1.34-3.37-2.69-6.73-4.38-9.96-1-1.9-1.63-4.03-2.82-5.79-1.84-2.74-3.07-5.77-4.71-8.6-.6-1.04-1.81-1.61-2.05-2.92-.23-1.32-1.07-2.32-1.88-3.36-1.01-1.29-2.03-2.64-2.71-4.11-1.1-2.4-2.92-4.29-4.3-6.49-1.91-3.06-4.36-5.78-6.53-8.68-3.49-4.69-7.4-9.06-11.41-13.28-3.75-3.95-7.66-7.77-11.75-11.41-3.76-3.34-7.78-6.32-11.74-9.38-2.96-2.29-6.21-4.2-9.33-6.29-1.93-1.29-3.79-2.69-5.88-3.76-3.83-1.94-7.57-4.07-11.4-6.02-2.63-1.34-5.29-2.65-8.02-3.75-3.19-1.28-6.46-2.36-9.72-3.42-2.13-.7-4.07-1.83-6.31-2.32-5.02-1.1-9.98-2.48-14.99-3.65-3.74-.88-7.49-1.68-11.28-2.1-5.47-.6-10.85-1.83-16.39-1.92-3.57-.06-7.14-.7-10.71-.75-11.92-.15-23.84-.2-35.77-.2-69-.02-137.99-.1-206.99.05-18.48.04-36.97-.8-55.44.65-4.01.32-7.99.51-11.97,1.23-6.16,1.11-12.4,1.7-18.5,3.27-4.47,1.15-8.91,2.41-13.37,3.61-4.18,1.13-8.26,2.7-12.3,4.28-2.91,1.14-5.77,2.42-8.59,3.75-3.11,1.46-6.18,3.07-9.23,4.67-3.76,1.98-7.32,4.28-10.99,6.39-2.47,1.42-4.66,3.23-7.09,4.71-1.42.87-2.85,1.84-4.16,2.94-2.7,2.26-5.39,4.56-8.26,6.59-2.43,1.72-4.44,3.92-6.55,5.93-2.01,1.91-4.11,3.83-5.93,6.01-1.55,1.85-3.46,3.47-5.08,5.32-3.33,3.78-6.48,7.71-9.6,11.67-1.75,2.21-3.2,4.64-5.13,6.73-.92,1-1.87,2.12-2.42,3.29-1.52,3.24-3.77,6.01-5.58,9.06-2.17,3.64-4.37,7.25-6.3,11.01-1.72,3.34-3.27,6.75-4.85,10.16-1.34,2.9-2.75,5.78-3.89,8.76-1.14,2.99-1.95,6.11-2.99,9.15-1.97,5.76-3.78,11.57-4.99,17.55-.7,3.49-1.81,6.96-1.98,10.48-.21,4.36-1.35,8.54-1.78,12.85-.39,3.97-.53,7.99-.98,11.97-.63,5.52-.37,11.14.44,16.74.71,4.88.7,9.84,1.54,14.76.93,5.46,1.28,11.02,2.5,16.46.57,2.55.81,5.2,1.59,7.68,1.41,4.47,2.33,9.07,3.77,13.54,1.31,4.07,2.72,8.12,4.31,12.06,2.19,5.44,4.09,11.03,7.07,16.14,1.08,1.84,1.76,3.91,3,5.66,2.2,3.1,3.36,6.79,5.72,9.79,1.06,1.35,2.03,2.79,2.99,4.21,3.68,5.47,7.46,10.84,11.9,15.74,1.58,1.75,3.18,3.49,4.7,5.28,3.36,3.96,7.08,7.59,10.83,11.15,2.95,2.8,6.18,5.35,9.33,7.97,1.15.95,1.96,2.33,3.21,3.02,3.14,1.72,5.81,4.07,8.72,6.09,7.11,4.92,14.43,9.45,22.09,13.45,5.01,2.61,10.21,4.82,15.52,6.76,5.24,1.91,10.5,3.76,15.89,5.24,5.55,1.53,11.15,2.92,16.8,3.83,5.62.9,11.3,1.93,17.06,1.53,1.23-.08,2.24.77,3.52.76,3.94-.03,7.89.2,11.83.21,47.43.02,94.86.01,142.28.01v.06c7.98,0,15.96.01,23.93,0,32.09-.05,64.17,0,96.26-.21,14.79-.09,29.61.82,44.36-1.11,5.28-.69,10.59-1.23,15.77-2.56,3.36-.87,6.74-1.69,10.11-2.53,3.79-.94,7.51-2.1,11.2-3.32,7.99-2.64,15.65-6.04,23.16-9.86,4.67-2.37,9.18-4.94,13.63-7.68,5.72-3.52,11.19-7.4,16.33-11.67,6.15-5.09,12.19-10.35,17.61-16.26,3.12-3.4,6.16-6.86,9.04-10.48,3.65-4.59,7.36-9.13,10.64-13.99,2.01-2.98,3.92-6.05,5.87-9.07,1.83-2.85,3.6-5.75,5.15-8.72,1.92-3.69,3.98-7.33,5.43-11.27,1.04-2.83,2.2-5.67,3.77-8.22,1.63-2.64,1.2-5.97,3.22-8.39.2-.24.25-.67.25-1.01,0-1.52.68-2.82,1.19-4.2.48-1.31,1.15-2.54,1.42-3.94.41-2.12.91-4.24,1.54-6.3,1.85-6.06,3-12.27,3.9-18.51.58-4.05,1.4-8.06,1.51-12.18.11-4.18.88-8.34.95-12.51.08-5.67.28-11.34-.5-17.03Zm-7.02-18.93c.54,3.36.89,6.75,1.32,10.13.11.86.26,1.72.37,2.59.27,2.1-.07,2.5-2.14,2.51-2.62,0-5.24,0-7.87,0,0-.01,0-.03,0-.04-2.62,0-5.24.02-7.87,0-1.98-.02-2.18-.29-2.58-2.15-.99-4.71-1.29-9.51-2.07-14.25-.31-1.86-.04-2.16,1.87-2.17,4.98-.02,9.96,0,14.94.03,2.85.02,3.57.55,4.01,3.36Zm-5.92-25.53c.97,2.09,1.2,4.36,1.94,6.51.89,2.55,1.46,5.2,2.12,7.83.33,1.32,0,1.81-1.4,1.81-5.86,0-11.71-.1-17.57-.1-1.27,0-1.88-.54-2.2-1.73-.76-2.77-1.7-5.5-2.39-8.28-.55-2.21-1.08-4.4-1.89-6.53-.5-1.33-.14-1.76,1.29-1.78,2.88-.05,5.77-.01,8.65-.01,0,.01,0,.02,0,.03,2.62,0,5.25.13,7.87-.04,1.91-.12,2.82.69,3.57,2.31Zm-9.17-24.64c1.6,4.12,3.39,8.16,5.07,12.25.2.49.43.94.69,1.39,1.07,1.88.86,2.29-1.19,2.29-5.59.01-11.19-.03-16.78.02-1.96.02-3.15-.73-4.14-2.52-1.26-2.28-2.52-4.61-3.63-6.92-1.15-2.38-1.91-4.97-3.3-7.3-.65-1.09-.1-1.82,1.21-1.83,3.23-.04,6.47-.01,9.7-.01v.04c2.8,0,5.6.07,8.39-.02,2.01-.06,3.24.68,3.99,2.61Zm-19.11-27.53c2.56-.12,4.12,1.07,5.34,2.96,2.79,4.3,5.5,8.66,8.23,13,.23.37.41.77.54,1.18.22.65-.1,1-.73,1.07-.43.05-.87.02-1.31.02-5.95-.01-11.9-.05-17.85-.02-1.87,0-3.21-.58-4.5-2.09-2.38-2.79-4.17-5.96-6.33-8.88-1.45-1.96-2.65-4.1-4.32-5.9-.42-.45-.83-1-.58-1.64.28-.74,1-.53,1.6-.51,3.49.15,6.99.29,10.48.44,0,.02,0,.04,0,.05,3.15.13,6.3.47,9.44.32Zm-20.39-25.57c1.78.12,3.31.63,4.61,2.02,4.57,4.88,8.97,9.93,13.39,14.94.23.26.51.5.69.79.59.97.26,1.73-.81,1.94-.25.05-.53.07-.78.03-3.98-.61-8.04-.2-12.02-.91-3.45-.62-6.98-.42-10.47-.69-1.95-.16-3.52-.69-5.09-2.11-4.7-4.26-9.41-8.51-13.95-12.95-1.3-1.27-2.74-2.41-4.15-3.57-.49-.4-1.07-.81-.9-1.45.26-.95,1.16-.43,1.62-.57,6.87.67,13.57,1.35,20.27,1.98,2.53.24,5.06.39,7.59.56Zm-110.6-50.58c.21-1.39,1.89-.43,2.92-.52.26-.02.52.02.79.04,5.96.34,11.85,1.25,17.71,2.35,5.06.95,10.12,2,15.09,3.33,4.71,1.26,9.39,2.71,13.83,4.82,2.18,1.03,4.63,1.34,6.77,2.54.56.31,1.21.42.96,1.21-.2.62-.82.49-1.34.53-1.38.12-2.43-.81-3.7-1.1-5.72-1.29-11.41-2.7-17.11-4.06-6.46-1.54-12.91-3.17-19.39-4.6-4.61-1.01-9.12-2.45-13.82-3.09-1.04-.14-2.88-.18-2.69-1.45Zm-363.97,12.56c3.84-.98,7.3-2.89,11.02-4.18,4.38-1.51,8.79-2.93,13.28-4.06,4.91-1.23,9.85-2.26,14.86-3.1,7.97-1.34,15.99-1.8,24.04-2.03.68-.02,1.4-.14,2.22.48-6.98,3.61-60.81,16.3-69.37,15.3,1.02-1.44,2.53-2.05,3.95-2.42Zm-49.34,30.83c1.27-.78,2.34-1.81,3.51-2.71,6.49-5,13.01-9.97,19.58-14.87,1.39-1.04,3.12-1.5,4.88-1.72,7.21-.89,14.46-1.57,21.62-2.73,9.25-1.5,18.47-3.2,27.62-5.17,8.29-1.78,16.53-3.83,24.71-6.1,5.9-1.64,11.81-3.22,17.73-4.77,1.34-.35,2.69-.88,4.12-.66.91.14,1.4-.62,2.12-.86,2.9-.97,5.85-1.69,8.86-2.23,4.66-.82,9.28-1.82,14.02-2.14,10.51-.72,21.03-.42,31.54-.42,27.44-.01,54.88,0,82.31,0,34.89.21,69.78.04,104.67-.13,9.76-.05,19.42,1,28.94,3.13,5.97,1.33,11.9,2.88,17.84,4.33,4.64,1.13,9.31,2.18,13.91,3.44,6.07,1.67,12.31,2.62,18.38,4.31,5.31,1.48,10.74,2.5,16.15,3.6,2.15.44,4.24,1.06,6.37,1.56,5.36,1.25,10.8,2.11,16.26,2.82,1.48.19,2.95.51,4.43.56,2.15.07,3.37,1.78,4.85,2.82,6.28,4.38,12.36,9.05,18.53,13.59,1.34.99,2.74,1.89,4.07,2.88.59.44,1.61.83,1.29,1.74-.37,1.05-1.36.4-2.06.33-8.7-.95-17.41-1.92-26.11-2.89-1.39-.15-2.8-.23-4.18-.43-5.26-.77-10.07-2.86-14.75-5.23-3.91-1.98-7.9-3.7-11.94-5.38-4.18-1.74-8.51-3.01-12.78-4.44-6.49-2.18-13.21-3.27-19.94-4.43-5.22-.9-10.46-.9-15.69-1.31-1.69-.13-3.29.48-4.92.79-2.44.46-4.84.43-7.31.13-4.63-.56-9.08-1.83-13.54-3.05-2.34-.64-4.86-.69-7.11-1.36-2.45-.72-4.92-1.17-7.38-1.7-10.1-2.18-20.33-3.67-30.56-5.03-13.3-1.76-26.67-2.56-40.08-2.9-16.74-.43-33.47-1.04-50.21-.91-16.13.13-32.26.57-48.3,2.3-12.01,1.29-23.99,2.94-35.88,5.06-8.18,1.46-16.33,3.11-24.4,5.08-6.86,1.68-13.74,3.28-20.5,5.37-2.38.74-4.89.58-7.31.23-10.51-1.51-20.96-.97-31.42.53-5.84.84-11.61,2.02-17.11,4.01-8.32,3.01-16.54,6.28-24.16,10.95-2.93,1.8-6.44,2.74-9.98,3.02-5.15.41-10.32.7-15.47,1.14-4.45.39-8.88.92-13.32,1.4-.44.05-.87.13-1.3.15-.45.02-.89-.08-1.07-.57-.2-.51.12-.88.48-1.1Zm450.35,260.32c-.79,0-1.68.08-2.07-.78-.43-.96.47-1.41,1-1.91,2.85-2.65,5.54-5.45,7.72-8.69.93-1.38.91-2.11-.11-3.48-1.28-1.73-2.6-1.72-3.86.06-.55.78-.93,1.74-2.03,1.89-.68.09-1.44.23-1.95-.41-.43-.53-.26-1.18-.07-1.76,1.12-3.5,5.38-5.33,8.74-3.78,3.64,1.69,4.88,6.14,2.41,9.38-1.04,1.35-1.82,3.01-3.45,3.88-.64.34-1.08,1-.78,1.77.33.85,1.14.59,1.81.57.7-.03,1.4-.12,2.09-.11,1.11.02,1.8.5,1.82,1.74.02,1.3-.7,1.66-1.82,1.65-1.66-.01-3.33,0-4.99,0h0c-1.49,0-2.98,0-4.46-.01Zm-44.38-11.7c-1.5-3.27-.3-6.64,2.72-7.39,4.22-1.05,6.7.19,8.12,4.06.47,1.28-.16,2.43-.9,3.42-.66.88-.59,1.66.09,2.35,2.03,2.05,2.07,4.39.89,6.76-1.22,2.45-3.45,3.33-6.7,3.19-1.55-.26-3.81-.28-4.93-2.63-1.17-2.47-1.28-4.88.52-7.14.68-.84.66-1.58.18-2.62Zm1.68-29.41c-.35,0-.7,0-1.05,0-.81,0-1.71,0-1.84-1.03-.12-1-.36-2.16.95-2.72.4-.17.78-.41,1.19-.55,3.91-1.39,5.03-4.5,5.03-8.24,0-27.7,0-55.39,0-83.09,0-2.72.09-5.43.12-8.15,0-.59.14-1.37-.67-1.5-.7-.11-1.01.51-1.31,1.08-3.16,6.02-6.91,11.73-9.98,17.78-2.41,4.75-5.4,9.14-7.73,13.92-1.83,3.75-4.25,7.21-6.17,10.92-2.94,5.67-6.47,10.99-9.46,16.64-2.64,5-5.7,9.78-8.55,14.67-1.06,1.81-2,3.69-3.03,5.51-2.14,3.78-4.29,7.56-6.5,11.3-1.33,2.25-2.5,4.61-3.89,6.85-.9,1.44-1.33,3.17-2.31,4.63-.97,1.43-1.35,1.44-2.3-.07-2.08-3.3-3.56-6.92-5.53-10.29-2.55-4.37-4.81-8.91-7.21-13.36-2.85-5.3-5.73-10.59-8.56-15.9-3.32-6.23-6.56-12.5-9.98-18.68-2.86-5.17-5.29-10.58-8.39-15.62-1.31-2.14-1.84-4.74-3.82-6.47-.66-.58-.41-1.45-.76-2.17-1.64-3.38-3.63-6.57-5.47-9.83-.78-1.37-1.4-2.79-1.93-4.24-.84-2.32-2.54-4.16-3.38-6.47-.12-.34-.46-.58-.83-.51-.37.07-.54.41-.58.77-.04.35-.05.7-.05,1.05,0,15.42,0,30.85,0,46.27.04,0,.07,0,.11,0,0,14.99,0,29.98,0,44.96,0,1.65.03,3.24.84,4.84,1.06,2.08,3.05,2.79,4.81,3.83,1.43.85,2,1.54,1.66,2.75-.4,1.44-1.61,1.09-2.61,1.09-10.43.01-20.86,0-31.3,0-3.24,0-6.49,0-9.73.01-.88,0-1.89.09-2.09-1.07-.2-1.15-.18-2.29,1.23-2.81.57-.21,1.07-.62,1.64-.81,3.36-1.07,4.5-3.56,4.5-6.85-.01-9.12,0-18.23,0-27.35,0-34.45,0-68.89,0-103.34,0-.09-.01-.18,0-.26.61-4.4-1.65-6.89-5.54-8.26-1.05-.37-1.9-.81-1.9-2.15,0-1.52.41-2.09,1.95-2.13,2.1-.05,4.21.03,6.31.03,16.31,0,32.61,0,48.92,0,1.12,0,2.36-.23,2.9,1.18.44,1.16,0,2.21-1.38,3.02-1.52.9-2.9,1.81-3.59,3.62-1.06,2.78.01,5.18,1.24,7.44,5.13,9.44,10.13,18.94,15.06,28.48,2.71,5.24,5.32,10.55,8.43,15.59,2.32,3.76,4.18,7.79,6.25,11.7.81,1.53,1.8,3,2.43,4.61,1.26,3.23,3.41,5.98,4.79,9.14,1.18,2.72,2.87,5.18,4.08,7.91.85,1.91,2.21,1.95,2.88.06,1.11-3.14,3.66-5.47,4.51-8.75.25-.95,1.02-1.97,1.63-2.79,3.13-4.24,5.12-9.1,7.76-13.6,1.97-3.36,3.77-6.83,5.64-10.25.25-.46.48-.93.7-1.41,3.01-6.83,7.19-13.04,10.66-19.61,2.56-4.85,5.49-9.49,7.86-14.47,1.35-2.85,3.01-5.61,4.48-8.43.58-1.12,1.11-2.35,1.23-3.7.25-2.92-.79-4.67-3.6-5.59-1.18-.39-2.1-.78-2.05-2.24.05-1.4.4-1.89,1.87-1.92,2.72-.05,5.43,0,8.15,0,15.43,0,30.86,0,46.29-.02,1.13,0,2.37-.26,2.6,1.42.22,1.59-.21,2.3-1.88,2.92-4.11,1.54-5.4,3.31-5.4,7.65-.02,43.56-.02,87.12-.02,130.68,0,.79.08,1.58.09,2.36.03,2.7,1.73,4.13,3.91,5.21.62.31,1.24.62,1.85.95,1.25.69,1.69,1.6,1.35,2.72-.33,1.1-1.23,1.08-2.12,1.08-1.58,0-3.16-.02-4.73-.02-12.89,0-25.77,0-38.66,0Zm-42.54,33.47c-2.47-1.21-3.91-2.81-3.9-5.55.01-3.07.95-4.81,3.4-5.9,3.88-1.73,8.33,1.11,8.37,5.34.06,1.17-.34,2.25-.83,3.25-1.57,3.21-3.23,6.37-4.85,9.55-.48.95-1.19,1.21-2.16.77-1.09-.49-1.4-1.17-.77-2.32.54-.99.93-2.05,1.59-2.99.88-1.26.64-1.42-.85-2.15Zm-46.08-8.17c-.64-.16-.86-.5-.66-1.13.29-.87.77-1.56,1.7-1.84.17-.05.34-.1.51-.13,3.77-.74,4.66,0,4.64,3.79-.01,1.92,0,3.84,0,5.77h.01c0,2.45.03,4.89,0,7.34-.02,1.6-.49,2.04-2.01,2.02-1.37-.01-1.75-.38-1.76-1.96-.02-3.58.01-7.16.02-10.75,0-2.47.01-2.48-2.45-3.11Zm-69.58-217.85c.03,1.92.1,3.85.09,5.77,0,1.78-.39,2.2-1.82,2.21-1.26,0-1.59-.37-1.61-2.09-.03-2.19,0-4.37,0-6.56-.02,0-.05,0-.07,0,0-2.27,0-4.55,0-6.82,0-.81-.04-1.68.87-2,1.04-.36,2.15-.32,2.86.67,1.81,2.56,3.88,4.93,5.4,7.69.17.3.24.67.45.94.35.45.86.62,1.4.42.51-.19.45-.7.44-1.12-.07-2.27-.15-4.55-.24-6.82-.03-.85.14-1.56,1.05-1.89,1.36-.48,2.56.18,2.59,1.65.09,4.55.08,9.1.08,13.64,0,.88-.07,1.85-1.16,2.1-1.08.25-2.1.09-2.8-.91-1.81-2.55-3.61-5.09-5.42-7.64-.3-.42-.54-.89-.87-1.28-.15-.18-.46-.32-.68-.3-.38.04-.56.38-.57.76,0,.52.03,1.05.03,1.57Zm-11.57,224.08h0c0-2.45-.03-4.9,0-7.35.03-1.92.17-2.04,2.14-2.07,2.1-.03,4.2-.06,6.3-.02,1.6.03,2,.42,2.02,1.74.02,1.29-.35,1.62-2.05,1.68-1.05.04-2.1-.02-3.15-.05-1.3-.04-1.64.81-1.71,1.86-.07,1.16.47,1.81,1.71,1.79,1.14-.02,2.28-.03,3.41-.03,1.19,0,1.77.61,1.79,1.77.02,1.22-.62,1.74-1.8,1.7-1.14-.04-2.28-.04-3.41-.07-1.08-.03-1.64.46-1.63,1.56,0,.35-.01.7-.01,1.05,0,2.56.09,2.65,2.66,2.64.96,0,1.93-.05,2.88.04.9.09,1.37.65,1.35,1.61-.02.99-.36,1.79-1.45,1.81-2.54.06-5.08.06-7.61,0-1.09-.02-1.46-.77-1.45-1.79.02-2.63,0-5.25,0-7.88Zm-46.1,4.25c2.07,2.53,6.02,3.23,8.83,1.6.38-.22.61-.58.9-.87,1.06-1.06,1.8-1.02,2.65-.06,1.02,1.14,1.03,1.94-.21,2.87-1.98,1.49-4.13,2.64-6.62,2.48-8.39.29-12.01-8.65-9.69-14.22,2.2-5.28,10.78-8.09,16.25-3.6.9.73,1.21,1.55.54,2.48-.65.9-1.58,1.05-2.53.38-.36-.25-.65-.59-1.01-.83-2.8-1.79-6.59-1.17-9.02,1.47-1.85,2-1.89,6.11-.07,8.31Zm-3.59-35.8c-.44,0-.88,0-1.31,0-.93-.03-1.78-.19-1.86-1.37-.07-1.07.27-1.98,1.42-2.18,1.09-.19,1.9-.8,2.76-1.41,3.53-2.5,3.95-4.92,2.26-8.98-1.83-4.39-3.79-8.72-5.87-12.99-1.68-3.45-3.44-6.88-4.95-10.41-.67-1.55-1.55-2.14-3.16-2.11-3.33.06-6.66.02-9.99.02-7.8,0-15.61,0-23.41,0h0c-10.87,0-21.74,0-32.62.01-2.66,0-3.1.31-4.12,2.75-1.66,3.95-3.73,7.68-5.69,11.48-1.17,2.27-2.45,4.54-3.22,7.06-.54,1.79-1.65,3.37-1.98,5.31-.73,4.35.23,6.29,4.25,8.11.79.36,1.52.86,2.28,1.29.96.54.88,1.43.73,2.31-.15.87-.87,1.03-1.58,1.1-.52.05-1.05.03-1.58.03-15.26,0-30.51,0-45.77,0-.35,0-.7.04-1.05.01-.83-.08-1.57-.36-1.73-1.3-.17-.97.18-1.76,1.07-2.18.94-.44,1.9-.88,2.84-1.26,3.55-1.42,5.53-4.33,6.97-7.48,1.22-2.66,3.3-4.99,3.52-8.09,2.14-2.27,2.89-5.29,4.26-7.97,2.85-5.6,5.45-11.32,8.25-16.94,1.75-3.5,3.18-7.15,4.93-10.63,1.28-2.54,2.55-5.1,3.82-7.66,2.77-5.63,5.56-11.26,8.32-16.9,1.69-3.45,3.58-6.83,4.97-10.4,1.69-4.36,3.96-8.44,5.87-12.69,1.15-2.55,2.5-5,3.65-7.55,1.61-3.57,3.39-7.06,4.98-10.64.83-1.87,1.24-4.1,2.85-5.64.9-.86.88-2.19,1.43-3.27,1.67-3.3,3.67-6.47,4.58-10.14,1.01-4.09.58-7.04-4.86-9.94-1.22-.65-1.69-1.46-1.54-2.7.16-1.34,1.17-1.6,2.31-1.6,2.28,0,4.56,0,6.84,0,14.55,0,29.11,0,43.66-.03,1.11,0,2.14-.1,2.37,1.37.23,1.44-.21,2.3-1.59,2.87-.48.2-.96.34-1.41.65-3.73,2.49-4.57,5.04-3.08,9.41,1.2,3.5,3.22,6.59,4.81,9.9,1.91,4,3.86,7.99,5.91,11.93,2.42,4.66,4.52,9.47,7.07,14.06,1.35,2.44,2.39,5.05,3.63,7.56,2.98,6.03,6.02,12.03,9,18.06,2.2,4.46,4.34,8.96,6.52,13.44,1.37,2.83,2.68,5.69,4.16,8.46,2.21,4.12,3.9,8.52,6.22,12.55,3.04,5.29,5.23,10.98,8.15,16.32,3.39,6.2,6.56,12.52,9.9,18.76.91,1.7,2.23,3.17,4.02,3.99,1.5.69,2.84,1.73,4.49,2.09,1.27.28,1.33,1.26,1.26,2.25-.08,1.15-.9,1.36-1.87,1.35-2.89-.02-5.79-.03-8.68-.03-14.47,0-28.93,0-43.4,0Zm-45.74,31.49c.03,2.54.1,5.08.11,7.62,0,1.69-.3,2-1.66,2.03-1.5.03-1.97-.41-2-2.05-.04-2.45,0-4.91,0-7.36h.01c0-2.45,0-4.91,0-7.36,0-.88-.14-1.89,1.02-2.12,1.02-.21,2.14-.35,2.91.64.69.89,1.41,1.79,1.94,2.78,1.22,2.32,3.13,4.18,4.27,6.56.21.43.49,1.04,1.13.88.81-.21.6-.95.6-1.53-.03-2.45-.1-4.91-.1-7.36,0-1.72.38-2.1,1.89-2.07,1.31.02,1.74.44,1.75,2.01.04,4.99,0,9.99.05,14.98,0,.89-.2,1.62-1.08,1.87-1.05.3-2.1.23-2.87-.72-.71-.88-1.39-1.84-1.92-2.78-1.12-1.99-2.79-3.61-3.63-5.75-.12-.31-.33-.61-.55-.87-.38-.45-.72-1.13-1.46-.8-.57.26-.39.91-.39,1.4Zm-40.44-7.41c.02-1.65.46-2.05,1.99-2,1.36.04,1.75.41,1.76,1.99.03,4.99.02,9.98-.01,14.97,0,1.35-.83,2.1-2.08,2.1-1.21,0-1.64-.5-1.66-2.1-.03-2.54,0-5.08,0-7.62,0-2.45-.02-4.9.01-7.35Zm-36.89,10.59c-1.7-1.62-3.37-3.26-5.03-4.92-1.42-1.43-2.03-3.14-1.13-5.03.89-1.88,2.45-2.92,4.6-2.96,1.52-.03,2.91.32,4.14,1.25,1.56,1.19,1.6,2.15.13,3.35-.63.51-1.29.52-1.91.02-.26-.21-.37-.62-.64-.81-.85-.58-1.82-.89-2.6.02-.72.84-.25,1.64.46,2.28.91.82,1.86,1.6,2.77,2.43.78.7,1.56,1.41,2.28,2.18,1.47,1.56,2.26,3.37,1.42,5.5-.88,2.23-3.41,3.88-5.47,3.87-2.56.04-4.19-1.33-5.8-2.67-.77-.64-.62-1.42.14-1.99.77-.57,1.49-1.82,2.64-.69.56.55,1.04,1.19,1.75,1.55,1.04.53,2.24.23,2.82-.62.61-.91.38-1.85-.57-2.75Zm-2.13-213.17c.1.95.23,1.91.35,2.86.15,1.13-.15,1.87-1.46,1.93-1.42.07-1.87-.2-2.1-1.66-.37-2.33-.69-4.66-1.01-7-.28-2.08-.52-4.16-.77-6.24-.25-2.09-.01-2.39,2.15-2.62.95-.1,1.92-.13,2.87-.19,2.59-.28,4.85.07,6.29,2.65,1.45,2.58.9,5.22-1.66,6.78-.87.53-1.83.94-2.91,1.1-1.89.27-1.96.46-1.75,2.39Zm37.09-7.7c-.22-2.35-.54-4.69-.83-7.04-.17-1.36.22-1.93,1.51-2.14,1.11-.18,1.89.15,2.1,1.37.57,3.28,1.09,6.56,1.18,9.37.43,3.77-.17,5.21-3.1,6.73-2.74,1.42-5.87.74-7.93-1.41-.51-.53-.77-1.13-.87-1.86-.56-3.81-.98-7.64-1.21-11.48-.1-1.58.71-2.19,2.26-1.97,1.15.16,1.27.96,1.36,1.9.29,2.87.64,5.74.99,8.6.09.78.18,1.57.66,2.24.54.77,1.22,1.27,2.21,1.1.98-.17,1.61-.85,1.7-1.76.12-1.21.09-2.45-.02-3.66Zm251.92-.93c.14.95.87,1.5,1.76,1.76,1.04.3,1.65-.4,2.18-1.1.73-.95.78-2.11.83-3.25.12-2.54.21-5.07.37-7.61.12-1.86.76-2.41,2.36-2.22,1.35.16,1.64.68,1.5,2.43-.25,3.23-.6,6.45-.81,9.68-.27,4.14-3.45,6.39-7.5,5.59-2.59-.51-4.33-2.46-4.44-5.11-.08-1.83-.01-3.68-.01-5.51.07,0,.14,0,.21,0,.09-1.92.21-3.85.27-5.77.03-1.12.36-1.85,1.66-1.83,1.36.02,1.85.41,1.82,1.94-.04,2.71-.22,5.43-.3,8.14-.03.96-.03,1.93.11,2.88Zm1.53-46.91c-7.24,1.4-14.59,1.68-21.85,2.82-4.75.75-9.58,1.06-14.38,1.47-8.03.69-16.05,1.43-24.09,1.94-21.97,1.4-43.96,1.79-65.97,1.24-10.95-.27-21.9-.74-32.82-1.65-7.5-.63-14.98-1.62-22.48-2.26-6.9-.59-13.73-1.71-20.56-2.76-4.32-.67-8.65-1.29-12.96-1.98-.51-.08-1.13-.17-1.1-.85.02-.48.55-.64.97-.75.68-.18,1.36-.35,2.04-.49,9.41-2.01,18.74-4.4,28.22-6.13,5-.91,10.02-1.61,15.05-2.34,6.68-.98,13.38-1.7,20.08-2.44,15.35-1.71,30.74-2.38,46.17-2.53,5.26-.05,10.52,0,15.78,0,16.13-.17,32.26.1,48.34,1.43,9.67.8,19.36,1.57,28.97,3.14,4.75.78,9.59,1.09,14.31,2.01,5.74,1.12,11.53,2.02,17.21,3.49,2.03.52,4.12.85,6.18,1.26.53.11,1.12.28,1.11.91-.02.73-.73.62-1.2.69-4.69.6-9.39,1.15-14.03,2.08-4.29.86-8.71.91-12.97,1.73Zm-33.79,43.15c.13,0,.25,0,.38,0,0-1.75.02-3.5,0-5.26-.02-1.79-.23-2.05-2.08-2.24-.96-.1-1.78-.18-1.72-1.43.06-1.21.73-1.69,1.89-1.67,2.37.05,4.73.07,7.1.13.43.01.88.09,1.27.25.7.28,1.13.79,1.09,1.61-.05.92-.7,1.11-1.43,1.23-2.54.43-2.55.43-2.61,3.05-.08,3.15-.11,6.31-.22,9.46-.06,1.75-.5,2.15-1.93,2.14-1.2,0-1.76-.54-1.74-1.76.03-1.84,0-3.68,0-5.52Zm-22.98,6.66c-1.1.03-2.23-.1-2.65-1.26-.89-2.43-2.59-3.1-4.86-2.5-2.28-.6-3.56.2-4.17,2.42-.32,1.16-2.5,1.64-3.59,1-.59-.34-.52-.9-.3-1.37,2.29-5,4.59-10.01,6.94-14.98.57-1.21,2.38-1.38,3.33-.4.36.37.7.83.86,1.3,1.19,3.36,2.95,6.49,3.92,9.95.39,1.41,1.25,2.67,1.78,4.05.51,1.32.17,1.75-1.26,1.79Zm-94.08-10.8c-1.8-2.22-1.54-3.58.82-5.72,1.62-1.47,3.88-1.42,5.54.12,2.15,2,2.24,3.63.22,5.77-.37.39-.78.71-.73,1.3.07.72.22,1.38,1.1,1.56.8.16,1.31.04,1.47-.93.16-.97.9-1.66,1.54-2.35.5-.55,1.25-.68,1.92-.26.66.41.46,1.03.26,1.63-.27.83-.61,1.62-.99,2.41-.73,1.5-.56,1.95.81,3.03.62.49,1.27.93,1.86,1.44.73.62.75,1.32.12,2.05-.71.83-1.78.97-2.48.3-.25-.24-.39-.58-.63-.83-1.33-1.43-1.61-1.42-3.05.04-2.23,2.25-5.55,2.47-8.09.54-1.22-.92-1.69-2.17-1.72-4,.04-1.18.36-2.56,1.79-3.49,1.08-.7,1.13-1.52.25-2.6Zm-38.31.52c.1,1.54.45,1.97,1.81,1.96.96,0,1.92-.18,2.88-.22,1.4-.06,2.01.4,1.99,1.45-.02,1.14-.74,1.47-1.74,1.46-.96,0-1.93.01-2.89,0-1.17-.02-1.73.48-1.79,1.72-.11,2.59.35,3.08,2.99,2.88.7-.05,1.39-.15,2.09-.19.98-.05,1.8.23,1.8,1.38,0,.98-.53,1.7-1.57,1.75-1.31.06-2.62.02-3.94.02,0,.02,0,.04,0,.06-1.05.06-2.1.1-3.14.17-1.09.08-1.64-.41-1.69-1.49-.07-1.4-.16-2.8-.24-4.19-.18-3.23-.36-6.46-.54-9.69-.1-1.82.04-2.02,1.74-2.15,2.27-.18,4.54-.31,6.8-.47.9-.06,1.6.18,1.63,1.22.03.94-.25,1.78-1.36,1.88-1.04.09-2.1.02-3.15.1-1.39.11-1.78.7-1.67,2.34Zm-27.27,5.87q-2.3,2.07-.18,4.28c.3.31.68.58.9.95.45.73,1.62,1.39.65,2.41-.69.73-2.62.48-3.36-.4-1.05-1.26-1.99-2.62-2.96-3.95-.2-.28-.25-.66-.46-.93-.27-.36-.67-.61-1.13-.51-.71.17-.59.77-.52,1.27.15,1.13.41,2.24.5,3.37.13,1.68-.3,2.22-1.71,2.34-1.29.11-1.72-.24-1.9-1.87-.51-4.69-.96-9.39-1.43-14.09-.12-1.14.56-1.58,1.55-1.68,1.65-.17,3.32-.12,4.44-.41,1.96-.09,3.31.28,4.57.92,2.94,1.5,3.5,6.09,1.03,8.3Zm245.28,5.22c.4-4.18.78-8.37,1.2-12.55.2-1.99.79-2.52,2.76-2.04,1.97.47,4.01.22,5.96.87,2.07.69,3.25,2.08,3.56,4.11.33,2.15-.41,3.97-2.3,5.21-.22.14-.46.25-.68.39-1.67,1.01-1.73,1.16-.69,2.8.7,1.11,1.52,2.15,2.18,3.28.63,1.07.28,1.62-.99,1.68-1.5.07-2.83-.24-3.37-1.87-.47-1.42-1.54-2.54-1.87-4.03-.14-.61-.48-1.27-1.19-1.2-.86.08-.63.89-.67,1.46-.07.96-.05,1.93-.15,2.88-.18,1.6-.71,2.05-2.15,1.94-1.3-.09-1.59-.48-1.59-2.15,0-.26.02-.53.04-.79-.01,0-.02,0-.04,0Zm32.72,3.02c2.5-4.48,5.04-8.94,7.57-13.4.38-.67,1.03-1.12,1.74-.88.91.31,1.97.29,2.49,1.54.71,1.71.81,3.53,1.38,5.25,1.02,3.06,1.9,6.16,2.77,9.27.42,1.51-.02,2.03-1.55,1.94-1.08.1-1.59-.66-2.03-1.59-.47-1.01-.71-2.29-2.01-2.56-1.71-.36-3.47-.49-5.2-.3-.8.09-1.24.9-1.65,1.58-.42.68-.83,1.38-1.73,1.44-.77.04-1.68.27-2.23-.39-.57-.68.15-1.33.46-1.89Zm42.63,3.81c.7.08,1.4.05,2.1.14,1.01.12,1.63.64,1.5,1.75-.13,1.09-.86,1.61-1.84,1.34-1.97-.54-4.01-.36-5.99-.74-1.99-.38-2.06-.6-1.71-2.55.63-3.53,1.12-7.09,1.65-10.63.14-.95.26-1.91.35-2.87.11-1.26.83-1.64,1.81-1.48,1.66.19,2,.73,1.75,2.33-.54,3.46-1.07,6.92-1.54,10.39-.24,1.77.11,2.14,1.92,2.34Zm-480.59-18.22c2.26-2.18,4.17-4.65,6.22-7.01,1.65-1.9,3.46-3.68,5.02-5.65,2.7-3.41,6.37-4.38,10.44-4.45,6.92-.11,13.81-.61,20.72-.92,1.37-.06,2.71-.66,4.39-.22-.72,1.35-1.37,2.19-2.5,2.85-1.48.86-2.75,2.13-4.03,3.31-1.92,1.76-3.81,3.55-5.65,5.4-2.31,2.33-5.06,4.18-7.29,6.62-.85.93-2.13,1.38-3.53,1.54-7.58.86-15.2.84-22.8,1.15-.6.02-1.29.08-1.66-.54-.52-.89.23-1.67.66-2.08Zm-16.52,25.81c.26-.54.49-1.11.81-1.62,2.75-4.34,5.54-8.65,8.28-13,1.13-1.79,2.68-2.63,4.8-2.6,3.32.05,6.65.01,9.97.01,0-.04,0-.08,0-.12,3.32,0,6.65,0,9.97,0,.6,0,1.31-.11,1.63.55.34.7-.3,1.08-.66,1.55-2.96,3.87-5.88,7.77-8.47,11.91-.67,1.07-1.51,2.09-2.36,2.96-.98,1-2.34,1.61-3.97,1.59-6.03-.08-12.07-.03-18.1-.03-.43,0-.88.03-1.3-.07-.59-.14-.9-.51-.59-1.15Zm-11.02,24.47c1.17-2.24,1.79-4.69,2.95-6.93.35-.68.67-1.39.84-2.18.49-2.29,1.88-4.17,3-6.17.66-1.18,1.8-1.65,3.1-1.66,6.13-.04,12.27-.08,18.4-.07,1.43,0,1.77.52,1.09,1.78-2.68,4.92-4.74,10.13-7.18,15.16-.71,1.46-1.93,1.9-3.45,1.88-2.89-.03-5.78,0-8.68,0v-.02c-2.89,0-5.78.02-8.68,0-1.71-.02-2.12-.42-1.41-1.78Zm-6.93,24.5c.97-3.79,2.48-7.45,2.74-11.41.08-1.23.81-2.22,1.11-3.38.31-1.23,1.58-1.71,2.96-1.7,3.42.03,6.84-.02,10.26-.03,2.19,0,4.38-.06,6.58-.01,1.67.03,1.85.24,1.46,1.85-.94,3.89-1.44,7.9-3.23,11.56-.29.6-.2,1.37-.34,2.05-.47,2.28-1.28,2.97-3.58,2.99-2.72.03-5.44,0-8.15,0v.02c-2.81,0-5.61.04-8.42-.02-1.62-.03-1.77-.42-1.38-1.92Zm-3.67,24.69c.46-4.97,1.73-9.82,2.17-14.79.14-1.64.93-2.15,2.73-2.18,2.71-.05,5.43-.01,8.15-.01,0,.01,0,.03,0,.04,2.63,0,5.26-.03,7.88.01,1.74.03,2,.3,1.77,2.04-.65,4.77-1.33,9.53-2.08,14.28-.3,1.89-1.12,2.57-3.03,2.59-5.25.06-10.51.07-15.77.05-1.77,0-1.98-.27-1.81-2.01Zm-.21,9.69c0-1.26.65-1.67,1.81-1.66,2.71.03,5.42,0,8.13,0,0-.01,0-.03,0-.04,2.71,0,5.42-.02,8.13,0,1.88.02,2.16.27,2.17,2.1.03,4.72.02,9.43-.01,14.15-.01,1.73-.27,2.02-1.97,2.03-5.5.04-11.01,0-16.51.03-1.21,0-1.73-.45-1.73-1.69.03-4.98.01-9.96,0-14.94Zm2.18,37.2c-.47-3.55-1.12-7.08-1.69-10.62-.08-.52-.2-1.03-.25-1.56-.15-1.82.12-2.11,2.03-2.12,2.71-.02,5.43,0,8.15,0v.04c2.72,0,5.43-.03,8.15.01,1.87.03,2.14.29,2.4,2.04.67,4.59,1.34,9.17,1.96,13.77.33,2.42.21,2.5-2.27,2.49-4.64-.01-9.28-.02-13.93-.03-3.89,0-4.05-.22-4.55-4.02Zm12.78,45.43c-1.89-4.05-2.75-8.42-4.35-12.55-1.72-4.46-2.79-9.11-4.05-13.71-.55-2.01-1.33-3.96-1.96-5.95-.73-2.29-.34-2.81,2.08-2.81,2.54,0,5.08,0,7.62,0h0c2.54,0,5.08.08,7.62-.02,1.47-.06,2.37.51,2.74,1.86.74,2.69,2.08,5.17,2.62,7.93.21,1.06.91,2,1.32,3,2.35,5.72,4.81,11.41,6.75,17.28.9,2.71,2.12,5.27,3.01,7.96.59,1.79.33,2.15-1.59,2.15-4.81,0-9.63.01-14.44-.05-4.12-.05-5.65-1.41-7.36-5.08Zm15.11,28.05c-1.73-2.82-3.41-5.67-5.16-8.48-1.14-1.83-2.04-3.84-3.54-5.43-.45-.47-.7-.98-.8-1.6-.14-.86.16-1.36,1.06-1.41.26-.01.52,0,.79,0,6.04.05,12.08.2,18.11.11,2.16-.03,3.57.9,4.54,2.52,2.27,3.81,5.06,7.26,7.48,10.96.84,1.29,1.23,2.83,2.5,3.91.84.71.47,1.44-.64,1.47-1.49.04-2.97-.05-4.46-.05-2.19-.01-4.38,0-6.56,0v.03c-3.15,0-6.3-.02-9.45,0-1.68.02-2.87-.41-3.87-2.04Zm23.32,25.98c-.87.01-1.74-.07-2.61-.16-.71-.07-1.43-.35-1.79-.95-1.99-3.32-4.98-5.8-7.3-8.83-1.59-2.08-3.04-4.27-5-6.04-.55-.5-.88-1.12-.6-1.87.3-.81,1.03-.85,1.75-.85,3.59,0,7.18,0,10.78,0h0c3.24,0,6.48.04,9.72,0,1.77-.03,3.17.54,4.43,1.83,4.16,4.22,8.41,8.34,12.59,12.55.71.71,1.94,1.46,1.59,2.51-.4,1.19-1.82.65-2.81.73-6.9.55-13.8.99-20.72,1.1Zm22.21,22.13c-2.37-1.6-4.41-3.58-6.65-5.33-3.09-2.41-6.18-4.82-9.25-7.25-.93-.74-2.52-1.38-2.19-2.66.4-1.53,2.1-.75,3.19-.76,5.28-.06,10.45-1.06,15.67-1.63,3.64-.4,7.11.08,10.52,1.53,3.42,1.45,6.52,3.32,9.45,5.59,3.32,2.58,7.23,4.22,10.85,6.33.52.3,1.46.28,1.36,1.3-.11,1.12-1.01.78-1.6.87-6.85.94-13.71,1.8-20.61,2.35-2.18.17-4.36.45-7.23.75-.84.15-2.17-.18-3.51-1.08Zm42.38,20.74c-3.06.79-5.6-.2-8.23-1.52-2.62-1.32-5.16-2.8-8.04-3.69-2.63-.81-5.09-2.23-7.52-3.58-2.06-1.15-4.17-2.18-6.34-3.08-.32-.13-.64-.29-.93-.47-.3-.18-.6-.41-.61-.8-.01-.53.4-.77.82-.85,1.98-.36,3.95-.74,5.95-1,6.14-.79,12.37-1.14,18.42-2.4,4.78-.99,9.35-.98,13.96.23,2.52.66,4.98,1.58,7.48,2.34,6.1,1.86,12.29,3.37,18.51,4.76,1.43.32,2.84.67,4.16,1.27-.02.22-.05.43-.07.65-2.93.78-5.85,1.61-8.8,2.33-1.7.41-3.44.62-5.16.95-4.54.88-9.12,1.6-13.6,2.71-3.32.82-6.7,1.3-10,2.14Zm332.29,12.17c-49.8-.02-99.6-.07-149.4-.09-30.95-.01-61.9,0-92.85,0-2.19,0-4.38.07-6.57.1-.61,0-1.23,0-1.83-.09-.41-.06-.9-.13-.87-.74.03-.46.44-.51.75-.59,1.02-.25,2.04-.5,3.08-.68,7.33-1.31,14.66-2.57,21.98-3.92,13.1-2.42,26.31-4.04,39.52-5.62,7.56-.9,15.21-1.03,22.81-1.7,20.91-1.85,41.86-1.6,62.8-1.01,4.72.13,9.44.39,14.16.88,7.58.78,15.22.93,22.8,1.82,8.09.96,16.2,1.81,24.25,3.01,9.93,1.48,19.84,3.15,29.71,4.99,3.44.64,6.88,1.31,10.31,1.98.64.13,1.44.09,1.7.98-.56.98-1.51.68-2.34.68Zm65.85-7.45c-8.11,2.55-16.36,4.56-24.79,5.65-4.24.55-8.49,1.31-12.81,1.03-.52-.03-1.06.02-1.58-.04-3.17-.35-3.4-.83-1.5-3.33,1.4-1.83,2.34-3.73,1.46-6.06-1.36-3.6-7-5.79-10.42-2.1-.38.41-.49.89-.62,1.4-.45,1.93-.33,3.81.25,5.7.38,1.24.03,1.6-1.26,1.44-2.77-.34-5.41-1.22-8.11-1.88-6.97-1.72-13.92-3.47-20.97-4.87-10.65-2.11-21.36-3.83-32.1-5.41-9.56-1.41-19.17-1.86-28.76-2.72-26.77-2.41-53.58-1.91-80.39-1.24-9.11.23-18.19,1.02-27.26,1.91-4.79.47-9.64.55-14.39,1.29-7.08,1.09-14.25,1.59-21.24,3.33-3.47.86-7.12,1.01-10.61,1.8-5.37,1.22-10.81,2.11-16.15,3.53-6,1.59-12.1,2.76-18.14,4.21-3.4.81-6.78,1.71-10.12,2.74-1.95.61-3.92.98-5.93,1.02-4.64.09-9.22-.37-13.84-1.13-8.47-1.38-16.81-3.42-25.3-4.66-1.19-.18-2.41-.29-3.44-1.56,1.69-.87,3.27-1.1,4.79-1.47,5.95-1.45,11.93-2.82,17.87-4.31,7.54-1.9,15.05-3.94,22.59-5.84,4.75-1.2,9.52-2.32,14.32-3.33,3.6-.76,7.09-1.92,10.74-2.51,7.08-1.14,14.08-2.68,21.18-3.76,9.96-1.51,19.98-2.41,29.98-3.54,7.3-.82,14.66-1.13,21.97-1.87,12.82-1.29,25.7-1.62,38.54-2.61,14.18-1.09,28.38-.94,42.56-.41,10.06.38,20.13.7,30.18,1.55,4.01.34,8.07.11,12.06.77,8.21,1.35,16.57,1.59,24.75,3.1,6.19,1.14,12.43,1.96,18.6,3.27,11.38,2.41,22.76,4.78,33.97,7.95,3.93,1.11,7.83,2.4,11.86,3.25,5.13,1.08,10.13,2.71,15.25,3.88,3.92.9,7.92,1.47,11.81,2.54,1.6.44,3.22.84,4.84,1.21.61.14,1.32.16,1.37.94.05.76-.58.94-1.2,1.13Zm38.38-17.37c-4.94,2.62-9.93,5.16-14.77,7.96-2.37,1.38-4.86,2.38-7.41,3.21-2.69.88-5.56.78-8.3.07-1.44-.37-2.87-.77-4.31-1.14-10.4-2.66-20.95-4.67-31.29-7.59-.56-.16-1.23-.09-1.6-.75.66-1.08,1.78-.97,2.8-1.04,4.11-.3,8.22-.65,12.24-1.6,4.17-.99,8.3-2.11,12.39-3.38,3-.94,6.04-1.75,9.11-2.43,2.79-.62,5.56.15,8.34.49,7.48.92,14.89,2.26,22.33,3.35.8.12,2.1-.07,2.26.92.17,1-.93,1.48-1.79,1.93Zm22.61-16.64c-3.12,2.64-6.61,4.84-9.59,7.66-1.22,1.16-2.75,1.26-4.42,1.11-5.15-.45-10.21-1.43-15.32-2.12-3.64-.49-7.3-.81-10.95-1.21-.58-.06-1.35.09-1.53-.68-.19-.85.5-1.14,1.14-1.5,3.86-2.17,7.77-4.28,11.41-6.82,1.72-1.2,3.57-2.24,5.16-3.58,3.04-2.55,6.5-3.28,10.3-2.77,6.34.85,12.72,1.22,19.09,1.71,1.01.08,2.15-.16,2.91,1.09-2.56,2.56-5.44,4.77-8.21,7.11Zm27.77-29.63c-2.87,4.26-6.64,7.78-9.64,11.94-1.81,2.51-4.31,3.93-7.78,3.67-6.72-.5-13.45-.82-20.15-1.5-.75-.08-1.74.1-2.11-.74-.48-1.07.63-1.54,1.18-2.09,3.96-3.92,8.07-7.69,11.94-11.7,1.96-2.04,4.23-2.53,6.83-2.5,2.89.03,5.77,0,8.66,0,0,.11,0,.22,0,.32,3.32.13,6.65.26,9.97.4.67.03,1.48-.15,1.83.66.31.73-.4,1.05-.73,1.53Zm15.61-24.61c-.73,1.56-1.63,3.06-2.53,4.53-1.9,3.11-3.87,6.17-5.76,9.29-1.07,1.76-2.32,2.84-4.62,2.69-3.04-.21-6.11-.05-9.17-.05,0-.17,0-.33,0-.5-3.23,0-6.47,0-9.7,0-.58,0-1.29.19-1.57-.6-.2-.58.23-.97.51-1.41,1.15-1.75,2.5-3.36,3.76-5.02,1.77-2.32,2.66-5.07,4.21-7.5,1.81-2.86,4.42-3.62,7.38-3.93,1.21-.13,2.45-.05,3.67.05,3.84.31,7.68.35,11.53.12.26-.02.53-.03.79-.01,1.7.11,2.22.82,1.51,2.35Zm16.93-46.09c-1.81,6.72-3.71,13.42-5.99,20-1.31,3.79-2.47,7.63-4.16,11.29-.9,1.96-1.85,3.84-3.14,5.57-.7.94-1.62.92-2.55.94-2.89.04-5.78.01-8.66.01,0,.02,0,.03,0,.05-2.71,0-5.43.01-8.14,0-2.62-.01-2.87-.39-1.75-2.64,2.61-5.21,5.15-10.46,7.09-15.95.77-2.17,1.86-4.29,2.03-6.65.04-.56.26-.93.56-1.38.48-.71.94-1.54,1.07-2.37.47-2.95,1.86-5.63,2.43-8.56.41-2.08,1.35-2.68,3.57-2.68,5.34-.01,10.68-.01,16.02.02,2.05.01,2.16.29,1.61,2.34Zm3.96-24.97c-.88,4.47-1.14,9.02-1.95,13.49-.44,2.4-1.3,3.15-3.7,3.18-4.99.06-9.98.09-14.96.11-1.88,0-2.19-.28-1.99-2.14.47-4.35.95-8.69,1.58-13.02.47-3.2,1.23-3.72,4.54-3.73,2.28,0,4.55,0,6.83,0h0c2.63,0,5.25-.05,7.88,0,1.66.03,2.1.46,1.78,2.1Zm-1.27-8.28c-2.8-.04-5.59-.01-8.39-.01h0c-2.62.01-5.24.02-7.87,0-2.06,0-2.31-.2-2.33-2.2-.04-4.63-.05-9.26-.02-13.89,0-1.64.4-2.05,2-2.06,5.51-.02,11.01.02,16.52,0,1.32,0,1.89.53,1.88,1.88-.04,4.81-.07,9.61,0,14.42.02,1.36-.45,1.88-1.79,1.86Z"/>
    <path class="uuid-18b27cec-ff1c-49ef-857d-892a50199382" d="m405.4,417.51c-3.96-8.06-7.8-16.17-11.42-24.4-2.31-5.25-4.73-10.45-7.1-15.68-.18-.39-.27-.88-.78-.97-.62-.11-.9.36-1.2.8-1.15,1.69-2.1,3.67-2.56,5.49-.7,2.76-2.42,4.9-3.39,7.48-1.91,5.11-4.59,9.93-6.94,14.87-2.61,5.49-5.3,10.93-7.74,16.49-1.01,2.31-1.99,4.63-3.08,6.91-.86,1.81-.49,2.27,1.57,2.3.09,0,.17-.01.26-.01,7.53,0,15.06,0,22.59,0v-.02c7.27,0,14.54,0,21.81,0,.61,0,1.23.1,1.84.05,1.15-.1,1.65-.75,1.15-1.77-1.87-3.77-3.16-7.79-5.01-11.55Z"/>
    <path class="uuid-18b27cec-ff1c-49ef-857d-892a50199382" d="m396.54,571.17c-4-.02-6.64,2.25-6.65,5.72,0,3.37,2.76,6.25,6.05,6.26,3.7,0,6.05-2.51,6.27-6.26.19-3.2-2.27-5.91-5.67-5.72Z"/>
    <path class="uuid-18b27cec-ff1c-49ef-857d-892a50199382" d="m556.11,564.76c-3.27.09-6.38,2.86-6.21,5.97-.03,3.28,2.77,6.12,6.12,6.22,3.31.09,6.12-2.73,6.29-6.09.13-2.6-2.61-6.2-6.2-6.1Z"/>
    <path class="uuid-18b27cec-ff1c-49ef-857d-892a50199382" d="m501.15,562.11c-4.29,0-6.07,3.25-6.31,6.06-.28,3.23,2.98,6.16,6.42,6.26,3.24.09,6.1-3.09,6.09-6.24,0-3.21-3.33-6.52-6.2-6.08Z"/>
    <path class="uuid-18b27cec-ff1c-49ef-857d-892a50199382" d="m446.15,564.69c-2.97-.11-6.04,2.79-5.97,6.18.06,3.45,3.21,6.29,6.17,6.09,3.18-.01,6.1-3.04,6.11-6.24,0-3.56-3.27-5.93-6.31-6.04Z"/>
    <path class="uuid-18b27cec-ff1c-49ef-857d-892a50199382" d="m350.85,583.18c-3.43-.04-6.33,2.6-6.23,5.93.1,3.35,2.16,5.84,5.87,6.04,3.25.17,5.97-2.03,6.17-5.96.18-3.54-2.96-5.88-5.81-6.01Z"/>
    <path class="uuid-18b27cec-ff1c-49ef-857d-892a50199382" d="m606.32,571.18c-3.6-.04-6.08,2.25-6.27,5.66-.17,3.15,2.6,6.27,6.17,6.19,3.9-.09,6-2.96,5.94-5.99-.08-3.84-1.97-5.94-5.84-5.85Z"/>
    <path class="uuid-18b27cec-ff1c-49ef-857d-892a50199382" d="m556,246.5c-2.6-.16-6.34,3.04-6.12,6.24-.11,3.98,2.85,6.06,6.02,6.25,3.11.18,6.55-2.7,6.51-6.15-.03-3.2-3.14-6.14-6.42-6.34Z"/>
    <path class="uuid-18b27cec-ff1c-49ef-857d-892a50199382" d="m501.12,243.82c-3.13-.09-6.29,3.17-6.38,6.48-.08,2.94,3.37,6.13,6.43,6.21,3.18.08,6.12-2.9,6.14-6.23.02-3.54-2.77-6.36-6.19-6.45Z"/>
    <path class="uuid-18b27cec-ff1c-49ef-857d-892a50199382" d="m446.2,246.52c-3.16-.05-6.14,2.93-6.05,6.15-.14,3.52,3.09,6.11,6.14,6.15,2.6.03,6.36-2.54,6.2-6.15-.15-3.24-3.07-6.09-6.29-6.14Z"/>
    <path class="uuid-18b27cec-ff1c-49ef-857d-892a50199382" d="m800.9,466.97c-3.57,0-6.29,2.95-6.12,6.09-.44,3.04,2.57,6.2,6.01,6.13,3.29-.07,5.82-2.23,6.12-5.92.25-3.16-2.85-6.29-6-6.3Z"/>
    <path class="uuid-18b27cec-ff1c-49ef-857d-892a50199382" d="m207.36,473.06c.12-2.88-2.78-6.13-6.15-6.05-3.69.09-6.12,2.56-6.01,6.41.1,3.57,2.41,5.73,6.29,5.74,3.13,0,6.13-3.39,5.87-6.11Z"/>
    <path class="uuid-18b27cec-ff1c-49ef-857d-892a50199382" d="m217.46,320.23c3.65.14,6.11-2.16,6.23-5.82.11-3.67-2.14-6.13-5.49-6.44-2.63-.24-6.44,2.83-6.67,5.8-.2,2.56,2.54,6.62,5.93,6.46Z"/>
    <path class="uuid-18b27cec-ff1c-49ef-857d-892a50199382" d="m783.16,320.2c3.71.27,6.26-3.41,6.26-6.09,0-3.02-3.28-6.15-6.41-6.12-3.08.03-5.99,3.22-6.01,6.42-.02,2.96,2.92,6.1,6.16,5.8Z"/>
    <path class="uuid-18b27cec-ff1c-49ef-857d-892a50199382" d="m191.95,393.82c3.97.27,5.8-3.26,5.95-6.18.17-3.37-3.4-6.03-6.03-6.06-2.88-.03-6.37,3.22-6.23,6.25.16,3.39,2.78,6.01,6.31,5.99Z"/>
    <path class="uuid-18b27cec-ff1c-49ef-857d-892a50199382" d="m810.54,381.62c-3.4-.08-6.12,2.79-6.22,6.29-.1,3.65,3.12,6.15,6.07,5.94,1.65,0,3.09-.32,4.15-1.5,1.18-1.32,1.78-3.03,1.84-4.68.12-3.21-2.74-5.98-5.84-6.05Z"/>
    <path class="uuid-18b27cec-ff1c-49ef-857d-892a50199382" d="m652.62,529.6c1.61-.01,2.9-1.27,2.86-2.77-.04-1.39-1.51-2.85-2.9-2.87-1.45-.02-3.42,1.44-3.42,2.54,0,1.78,1.49,3.11,3.46,3.1Z"/>
    <path class="uuid-18b27cec-ff1c-49ef-857d-892a50199382" d="m652.61,520.59c1.07-.1,1.95-1.07,1.91-2.13-.05-1.29-.95-2.21-2.13-2.18-1.04.03-1.86.94-1.89,2.11-.03,1.16,1.06,2.29,2.11,2.2Z"/>
    <path class="uuid-18b27cec-ff1c-49ef-857d-892a50199382" d="m532.3,296.53c-.23-.51-.22-1.3-1.01-1.29-.6,0-.69.7-1.04,1.05-.54.54-.55,1.25-.65,1.91-.22,1.5.07,1.8,1.64,1.83,1.64.03,1.97-.38,1.58-2.03-.12-.5-.3-.99-.51-1.46Z"/>
    <path class="uuid-18b27cec-ff1c-49ef-857d-892a50199382" d="m372.59,296.41c-1.41.1-1.65.41-1.56,2.04.16,3.01.5,3.64,1.91,3.57,1.98-.09,3.65-1.46,3.65-2.99,0-1.8-1.53-2.8-3.99-2.62Z"/>
    <path class="uuid-18b27cec-ff1c-49ef-857d-892a50199382" d="m629.09,301.84c.96.59,3.68-.13,4.28-1.1.96-1.55.31-3.44-1.37-4.02-2.59-.89-3.3-.38-3.51,2.52-.08.93-.46,1.95.6,2.61Z"/>
    <path class="uuid-18b27cec-ff1c-49ef-857d-892a50199382" d="m447.43,304.73c1.24.05,2.71-.96,2.8-1.92.07-.83-2-2.93-2.95-2.98-.95-.05-1.86,1.07-1.95,2.41-.09,1.39.79,2.43,2.1,2.49Z"/>
    <path class="uuid-18b27cec-ff1c-49ef-857d-892a50199382" d="m447.53,295.38c.73-.03,1.76-1.1,1.68-1.74-.11-.95-.78-1.33-1.64-1.36-.99-.03-1.67.73-1.57,1.66.1.97.8,1.25,1.53,1.43Z"/>
    <path class="uuid-18b27cec-ff1c-49ef-857d-892a50199382" d="m665.6,307.21c1.42,0,1.72-.35,1.44-1.75-.07-.34-.17-.69-.33-1-.37-.74.01-2.01-1.08-2.19-1.3-.22-1.33,1.27-1.78,1.95-1.22,1.88-.48,2.97,1.75,2.98Z"/>
    <path class="uuid-18b27cec-ff1c-49ef-857d-892a50199382" d="m610.96,518.82c-.06-1.36-1.16-2.54-2.4-2.55-1.39-.02-2.54,1.23-2.51,2.73.03,1.42,1.03,2.48,2.41,2.54,1.31.06,2.55-1.3,2.49-2.72Z"/>
    <path class="uuid-18b27cec-ff1c-49ef-857d-892a50199382" d="m307.68,305.26c.04-1.35-1.28-2.63-2.67-2.59-1.05.03-1.58.78-1.56,2.22.03,1.92.54,2.79,1.6,2.74,1.45-.08,2.6-1.11,2.63-2.36Z"/>
  </g>
</svg>