<?xml version="1.0" encoding="UTF-8"?>
<svg id="uuid-b2b8b398-af4c-4205-8b8d-7ee50c43879e" data-name="Layer 1" xmlns="http://www.w3.org/2000/svg" viewBox="0 0 1000 1000">
  <defs>
    <style>
      .uuid-081df1a4-49cd-43c3-b8c6-4d6ad117a1fd {
        fill: #fff;
      }
    </style>
  </defs>
  <path class="uuid-081df1a4-49cd-43c3-b8c6-4d6ad117a1fd" d="m871.48,387.79h-43.02c-.07,3.14.89,6.09.82,9.49-.73-.8-1.17-1.25-1.59-1.72-3.04-3.35-6.64-5.92-10.87-7.51-12-4.52-28.18-3.16-39.46,9.51-4.53,5.09-7.67,10.95-9.82,17.39-.2.61-.43,1.19-.65,1.79-.14-.03-.28-.07-.42-.1,0-4.79.03-9.57-.01-14.36-.04-4.83.19-9.67-.13-14.47h-43.78v2.63c0,14.82.02,29.65-.03,44.47,0,1.74-.29,3.51-.72,5.2-.52,2.03-2.01,3.19-4.1,3.46-.9.12-1.84.19-2.74.11-2.8-.25-4.43-1.6-5.01-4.35-.34-1.64-.47-3.36-.48-5.04-.04-14.68-.02-29.36-.03-44.04,0-.81-.06-1.63-.09-2.39-3.89-.45-42.29-.27-43.98.24v4.82c-1.8-.79-3.32-1.53-4.89-2.12-12.48-4.62-25.34-6.09-38.52-4.37-6.92.9-13.48,3.07-19.37,6.94-8.83,5.79-13.36,13.92-13.2,24.54.11,6.93,2.53,12.81,8.09,17.18,2.58,2.03,5.46,3.49,8.53,4.61,4.27,1.55,8.71,2.34,13.19,2.97,1.45.2,2.96.49,4.26,1.13,2.71,1.33,2.85,4.74.28,6.32-.97.6-2.22.9-3.38,1.02-2.49.25-4.91-.32-7.29-1.03-5.72-1.74-10.9-4.6-15.95-7.74-.63-.39-1.28-.75-2.05-1.21-.71,1.68-1.31,3.1-1.9,4.52-.57,1.37-1.13,2.74-1.69,4.11-.59,1.44-1.14,2.89-1.79,4.3-.61,1.32-.82,2.87-2.11,4.18v-36.3c0-6.12-.8-12.1-3.05-17.84-2.71-6.89-7.12-12.3-13.93-15.51-3.95-1.86-8.16-2.65-12.5-2.86-8.98-.44-16.86,2.11-23.35,8.47-1.86,1.82-3.62,3.76-5.43,5.63-.3.3-.67.53-1.32,1.04.51-4.6.97-8.79,1.45-13.08h-43.3v31.67c-.46-.26-.63-.56-.73-.88-3.92-11.14-11.06-19.66-21.39-25.26-15.74-8.55-32.43-10.12-49.37-4.6-17.77,5.79-28.67,18.13-31.93,36.79-.13.73-.29,1.45-.45,2.32-.41-.24-.66-.35-.86-.51-3.05-2.37-6.44-4.13-10.16-5.07-4.37-1.11-8.81-1.92-13.21-2.9-1.58-.35-3.18-.69-4.68-1.25-1.64-.62-2.29-1.77-2.19-3.25.09-1.33.89-2.39,2.57-2.68,1.78-.3,3.66-.45,5.44-.25,5.66.64,10.7,2.97,15.4,6.1.62.42,1.26.82,2.05,1.34,3.72-8.69,7.37-17.21,11.04-25.77-3.32-1.89-6.57-3.21-9.95-4.25-8.71-2.67-17.65-3.78-26.74-3.6-7.63.16-15,1.6-21.97,4.79-4.15,1.9-7.9,4.37-11.02,7.73-6.15,6.62-8.14,14.52-6.98,23.29.77,5.89,3.72,10.58,8.52,14.09,2.7,1.98,5.71,3.36,8.87,4.42,3.97,1.32,8.06,2.02,12.19,2.6,1.45.2,2.96.51,4.25,1.15,2.62,1.3,2.78,4.63.32,6.19-1.02.64-2.34.99-3.56,1.1-2.93.25-5.74-.53-8.5-1.45-5.05-1.69-9.69-4.22-14.19-7.02-.77-.47-1.53-.94-2.5-1.54-.89,2.1-1.71,4-2.52,5.9-.16-.03-.31-.05-.46-.07,0-1.09.07-2.19,0-3.28-.59-8.45-4.29-14.97-11.99-18.87-2.25-1.14-4.61-2.19-7.05-2.81-4.15-1.08-8.42-1.74-12.61-2.67-1.7-.38-3.41-.89-5.02-1.54-1.24-.51-1.58-1.71-1.5-3.01.08-1.21.79-1.99,1.86-2.33,1.06-.33,2.18-.62,3.29-.64,4.63-.11,8.93,1.21,13,3.28,2.45,1.24,4.78,2.71,7.33,4.18,3.64-8.48,7.29-17.01,10.99-25.65-1.26-.64-2.29-1.27-3.38-1.72-14.24-5.91-28.97-7.63-44.16-4.87-6.82,1.24-13.15,3.79-18.66,8.09-5.81,4.54-9.41,10.41-10.48,17.77-.06.37-.21.72-.41,1.4-.38-.66-.6-1.01-.78-1.37-4.53-8.91-11.3-15.64-20.14-20.21-13.92-7.2-28.63-8.67-43.81-5.24-10.18,2.3-18.93,7.27-25.83,15.2-7.45,8.56-10.9,18.69-11.1,29.93-.32,18.24,7.44,31.79,23.81,40.13,8.32,4.24,17.26,6.06,26.53,6.45,10.83.45,21.24-1.32,31.07-5.99,8.22-3.91,15.03-9.45,19.52-17.53.13-.23.32-.42.48-.63-1.51,4.8-3.74,9.32-5.39,14.07.45.25.69.4.94.51,7.41,3.16,14.97,5.89,22.85,7.64,10.24,2.29,20.54,2.84,30.86.57,8.05-1.77,15.43-4.95,21.44-10.82.11-.11.32-.1.57-.17-.25.84-.46,1.55-.72,2.41,2.84,1.14,5.57,2.29,8.34,3.32,11.12,4.14,22.5,6.97,34.49,6.65,8.73-.23,17.09-1.98,24.85-6.09,6.69-3.54,11.87-8.56,14.79-15.68.09-.22.24-.42.42-.76.3.35.5.55.64.77,5.41,8.39,13.11,13.88,22.3,17.42,9.1,3.51,18.57,4.68,28.27,4.27,9.29-.39,18.15-2.58,26.39-6.93,9.45-4.98,16.63-12.06,20.14-22.4.06-.19.29-.33.73-.81v28.17h44.09v-2.62c0-14.12-.03-28.24.03-42.35,0-1.95.26-3.95.7-5.86,1.03-4.38,4.77-5.01,7.91-4.1,2.63.76,3.54,2.93,3.91,5.3.33,2.08.44,4.21.45,6.32.03,13.63.02,27.25.02,40.87,0,.81.06,1.63.1,2.39,4.03.45,42.48.27,44.16-.25v-5.89c3.24,1.16,6.19,2.28,9.19,3.29,11.84,3.96,23.93,6.04,36.45,4.41,6.93-.9,13.53-2.84,19.56-6.44,7.27-4.33,12.44-10.33,14.46-18.73.07-.31.23-.6.45-1.12.37.79.64,1.35.89,1.92,1.75,4.07,4.21,7.66,7.33,10.79,4.98,5,10.97,8.35,17.6,10.63,9.51,3.28,19.31,4.01,29.25,3.22,8.02-.64,15.73-2.58,22.88-6.37,10.35-5.47,17.28-13.66,19.84-25.26.1-.44.25-.86.48-1.63.68,2.15,1.2,3.98,1.84,5.76,3.09,8.62,7.83,16.06,15.3,21.6,10.64,7.89,26.68,8.26,36.84,1.15,2.65-1.85,4.99-4.12,7.47-6.22.56-.47,1.06-1,1.6-1.5.11.08.22.16.34.23-.35,3.46-.7,6.92-1.06,10.47h43.18c.46-2.25.38-87.74-.07-89.38Zm-686.35,22.99c5.65-.22,9.92,4.81,10,9.78h-18.23c-.1-5.45,3.47-9.6,8.23-9.78Zm83.45,39.65c-.96.4-2.02.66-3.05.72-3.01.18-5.87-.6-8.69-1.56-4.96-1.71-9.53-4.21-13.97-6.98-.71-.44-1.42-.88-2.39-1.48-1.18,2.73-2.29,5.31-3.4,7.9-.09-.03-.19-.06-.28-.1.12-.6.24-1.19.39-1.96h-43.02c-.22.65-.41,1.33-.68,1.96-1.35,3.13-3.7,4.98-7.14,5.11-3.6.13-6.49-1.17-8.07-4.63-1.26-2.75-1.53-5.65-1.5-8.87h62.12v-8.7c.34.09.58.08.68.19,4.22,4.82,9.73,7.39,15.78,8.9,3,.75,6.09,1.14,9.14,1.72,1.31.26,2.64.49,3.89.93,1.52.53,2.37,1.68,2.43,3.37.05,1.7-.77,2.87-2.25,3.48Zm165.83-39.6c5.42-.08,9.91,4.35,9.77,9.75h-18.04c-.3-5.54,3.25-9.67,8.27-9.75Zm51.65,35.93h-42.65c-.37,1.02-.6,1.83-.96,2.58-1.44,3.01-3.85,4.66-7.19,4.7-3.43.05-6.21-1.2-7.76-4.47-1.34-2.8-1.57-5.78-1.56-8.97h60.12v6.16Zm179.2-13.49c-4.65-7.47-11.74-10.39-19.46-12.19-3.7-.86-7.48-1.4-11.21-2.15-1.02-.21-2.04-.57-2.98-1.04-1.24-.61-1.85-1.71-1.73-3.13.12-1.39,1.07-2.11,2.26-2.52,1.91-.68,3.89-.58,5.86-.33,5.14.66,9.77,2.65,14.12,5.37,1.01.63,1.99,1.31,3.2,2.11,3.26-7.57,6.47-15.05,9.76-22.69.49,1.69.64,33.04.18,36.57Zm162.74,5.84c-2.07,3.97-5.62,5.4-9.89,5.11-4.21-.28-7.17-2.46-8.51-6.5-.59-1.79-.79-3.7-1.12-5.37.27-1.5.39-2.78.73-3.99,1.35-4.86,5.47-7.88,10.37-7.67,5.1.22,8.89,3.51,9.89,8.55.68,3.46.16,6.77-1.45,9.86Z"/>
  <path class="uuid-081df1a4-49cd-43c3-b8c6-4d6ad117a1fd" d="m918.92,470.72v6.47h-43.79c-.09-.08-.15-.12-.19-.17-.05-.05-.11-.1-.11-.16-.04-.28-.1-.56-.1-.84,0-42,0-84,.02-126,0-.2.1-.39.19-.72h44.04c0,9.19,0,18.34,0,27.5,0,9.11,0,18.21,0,27.32v27.53c0,9.06,0,18.13,0,27.19.18.04.37.08.55.11,2.44-5.87,4.88-11.74,7.4-17.81.87.52,1.59.94,2.29,1.37,4.87,3.02,9.86,5.78,15.37,7.47,2.44.75,4.92,1.37,7.48,1.16,1.1-.09,2.24-.37,3.23-.84,1.36-.64,2.14-1.79,2.06-3.4-.08-1.58-.87-2.73-2.29-3.26-1.31-.49-2.71-.79-4.09-.98-4.41-.61-8.77-1.4-12.98-2.91-4.03-1.45-7.74-3.45-10.76-6.53-3.5-3.56-5.41-7.92-5.84-12.85-.96-11.13,3.03-20.03,12.25-26.45,6.09-4.25,12.98-6.54,20.26-7.49,12.88-1.69,25.48-.27,37.72,4.11,1.59.57,3.11,1.32,4.65,2.02.57.26,1.1.61,1.9,1.06-3.55,8.61-7.3,17.08-10.98,25.77-.71-.47-1.29-.85-1.87-1.23-4.7-3.12-9.71-5.52-15.37-6.18-1.79-.21-3.67-.12-5.45.16-1.87.3-2.67,1.32-2.76,2.74-.1,1.58.57,2.69,2.37,3.35,1.44.53,2.97.88,4.5,1.14,4.94.85,9.91,1.57,14.62,3.36,1.97.75,3.93,1.59,5.76,2.64,5.64,3.22,9.21,8.03,10.38,14.47,1.84,10.13-.22,19.23-7.48,26.81-4.29,4.48-9.61,7.36-15.41,9.38-8.89,3.09-18.05,3.73-27.36,2.8-9.63-.96-18.79-3.73-27.76-7.23-.65-.25-1.31-.47-2.43-.87Z"/>
  <path class="uuid-081df1a4-49cd-43c3-b8c6-4d6ad117a1fd" d="m435.77,329.93c-.54,0-1.09.08-1.72.13-1.76,4.21-3.48,8.34-5.33,12.77-1.9-4.41-3.7-8.6-5.5-12.78h-31.8v2.39c0,8.19,0,16.37,0,24.57,0,1.2,0,2.4-.09,3.6-.3,3.68-2.8,5.34-6.35,4.3-1.33-.39-2.29-1.18-2.54-2.55-.24-1.31-.41-2.65-.41-3.98-.03-8.68-.02-17.36-.02-26.05v-2.2c-3.52-.43-17.15-.28-18.81.25v7.42c-1.34-1.01-2.36-1.88-3.48-2.59-7.75-4.95-16.21-6.4-25.17-4.59-10.95,2.22-18.84,9.92-20.43,21.23-.15,1.08-.28,2.16-.45,3.48-.81-.74-1.41-1.29-2.07-1.9-2.47,2.61-4.51,5.52-7.43,7.27-1.42-1.3-2.71-2.48-4.01-3.67,1.63-1.06,3.22-1.87,4.55-2.98,6.58-5.45,6.3-14.79-.56-19.85-1.07-.79-2.25-1.47-3.46-2.02-4.99-2.24-10.18-2.68-15.52-1.51-3,.67-5.78,1.8-8.23,3.69-5.18,4-6.81,12.13-1.67,17.59.42.45.77.95,1.07,1.32-2.74,1.28-5.38,2.52-8.21,3.85v-27.05h-18.61v52.09h18.67v-5.84c4.81,4.32,10.21,5.71,16.09,5.87,5.87.15,11.31-1.18,16.34-4.43,1.03,1.17,2.03,2.17,2.87,3.28.77,1.01,1.68,1.31,2.91,1.29,5.79-.05,11.58-.02,17.36-.03.61,0,1.22-.08,2.3-.15-4.26-4.08-8.22-7.86-12.3-11.76.96-.72,1.77-1.34,2.68-2.03,5.34,9.25,13.49,13.43,23.68,13.86,10.28.43,18.65-3.59,25.16-11.62.23.33.42.54.55.78,3.02,5.81,7.95,8.99,14.21,10.32,4.56.97,9.12.92,13.66-.05,3-.64,5.8-1.78,8.28-3.62,5.32-3.95,7.73-9.46,8.01-15.88.24-5.36.07-10.73.08-16.09,0-.67,0-1.34,0-2.02.15-.04.29-.09.44-.13.4.62.81,1.23,1.2,1.86,2.29,3.73,4.53,7.48,6.87,11.18.71,1.12,1.02,2.25,1.02,3.57-.04,6.42-.02,12.85-.02,19.27v2.39h18.38v-2.4c0-6.49-.02-12.99.03-19.48,0-.87.17-1.86.61-2.6,2.92-4.91,5.86-9.81,8.81-14.71,2.18-3.63,4.37-7.25,6.56-10.88.05-.09.12-.17.2-.25l1.17-1.92c-6.51,0-13.02-.01-19.53-.01Zm-150.84,39.14c-1.4-.32-2.45-1.04-2.79-2.52-.32-1.38.21-2.47,1.26-3.34.37-.31.79-.56,1.17-.82,2.01,1.96,3.85,3.77,5.78,5.65-1.71,1.04-3.47,1.48-5.42,1.03Zm9-23.47c-.69.92-1.62,1.66-2.42,2.45-1.46-.8-2.06-1.89-2.36-3.13-.31-1.23.38-2.55,1.54-3.14,1.14-.57,2.22-.38,3.04.55.86.97,1.02,2.17.2,3.27Zm61.95,5.62c-2.54.01-5.07,0-7.62,0h-7.68c-.03,4.14-.03,8.11,0,12.26h7.91c-.17,1.4-1.02,2.01-1.88,2.57-3.84,2.5-9.22,1.49-11.9-2.23-3.11-4.31-2.65-11.43.99-15.33,3.83-4.11,9.81-3.75,13.71.99,4.56-1.67,9.04-3.31,13.71-5.01.42,2.27.11,4.34.24,6.69-2.61.11-5.05.04-7.49.05Z"/>
  <path class="uuid-081df1a4-49cd-43c3-b8c6-4d6ad117a1fd" d="m247.68,329.92c-5.78,0-11.6-.01-17.59.01.09,9.03-.53,17.76,1.31,26.41-.16.05-.32.11-.48.16-5.2-8.83-10.4-17.66-15.57-26.43h-18.02v9.97c-1.91-1.67-3.47-3.29-5.29-4.56-1.84-1.28-3.84-2.4-5.91-3.24-2.07-.84-4.3-1.42-6.51-1.77-2.22-.36-4.51-.48-6.75-.37-2.23.12-4.5.48-6.67,1.07-2.16.59-4.28,1.45-6.27,2.48-1.94.99-3.69,2.35-5.81,3.74v-7.29h-38.57c-.45,3.1-.31,16.12.2,17.68,3.17-.13,6.38-.27,9.8-.41v34.8h18.58v-34.86c1.5.14,2.56.24,3.6.34-.37,2.28-.83,4.28-.99,6.29-1.01,12.02,5.07,22.24,16.77,26.43,4.88,1.75,9.93,2.17,15.03,1.59,6.95-.79,13.05-3.47,17.84-8.74.2-.22.48-.37,1.02-.76v9.7h17.87c-.32-9.08.7-18.05-.72-27.02.49.49.83,1.01,1.14,1.55,4.53,7.98,9.07,15.94,13.55,23.94.66,1.18,1.35,1.73,2.79,1.7,4.72-.1,9.46-.03,14.19-.05.54,0,1.08-.1,1.6-.15.43-2.53.32-50.58-.13-52.22Zm-65.02,31.02c-1.58,3.54-5.43,5.47-9.44,4.87-4.16-.63-6.95-3.32-7.59-7.37-.1-.62-.11-1.26-.13-1.52,0-6.96,5.38-11.23,11.59-9.56,2.14.57,3.85,1.78,4.98,3.67,1.91,3.18,2.1,6.54.6,9.92Z"/>
  <path class="uuid-081df1a4-49cd-43c3-b8c6-4d6ad117a1fd" d="m136.56,395.58c-.61,0-1.22,0-1.83,0-9.18-.14-18.34.25-27.46,1.37-11.94,1.47-23.69,3.74-34.84,8.45-4.77,2.01-9.31,4.44-12.95,8.22-.83.86-1.59,1.81-2.21,2.82-2.02,3.32-1.99,6.68.02,10,1.26,2.09,2.99,3.74,4.91,5.21,4.18,3.22,8.93,5.37,13.84,7.21,1.17.44,2.34.87,3.49,1.62-.51.03-1.02.07-1.52.08-14.87.09-29.59-1.28-44.09-4.67-7.23-1.69-14.27-3.94-20.89-7.38-3.02-1.57-5.87-3.38-8.33-5.75-6.25-6.02-6.25-12.96,0-19.02,3.35-3.24,7.36-5.43,11.56-7.33,8.29-3.74,17.03-5.93,25.94-7.54,14.64-2.65,29.43-3.43,44.27-2.86,14.56.56,28.96,2.33,42.96,6.63,2.42.74,4.79,1.6,7.19,2.41-.02.17-.03.35-.05.52Z"/>
  <path class="uuid-081df1a4-49cd-43c3-b8c6-4d6ad117a1fd" d="m924.81,491.39c9.19,9.62,18.05,18.89,27.26,28.54.22-2.49.1-4.56.12-6.61.02-2.19,0-4.37,0-6.56v-6.35c0-2.1,0-4.19,0-6.4h5.28v39.21c-9.18-9.59-18.03-18.84-26.84-28.05-.18.06-.25.08-.31.11-.05.03-.12.08-.13.13-.04.21-.09.41-.09.62-.04,8.04-.07,16.08-.11,24.12,0,.06-.06.12-.19.34h-4.99v-39.1Z"/>
  <path class="uuid-081df1a4-49cd-43c3-b8c6-4d6ad117a1fd" d="m996.44,501.65c-1.31,1.24-2.52,2.39-3.86,3.66-.45-.53-.87-.97-1.24-1.46-4.39-5.71-11.01-6.55-16.07-4.42-5.62,2.37-9.04,8.33-8.35,14.55.66,5.91,5.61,10.97,11.74,12,5.62.94,11.85-2.97,13.14-8.26.08-.32.07-.67.11-1.21h-10.05c-.52-1.74-.34-3.31-.17-5.02h15.82c.55,4.9-.17,9.41-3.37,13.3-6.3,7.66-18,8.68-25.82,2.1-6.2-5.23-8.24-12-6.2-19.8,1.96-7.48,8.44-12.83,16.08-13.68,7.63-.85,13.55,2.08,18.23,8.26Z"/>
  <path class="uuid-081df1a4-49cd-43c3-b8c6-4d6ad117a1fd" d="m806.39,510.1c-.92-8.42-6.55-14.62-14.86-15.81-3.6-.52-7.31-.3-10.97-.4-.54-.02-1.08.1-1.7.16v36.53c3.1,0,5.98.11,8.85-.04,2.1-.11,4.25-.31,6.25-.9,8.26-2.41,13.4-10.61,12.43-19.54Zm-7.69,9.76c-2.92,4.45-8.84,6.6-14.43,5.38v-26.01c6.33-1.09,11.93,1.01,14.71,5.69,2.96,4.98,2.92,10.07-.28,14.94Z"/>
  <path class="uuid-081df1a4-49cd-43c3-b8c6-4d6ad117a1fd" d="m681.63,513.4v17.1h-5.29v-36.5h5.14c.23,2.22.08,4.53.11,6.82.03,2.32,0,4.65,0,7.2,5.51.27,10.9.05,16.5.14.3-4.81-.03-9.44.21-14.16h4.95c.45,1.43.56,34.02.1,36.54h-5.08c-.15-5.67.02-11.34-.1-17.13h-16.55Z"/>
  <path class="uuid-081df1a4-49cd-43c3-b8c6-4d6ad117a1fd" d="m535.64,620.85c4.05-9.02,7.91-17.63,11.79-26.29h4.39v31.86h-4.04c-.11-2.5-.04-5.02-.05-7.53-.01-2.47,0-4.94,0-7.41s0-5.07,0-7.61c-2.22,3.58-3.79,7.42-5.5,11.19-1.72,3.78-3.39,7.58-5.1,11.41h-3.06c-3.35-7.47-6.74-15.02-10.13-22.57l-.45.06c-.13,2.4-.04,4.82-.06,7.22-.02,2.54,0,5.08,0,7.62s0,4.92,0,7.57h-4.11v-31.91c1.26,0,2.44,0,3.62,0,1.04,0,1.15.9,1.46,1.58,2.26,5.01,4.5,10.04,6.75,15.05,1.15,2.57,2.3,5.15,3.45,7.72.26.57.56,1.12,1.03,2.03Z"/>
  <path class="uuid-081df1a4-49cd-43c3-b8c6-4d6ad117a1fd" d="m728.17,594.73c.27-.14.33-.2.39-.21q3.86-.35,5.45,3.2c3.11,6.95,6.22,13.9,9.34,20.85.28.63.6,1.26,1.07,2.23.45-.94.78-1.59,1.08-2.25,3.23-7.2,6.45-14.42,9.69-21.62,1.27-2.83.57-2.46,3.83-2.49.48,0,.97.06,1.6.1v31.85h-4.08v-22.59c-.14-.03-.29-.06-.43-.09-3.38,7.56-6.76,15.12-10.16,22.73h-3.07c-3.33-7.43-6.72-14.99-10.11-22.54-.66,1.85-.47,3.7-.51,5.53-.03,1.9,0,3.81,0,5.72v11.28h-4.09v-31.7Z"/>
  <path class="uuid-081df1a4-49cd-43c3-b8c6-4d6ad117a1fd" d="m821.86,514.77c.82-.32,1.47-.57,2.11-.83,3.93-1.64,6.14-5.35,6.01-10.03-.13-4.59-2.2-7.62-6.32-9.05-4.23-1.47-8.59-.93-12.98-.92v36.54h5.27v-14.25c.13-.06.27-.12.41-.17.42.59.85,1.18,1.27,1.78,2.65,3.83,5.28,7.67,7.95,11.49.35.5.84,1.21,1.3,1.24,1.92.12,3.87.28,6.08-.15-3.76-5.31-7.37-10.41-11.08-15.64Zm-5.89-4.65v-11c2.3-.33,4.48-.18,6.5.93,1.83,1.02,2.18,2.87,2.12,4.74-.06,1.92-.77,3.55-2.67,4.43-1.84.86-3.77.89-5.95.89Z"/>
  <path class="uuid-081df1a4-49cd-43c3-b8c6-4d6ad117a1fd" d="m764.77,514.82c.52-.24.88-.45,1.27-.57,4.43-1.41,7.15-5.46,6.83-10.73-.31-5.12-3.16-8.16-8.34-9.21-3.57-.72-7.15-.33-10.93-.42v36.65h5.21v-14.33c.88.52,1.34,1.12,1.77,1.74,2.6,3.77,5.18,7.56,7.81,11.32.38.54.96,1.26,1.49,1.3,1.85.16,3.73.06,6.1.06-3.91-5.52-7.52-10.62-11.2-15.82Zm-5.87-4.79v-10.88c2.09-.38,4.02-.16,5.87.61,2.04.84,2.65,2.62,2.69,4.63.04,2.03-.56,3.77-2.51,4.75-1.88.94-3.87,1.08-6.04.88Z"/>
  <path class="uuid-081df1a4-49cd-43c3-b8c6-4d6ad117a1fd" d="m723.21,491.02c-1.61,3.63-3.03,6.84-4.44,10.05-1.45,3.29-2.89,6.58-4.34,9.87-1.42,3.22-2.87,6.44-4.26,9.67-1.41,3.26-2.98,6.45-4.3,10.05,1.01,0,1.64.01,2.27,0,4.26-.11,3.17.77,4.96-3.3.99-2.24,1.95-4.49,2.86-6.62h14.13c1.41,3.35,2.78,6.59,4.15,9.85,1.99.04,3.84.28,5.88-.19-5.62-13.1-11.17-26.02-16.9-39.37Zm-4.55,24.4c.06-1.47,2.83-8.29,4.56-11.06,1.55,3.7,3.03,7.21,4.65,11.06h-9.21Z"/>
  <path class="uuid-081df1a4-49cd-43c3-b8c6-4d6ad117a1fd" d="m855.57,525.51v4.77c-1.52.45-16.75.57-19.38.17-.4-1.51-.52-33.52-.13-36.26,1.54-.4,16.78-.5,19.44-.1v4.8c-2.33.17-4.71.05-7.07.08-2.31.02-4.61,0-7.03,0v8.83h13.66v5.22c-2.22.17-4.51.06-6.81.08-2.24.02-4.48,0-6.84,0v12.4h14.17Z"/>
  <path class="uuid-081df1a4-49cd-43c3-b8c6-4d6ad117a1fd" d="m859.18,520.79c1.7-.48,3.31-.93,4.95-1.39.43,1.17.71,2.27,1.22,3.24,1.13,2.16,2.96,3.43,5.43,3.43,2.58,0,4.63-1.16,5.88-3.48,1.35-2.51.74-5.33-1.63-6.92-1.39-.94-2.97-1.6-4.48-2.36-1.57-.79-3.2-1.48-4.73-2.35-3.7-2.12-5.35-5.35-4.68-9.58.64-4.05,3.22-6.47,7.03-7.64,5.14-1.57,10.37.44,12.98,4.94.17.29.26.63.42,1.01-.44.33-.82.65-1.23.91-.94.61-1.9,1.19-2.9,1.81-.62-.8-1.13-1.56-1.74-2.23-1.74-1.91-4.76-2.34-6.97-1.07-2.56,1.47-3.38,5.27-.38,7.14,1.13.71,2.35,1.28,3.55,1.86,1.71.84,3.48,1.55,5.15,2.46,3.71,2.01,5.88,5.02,5.67,9.39-.21,4.44-2.26,7.87-6.23,9.89-7.6,3.87-16.38-.66-17.34-9.05Z"/>
  <path class="uuid-081df1a4-49cd-43c3-b8c6-4d6ad117a1fd" d="m885.36,520.79c1.68-.47,3.28-.92,5-1.4.32.99.52,1.87.87,2.69,1.01,2.31,2.75,3.79,5.3,3.96,2.59.18,4.69-.88,6.09-3.1,1.62-2.57,1.09-5.56-1.4-7.28-1.32-.91-2.84-1.54-4.29-2.27-1.64-.82-3.34-1.52-4.92-2.44-3.69-2.13-5.35-5.34-4.67-9.59.65-4.06,3.25-6.48,7.04-7.64,5.84-1.78,11.35,1.12,13.41,5.96-.62.43-1.28.91-1.96,1.35-.7.45-1.43.87-2.22,1.35-.55-.74-1.01-1.44-1.54-2.08-1.76-2.08-5.01-2.56-7.3-1.1-2.79,1.78-2.97,5.14-.24,6.98,1.51,1.01,3.25,1.68,4.88,2.5,1.51.76,3.08,1.42,4.53,2.28,6.43,3.81,5.74,10.74,3.25,14.74-2.62,4.2-7.71,6.23-12.68,5.25-5.02-.99-8.7-5.35-9.14-10.17Z"/>
  <path class="uuid-081df1a4-49cd-43c3-b8c6-4d6ad117a1fd" d="m682.55,613.16c.91-.35,1.58-.58,2.21-.87,3.5-1.6,5.2-4.4,5.33-8.19.13-3.8-1.31-6.83-4.81-8.45-1.68-.78-3.62-1.21-5.48-1.33-3.3-.21-6.63-.07-9.94-.07-.41,0-.81.09-1.3.14v32h4.16v-13.03c1.07,0,1.98.1,2.86-.02,1.63-.22,2.55.41,3.33,1.86,1.84,3.41,3.85,6.73,5.84,10.06.3.5.8,1.15,1.27,1.21,1.36.16,2.74.06,4.5.06-2.78-4.66-5.35-8.97-7.98-13.37Zm-4.25-3.2c-1.76,0-3.51,0-5.22,0-.48-1.61-.56-9.63-.12-12.21,2.42,0,4.75-.15,7.05.03,4.54.34,6.84,3.92,5.42,8.2-.83,2.53-2.75,3.61-5.23,3.91-.62.08-1.26.06-1.89.06Z"/>
  <path class="uuid-081df1a4-49cd-43c3-b8c6-4d6ad117a1fd" d="m473.5,613.15c.7-.27,1.22-.46,1.74-.67,3.77-1.48,5.95-4.8,5.89-8.92-.06-4.05-2.24-7.16-6.14-8.48-1.38-.47-2.88-.73-4.34-.79-3.24-.12-6.49-.05-9.74-.04-.4,0-.81.06-1.31.11v32.01h4.16v-12.9h5.03c.37.62.74,1.22,1.1,1.82,1.92,3.29,3.83,6.59,5.78,9.86.3.51.77,1.23,1.23,1.28,1.4.16,2.85.29,4.48-.13-2.7-4.52-5.26-8.81-7.87-13.17Zm-9.68-3.03v-12.41c2.9.09,5.7-.31,8.47.29,2.92.64,4.37,2.52,4.43,5.59.06,3.1-1.4,5.47-4.26,5.96-2.74.47-5.58.39-8.64.56Z"/>
  <path class="uuid-081df1a4-49cd-43c3-b8c6-4d6ad117a1fd" d="m711.18,594.44h-4.89c-3.89,10.7-7.73,21.28-11.63,32h4.43c.89-2.38,1.74-4.67,2.6-6.97h14.06c.89,2.39,1.76,4.68,2.58,6.9h4.43c-3.92-10.81-7.75-21.38-11.58-31.94Zm-7.81,21.35c-.03-1.4,3.75-12.44,5.47-15.77,1.93,5.39,3.75,10.48,5.64,15.77h-11.11Z"/>
  <path class="uuid-081df1a4-49cd-43c3-b8c6-4d6ad117a1fd" d="m573.53,594.48h-4.92c-3.84,10.65-7.78,21.22-11.59,31.98h4.4c.89-2.39,1.77-4.74,2.62-7.01h14.03c.9,2.4,1.79,4.75,2.65,7.03h4.41c-3.93-10.86-7.77-21.44-11.59-32.01Zm-8.15,21.32c1.64-5.27,3.63-10.31,5.42-15.42.16-.02.32-.03.48-.05,1.82,5.09,3.64,10.18,5.53,15.47h-11.43Z"/>
  <path class="uuid-081df1a4-49cd-43c3-b8c6-4d6ad117a1fd" d="m637.31,594.32h3.87c.03.78.09,1.52.09,2.27,0,5.92-.02,11.85.03,17.77,0,1.26.14,2.54.44,3.76.58,2.37,2.14,3.91,4.49,4.62,1.87.57,3.77.58,5.64.1,2.9-.74,4.57-2.69,5.05-5.61.21-1.24.24-2.53.24-3.79.02-5.57.01-11.14.01-16.71,0-.76,0-1.52,0-2.38h4.24c0,.77,0,1.45,0,2.14,0,5.71.02,11.42-.02,17.14,0,1.48-.05,2.98-.34,4.42-1,5.01-4.93,8.33-10.3,8.79-.98.08-1.98.08-2.96.01-6.17-.46-10.48-4.62-10.66-10.77-.21-7.05-.05-14.1-.04-21.15,0-.13.09-.26.22-.61Z"/>
  <path class="uuid-081df1a4-49cd-43c3-b8c6-4d6ad117a1fd" d="m487.72,594.37h4.24c0,.87,0,1.62,0,2.38,0,5.64-.01,11.28.01,16.92,0,1.2.05,2.41.25,3.58.5,3.02,2.26,5.04,5.27,5.62,1.55.3,3.26.31,4.81.01,2.81-.53,4.63-2.32,5.2-5.18.23-1.17.35-2.37.35-3.56.04-5.85.02-11.71.02-17.56,0-.69,0-1.38,0-2.2h4.07c.06.53.16,1.07.16,1.61,0,6.28.04,12.55-.02,18.83-.01,1.39-.2,2.83-.57,4.17-1.24,4.47-4.97,7.44-9.97,7.81-1.8.13-3.69,0-5.45-.4-4.54-1.02-7.57-4.55-8.14-9.18-.15-1.19-.21-2.39-.21-3.59-.02-5.64,0-11.28,0-16.92,0-.76,0-1.52,0-2.34Z"/>
  <path class="uuid-081df1a4-49cd-43c3-b8c6-4d6ad117a1fd" d="m624.53,594.63c-1.09-.23-2.23-.34-3.35-.36-2.96-.05-5.93-.03-8.89-.02-.55,0-1.09.08-1.75.13v32.01h4.13v-13.33c1.16,0,1.99.02,2.83,0,2.04-.05,4.1.03,6.13-.19,4.9-.52,8.19-3.94,8.39-8.53.22-5.13-2.46-8.64-7.5-9.72Zm-.46,14.5c-.53.17-1.09.35-1.64.35-2.51.04-5.02.02-7.65.02v-11.78c3.13.07,6.2-.39,9.22.44,2.49.68,3.72,2.59,3.74,5.46.02,2.87-1.21,4.72-3.67,5.51Z"/>
  <path class="uuid-081df1a4-49cd-43c3-b8c6-4d6ad117a1fd" d="m422.9,594.63c-1.09-.23-2.23-.34-3.35-.36-2.97-.05-5.93-.03-8.89-.02-.54,0-1.09.08-1.74.13v32.06h4.13v-13.27c.9-.04,1.65-.09,2.41-.11,2.18-.06,4.38.03,6.55-.19,4.9-.51,8.19-3.94,8.39-8.52.22-5.13-2.46-8.64-7.5-9.72Zm-.45,14.5c-.53.17-1.09.35-1.64.36-2.52.03-5.03.02-7.66.02v-11.77c3.11.05,6.18-.4,9.2.42,2.49.68,3.73,2.58,3.75,5.45.02,2.87-1.2,4.73-3.66,5.52Z"/>
  <path class="uuid-081df1a4-49cd-43c3-b8c6-4d6ad117a1fd" d="m440.14,623.09h12.83v3.15c-1.5.4-14.45.49-17.08.09v-31.96h17.14v3.23c-2.11.16-4.27.05-6.42.07-2.1.02-4.2,0-6.46,0v10.69h11.42v3.56h-11.43v11.16Z"/>
  <path class="uuid-081df1a4-49cd-43c3-b8c6-4d6ad117a1fd" d="m584.34,669.64c-.57.05-.99.06-1.4.13-1.27.19-2.04-.37-2.73-1.45-3.36-5.22-6.81-10.38-10.23-15.56-.38-.58-.79-1.14-1.51-2.16-.2,3.53-.08,6.58-.1,9.62-.02,3.09,0,6.18,0,9.41h-3.15v-24.11c2.6-.76,2.9-.65,4.31,1.48,3.34,5.06,6.68,10.12,10.03,15.18.38.58.79,1.13,1.4,1.67.28-3.07.21-6.11.23-9.16.01-3.09,0-6.18,0-9.39h3.16v24.35Z"/>
  <path class="uuid-081df1a4-49cd-43c3-b8c6-4d6ad117a1fd" d="m913.39,493.97h5.14v36.53h-5.14v-36.53Z"/>
  <path class="uuid-081df1a4-49cd-43c3-b8c6-4d6ad117a1fd" d="m747.55,494.01v36.5h-5.14v-36.5h5.14Z"/>
  <path class="uuid-081df1a4-49cd-43c3-b8c6-4d6ad117a1fd" d="m530.71,659.62c.62-.26,1.01-.41,1.39-.57,3.03-1.32,4.6-3.98,4.31-7.28-.28-3.19-2.23-5.49-5.46-6.19-3.54-.78-7.12-.29-10.65-.38-.44,2.52-.35,22.93.06,24.41h2.84v-9.71c.8-.05,1.43-.05,2.04-.14,1.4-.22,2.19.39,2.83,1.62,1.07,2.06,2.32,4.04,3.49,6.05q1.4,2.4,4.08,2.32c.25,0,.5-.1.99-.21-2-3.35-3.9-6.54-5.91-9.92Zm-7.41-2.64v-9.04c2.27-.06,4.44-.25,6.59.17,2.08.4,3.28,2.08,3.27,4.33,0,2.38-1.37,4.26-3.62,4.5-2.01.21-4.05.04-6.24.04Z"/>
  <path class="uuid-081df1a4-49cd-43c3-b8c6-4d6ad117a1fd" d="m541.4,645.29h3.07c.04.79.1,1.48.1,2.17,0,4.02,0,8.04,0,12.06,0,.7,0,1.41.05,2.11.25,3.62,2.26,5.51,5.86,5.54,3.78.03,6-1.97,6.08-5.77.1-4.79.04-9.59.05-14.38,0-.49.04-.98.08-1.65h3.02c.05.47.16,1.01.16,1.55.01,4.51.05,9.03,0,13.54-.09,7.26-5.78,11.3-12.72,9.07-3.47-1.12-5.51-3.65-5.67-7.16-.25-5.62-.07-11.25-.07-17.07Z"/>
  <path class="uuid-081df1a4-49cd-43c3-b8c6-4d6ad117a1fd" d="m594.6,623.17h11.13v3.24h-15.24v-32.02h4.09c.03,3.14.01,6.29.01,9.43,0,3.17,0,6.35,0,9.52s0,6.33,0,9.83Z"/>
  <path class="uuid-081df1a4-49cd-43c3-b8c6-4d6ad117a1fd" d="m634.23,669.65h-3.82c-3.03-8.04-6.06-16.06-9.17-24.31h3.41c2.47,6.74,4.96,13.54,7.63,20.85,2.89-7.17,5.13-14.1,7.79-20.92h3.34c-3.1,8.23-6.14,16.29-9.19,24.38Z"/>
  <path class="uuid-081df1a4-49cd-43c3-b8c6-4d6ad117a1fd" d="m593.16,647.77v8.24h8.73v2.64h-8.66v8.41c3.15.19,6.37-.02,9.78.12.04.81.07,1.54.11,2.42h-13.06v-24.34h12.9v2.5h-9.8Z"/>
  <path class="uuid-081df1a4-49cd-43c3-b8c6-4d6ad117a1fd" d="m647.21,669.6v-24.3h12.99c.05.75.09,1.43.14,2.36-3.34.38-6.64-.07-9.96.28v8.06h8.7c.04.91.07,1.64.12,2.64h-8.82v8.44h9.79c.06.92.1,1.6.15,2.25-1.55.5-8.83.64-13.11.26Z"/>
  <path class="uuid-081df1a4-49cd-43c3-b8c6-4d6ad117a1fd" d="m497.46,647.82h-6.58v-2.27c1.5-.44,13.02-.58,16.35-.18v2.4h-6.47v21.84h-3.3v-21.78Z"/>
  <path class="uuid-081df1a4-49cd-43c3-b8c6-4d6ad117a1fd" d="m668.29,667.2h8.48c.05.85.09,1.53.13,2.18-1.63.45-9.41.51-11.72.1v-24.16h3.11v21.87Z"/>
  <path class="uuid-081df1a4-49cd-43c3-b8c6-4d6ad117a1fd" d="m611.22,667.13h8.59c.04.86.08,1.59.13,2.48h-11.79c-.01-8.06,0-16.11,0-24.3h3.08v21.82Z"/>
  <path class="uuid-081df1a4-49cd-43c3-b8c6-4d6ad117a1fd" d="m514.45,669.67h-3v-24.35h3v24.35Z"/>
  <path class="uuid-081df1a4-49cd-43c3-b8c6-4d6ad117a1fd" d="m683.45,669.65h-2.99v-24.33h2.99v24.33Z"/>
  <path class="uuid-081df1a4-49cd-43c3-b8c6-4d6ad117a1fd" d="m766.65,622.79h3.03c-1.06,2.57-2.03,4.97-3.06,7.35-.35.81-.41.78-2.08.71.51-2.77,1.36-5.4,2.11-8.07Z"/>
</svg>